<svg width="145" height="42" viewBox="0 0 145 42" fill="none" xmlns="http://www.w3.org/2000/svg">
<path d="M97.3907 15.7606C96.3151 15.7606 95.2203 16.0658 94.1063 16.6763C93.0307 17.2867 92.0896 18.2596 91.2829 19.595C90.6068 20.7703 90.1508 22.2705 89.894 24.1218C89.8365 24.5363 90.1661 24.899 90.5874 24.8998L100.272 24.9175C101.655 24.9175 102.557 24.6314 102.98 24.0591C103.441 23.4867 103.671 22.7809 103.671 21.9415C103.671 20.835 103.383 19.824 102.807 18.9083C102.269 17.9544 101.52 17.1913 100.56 16.619C99.6379 16.0467 98.5816 15.7606 97.3907 15.7606ZM97.3331 41.8007C93.4533 41.8007 90.3418 40.5607 87.9985 38.0807C85.6553 35.5625 84.4836 32.1095 84.4836 27.7218C84.4836 24.784 85.0791 22.2277 86.2699 20.0529C87.4991 17.8781 89.1125 16.1802 91.1101 14.9593C93.146 13.7384 95.3548 13.1279 97.7364 13.1279C99.734 13.1279 101.539 13.5667 103.153 14.4442C104.766 15.3218 106.053 16.5809 107.013 18.2215C107.974 19.824 108.454 21.7889 108.454 24.1163C108.454 24.7649 108.416 25.3754 108.339 25.9477C108.22 26.7728 107.476 27.3212 106.637 27.3212H90.5271C90.1282 27.3212 89.806 27.6475 89.8261 28.0432C89.9865 31.1998 90.7477 33.6299 92.3201 35.3336C94.0103 37.165 96.2383 38.0807 99.0041 38.0807C100.848 38.0807 102.385 37.7182 103.614 36.9933C104.425 36.4894 105.562 35.7514 106.539 34.9677C107.085 34.5302 108.001 34.8316 108.093 35.5218C108.127 35.7719 108.083 36.0276 107.957 36.2466C106.939 38.0133 105.861 38.7182 104.017 40.0265C102.059 41.4157 99.9453 41.8007 97.3331 41.8007Z" fill="url(#paint0_linear_98_2470)"/>
<path d="M61.9078 41.7997C61.5045 41.7997 61.1775 41.475 61.1775 41.0744V40.2907C61.1775 39.9398 61.4304 39.6392 61.778 39.5769L64.2673 39.1305C64.9484 39.0083 65.4503 38.4283 65.4633 37.741C65.4849 36.5928 65.4957 35.3802 65.4957 34.103C65.5352 32.3404 65.5549 30.7932 65.5549 29.4614V26.6413C65.5549 25.0353 65.5352 23.7036 65.4957 22.646C65.4957 21.8587 65.4739 21.0388 65.4302 20.1864C65.4022 19.6406 65.0593 19.1624 64.553 18.9485C63.5576 18.5279 61.9909 17.8669 61.7892 17.7882C61.4908 17.6718 60.9932 17.2763 60.9322 17.0274C60.7208 16.1643 61.7973 15.5234 62.6452 15.2409L68.5855 13.2613C68.838 13.1772 69.1155 13.2138 69.3372 13.3606C69.6747 13.584 69.8869 13.952 69.9103 14.3542L70.2713 20.5625C70.2847 20.793 70.6093 20.8496 70.7049 20.6391C71.6671 18.5218 72.9582 16.2958 74.3097 15.1256C75.8871 13.7938 77.4646 13.1279 79.042 13.1279C79.949 13.1279 80.7969 13.3238 81.5856 13.7155C81.6479 13.7464 81.7088 13.7782 81.7684 13.8108C83.02 14.4965 83.4556 16.0878 83.0054 17.4353C82.5253 18.8723 81.4605 19.5908 79.811 19.5908C79.1406 19.5908 78.5096 19.4733 77.9181 19.2383C77.3265 18.9641 76.7547 18.592 76.2026 18.122L75.9512 17.8812C75.6835 17.6248 75.3224 17.4875 74.9507 17.5006C74.0448 17.5673 73.3238 19.395 72.5351 20.6484C71.7463 21.9018 71.0956 23.3707 70.583 25.0549V29.4614C70.583 30.754 70.583 32.262 70.583 33.9855C70.6122 35.2637 70.6415 36.4774 70.6707 37.6263C70.6882 38.3123 71.1878 38.8917 71.8674 39.0151L74.953 39.5758C75.2999 39.6388 75.5519 39.939 75.5519 40.2893V41.0744C75.5519 41.475 75.225 41.7997 74.8216 41.7997H61.9078Z" fill="url(#paint1_linear_98_2470)"/>
<path d="M131.066 16.5926C131.447 16.7288 131.835 16.9085 132.26 17.1361C134.365 18.3516 134.743 23.3662 134.739 26.5873V29.4164C134.739 30.7524 134.72 32.3044 134.68 34.0726C134.68 35.3539 134.669 36.5704 134.647 37.7221C134.634 38.4116 134.131 38.9935 133.448 39.116L130.951 39.5638C130.602 39.6264 130.348 39.9279 130.348 40.2799V41.0661C130.348 41.4679 130.676 41.7937 131.081 41.7937H144.035C144.44 41.7937 144.768 41.4679 144.768 41.0661V40.2785C144.768 39.9271 144.515 39.6259 144.167 39.5627L141.072 39.0003C140.39 38.8765 139.153 37.7934 139.136 37.1053C139.107 35.9755 139.136 35.1642 139.136 33.7786V29.4239V24.9911C139.136 23.3049 139.136 22.8267 138.64 20.0862C138.513 19.3868 138.265 18.7124 137.907 18.0987C136.765 16.1436 136.385 15.6877 134.93 14.8964C133.269 13.9927 131.409 13.5408 129.352 13.5408C126.9 13.5408 126.131 14.1695 124.035 15.4269C122.034 16.6496 120.408 18.345 119.156 20.4967L118.794 14.2688C118.77 13.8653 118.557 13.4962 118.219 13.2721C117.996 13.1248 117.718 13.0881 117.465 13.1725L111.506 15.1583C110.655 15.4418 109.575 16.0847 109.787 16.9505C109.848 17.2001 110.348 17.5969 110.647 17.7137C110.849 17.7927 112.421 18.4557 113.42 18.8776C113.927 19.0923 114.271 19.5719 114.299 20.1195C114.343 20.9746 114.365 21.7971 114.365 22.5869C114.405 23.6478 114.425 24.9838 114.425 26.5948V29.4239C114.425 30.7598 114.405 32.3119 114.365 34.0801C114.365 35.3613 114.354 36.5778 114.333 37.7296C114.32 38.4191 113.816 39.001 113.133 39.1235L110.636 39.5713C110.287 39.6338 110.033 39.9354 110.033 40.2874V41.0735C110.033 41.4754 110.361 41.8012 110.766 41.8012H123.721C124.125 41.8012 124.453 41.4754 124.453 41.0735V40.286C124.453 39.9346 124.2 39.6334 123.852 39.5702L120.757 39.0078C120.075 38.8839 119.574 38.3027 119.557 37.6146C119.527 36.462 119.498 35.2445 119.469 33.9622V29.4239C119.695 26.8612 120.772 24.4492 122.125 22.4539C123.391 20.2142 125.063 18.4524 127.12 17.1951C128.348 16.5223 129.748 16.1213 131.066 16.5926Z" fill="url(#paint2_linear_98_2470)"/>
<path d="M18.9932 41.798C13.2067 41.798 8.60004 39.9288 5.17311 36.1902C1.74618 32.4517 0.0327148 27.374 0.0327148 20.9571C0.0327148 16.549 0.931583 12.7826 2.72931 9.65781C4.58323 6.47727 6.99893 4.05002 9.97642 2.37605C12.9539 0.70208 16.0412 0 19.4119 0C21.66 0 24.2365 0.395201 26.3078 1.33984C26.8164 1.5718 27.3282 1.79306 27.8395 2.01921C28.7023 2.40086 30.133 3.23156 31.8946 5.21469C33.3177 6.81675 33.5611 8.37901 33.1249 9.97812C32.6886 11.5772 30.9325 13.2898 28.7415 13.2898C27.337 13.2898 26.148 12.8185 25.4177 12.0931C24.7435 11.3119 23.9839 10.468 23.9531 8.78137L23.9812 8.34028C23.997 8.09131 24.0309 7.84379 24.0825 7.59964L24.0963 7.53437C24.1529 7.26624 24.2424 7.00601 24.3626 6.75945L24.6757 6.11749C24.9734 5.507 24.8795 4.77943 24.4363 4.26328C24.3416 4.15299 24.2339 4.055 24.1087 3.9805C23.7745 3.78163 23.0197 3.3842 22.1117 3.23661C20.8795 3.03633 20.9131 3.05501 20.07 2.9743C17.8148 2.7907 16.0387 3.23661 13.3849 4.93114C12.2275 5.67013 11.2536 6.48192 10.0542 7.90015C7.75088 10.6901 6.59921 14.7634 6.59921 20.1201C6.59921 25.3652 7.86325 29.3827 10.3913 32.1727C12.9194 34.9626 16.9988 36.3576 20.9314 36.3576C23.3471 36.3576 25.5661 35.8275 27.5886 34.7674C28.9145 34.0357 30.4256 33.1962 31.6733 32.1229C32.379 31.5159 33.7089 31.8163 33.9088 32.7221C33.9457 32.8892 33.9432 33.0652 33.8819 33.2251C33.3541 34.6026 31.4192 37.3049 28.9369 39.036C26.2965 40.8774 22.9819 41.798 18.9932 41.798Z" fill="url(#paint3_linear_98_2470)"/>
<path d="M47.4087 13.1279C48.1869 13.1279 48.9979 13.2148 49.8031 13.3805C50.3566 13.4944 50.9074 13.6455 51.4431 13.8312C51.4918 13.848 51.5403 13.8652 51.5887 13.8826C51.7825 13.9525 51.9741 14.0268 52.1629 14.1056C52.235 14.1356 52.3066 14.1664 52.3779 14.1979C52.449 14.2294 52.5198 14.2616 52.59 14.2945C52.9414 14.4591 53.2806 14.6416 53.6035 14.842C53.6358 14.8621 53.668 14.8822 53.7 14.9026C53.7319 14.923 53.7637 14.9436 53.7953 14.9644C54.425 15.3777 55.01 15.8438 55.5479 16.365C55.6946 16.5071 55.8378 16.6533 55.9774 16.8037C56.8151 17.7059 57.5249 18.7573 58.0961 19.9683C58.5085 20.8426 58.8322 21.7647 59.0713 22.7466C59.1081 22.8976 59.1428 23.05 59.1756 23.2039C59.2084 23.3578 59.2391 23.5132 59.2679 23.6701C59.34 24.0623 59.3998 24.4638 59.4474 24.8754C59.4569 24.9576 59.4658 25.0403 59.4744 25.1234C59.4915 25.2897 59.5068 25.4575 59.52 25.6271C59.5333 25.7966 59.5446 25.9677 59.5541 26.1406C59.5588 26.2271 59.563 26.314 59.5667 26.4013C59.5818 26.7505 59.5894 27.1067 59.5894 27.4701L59.588 27.7413C59.5852 28.0078 59.5782 28.2703 59.5671 28.529C59.5653 28.5705 59.5631 28.6119 59.5611 28.6533C59.5592 28.6931 59.5575 28.7328 59.5554 28.7725C59.5528 28.8209 59.5498 28.8692 59.5469 28.9173C59.5445 28.9578 59.5421 28.9982 59.5395 29.0384C59.5373 29.072 59.5348 29.1056 59.5325 29.139C59.5289 29.1902 59.5254 29.2411 59.5215 29.292C59.5185 29.33 59.5153 29.3679 59.5121 29.4058C59.5085 29.4497 59.5049 29.4936 59.501 29.5372C59.4975 29.5768 59.4937 29.6163 59.4899 29.6558C59.4857 29.6999 59.4816 29.7439 59.4771 29.7878C59.4738 29.8204 59.4703 29.8529 59.4669 29.8854C59.4614 29.9366 59.4558 29.9877 59.45 30.0387C59.4463 30.0713 59.4424 30.1038 59.4385 30.1363C59.4331 30.1816 59.4276 30.2267 59.4219 30.2718C59.4173 30.3087 59.4124 30.3454 59.4075 30.3822C59.4013 30.4287 59.3951 30.4752 59.3886 30.5215C59.3845 30.5506 59.3803 30.5797 59.3761 30.6087C59.3687 30.6594 59.3612 30.71 59.3535 30.7604C59.3491 30.7889 59.3446 30.8173 59.3401 30.8457C59.3319 30.8974 59.3236 30.949 59.315 31.0003C59.3104 31.028 59.3056 31.0556 59.3008 31.0832C59.2926 31.1309 59.2843 31.1785 59.2757 31.2259C59.27 31.2574 59.2641 31.2888 59.2583 31.3202C59.2495 31.3672 59.2405 31.4141 59.2314 31.4609C59.2255 31.4909 59.2196 31.5208 59.2136 31.5506C59.2046 31.5954 59.1954 31.64 59.1861 31.6844C59.1789 31.7186 59.1717 31.7526 59.1644 31.7866C59.1551 31.8292 59.1457 31.8716 59.1362 31.9139C59.1292 31.945 59.1223 31.976 59.1151 32.0069C59.1047 32.0523 59.0939 32.0975 59.0831 32.1426C59.0762 32.1713 59.0694 32.2 59.0623 32.2286C59.051 32.2748 59.0394 32.3208 59.0277 32.3666C59.0204 32.3953 59.013 32.4239 59.0056 32.4524C58.9934 32.4988 58.9809 32.545 58.9684 32.5911C58.9611 32.6179 58.954 32.6447 58.9466 32.6714C58.9331 32.72 58.9193 32.7683 58.9055 32.8166C58.8989 32.8393 58.8925 32.8619 58.8859 32.8846C58.8713 32.9343 58.8562 32.9838 58.8412 33.0333C58.8338 33.0576 58.8266 33.0819 58.8191 33.1062C58.8039 33.1551 58.7882 33.2039 58.7726 33.2525C58.7658 33.2738 58.7591 33.2952 58.7522 33.3165C58.7366 33.364 58.7207 33.4114 58.7047 33.4587C58.696 33.4846 58.6874 33.5104 58.6786 33.5362C58.6635 33.5801 58.648 33.6239 58.6325 33.6676C58.6235 33.6929 58.6147 33.7182 58.6056 33.7435C58.588 33.7922 58.57 33.8407 58.5519 33.8891C58.5441 33.9101 58.5364 33.9311 58.5285 33.9521C58.5128 33.9934 58.4966 34.0346 58.4806 34.0757C58.4688 34.106 58.4572 34.1363 58.4452 34.1665C58.4307 34.2032 58.4157 34.2397 58.4008 34.2762C58.3886 34.3063 58.3766 34.3364 58.3641 34.3664C58.3427 34.418 58.3208 34.4694 58.2988 34.5208C58.2921 34.5364 58.2856 34.5521 58.2788 34.5677C58.2568 34.6185 58.2342 34.6691 58.2115 34.7196C58.1737 34.804 58.1356 34.8882 58.0961 34.9718C58.0235 35.1258 57.9481 35.2769 57.871 35.4258C57.8479 35.4705 57.8248 35.5152 57.8013 35.5595C57.7918 35.5772 57.7821 35.5948 57.7726 35.6125C57.7478 35.6585 57.723 35.7044 57.6978 35.7499C57.6869 35.7697 57.6756 35.7893 57.6646 35.8089C57.6415 35.8501 57.6185 35.8913 57.5951 35.9321C57.5789 35.9602 57.5623 35.988 57.546 36.0159C57.5264 36.0493 57.507 36.0828 57.4872 36.116C57.4717 36.1419 57.4558 36.1675 57.4402 36.1933C57.419 36.2283 57.3979 36.2633 57.3764 36.2979C57.362 36.3212 57.3473 36.3442 57.3328 36.3672C57.3098 36.4038 57.2868 36.4404 57.2634 36.4767C57.2481 36.5004 57.2326 36.5238 57.2172 36.5474C57.1947 36.5817 57.1723 36.616 57.1495 36.65C57.1335 36.6741 57.1172 36.698 57.101 36.7218C57.0781 36.7557 57.0551 36.7895 57.0319 36.823C57.0163 36.8454 57.0007 36.8677 56.985 36.8899C56.9611 36.924 56.937 36.958 56.9127 36.9917C56.8951 37.0162 56.8773 37.0405 56.8596 37.0648C56.8371 37.0957 56.8146 37.1264 56.7918 37.157C56.7732 37.182 56.7544 37.2069 56.7356 37.2317C56.713 37.2615 56.6905 37.2913 56.6677 37.3208C56.649 37.3449 56.6302 37.3689 56.6114 37.3929C56.5874 37.4236 56.5632 37.4541 56.5389 37.4844C56.5211 37.5066 56.5033 37.5287 56.4854 37.5507C56.4611 37.5806 56.4369 37.6103 56.4124 37.6399C56.3913 37.6653 56.3701 37.6907 56.3488 37.716C56.3279 37.7409 56.3068 37.7656 56.2856 37.7903C56.2624 37.8174 56.239 37.8443 56.2156 37.8712C56.1942 37.8957 56.1726 37.9202 56.151 37.9445C56.128 37.9704 56.105 37.9961 56.0818 38.0217C56.0589 38.0471 56.0358 38.0722 56.0127 38.0973C55.9918 38.1201 55.9709 38.1429 55.9498 38.1654C55.9245 38.1924 55.8991 38.2192 55.8737 38.246C55.8513 38.2694 55.8289 38.2927 55.8064 38.316C55.7824 38.3407 55.7583 38.3653 55.7341 38.3898C55.7123 38.412 55.6904 38.434 55.6684 38.456C55.6413 38.4831 55.614 38.51 55.5866 38.5368C55.5664 38.5565 55.5461 38.5763 55.5258 38.5959C55.498 38.6227 55.47 38.6491 55.442 38.6756C55.4206 38.6958 55.3994 38.7161 55.3779 38.7362C55.3514 38.7608 55.3248 38.7851 55.2982 38.8094C55.2753 38.8303 55.2524 38.8513 55.2293 38.872C55.2012 38.8973 55.1727 38.9223 55.1443 38.9474C55.1228 38.9663 55.1014 38.9854 55.0798 39.0041C55.0514 39.0288 55.0229 39.0532 54.9943 39.0775C54.9718 39.0967 54.9493 39.1159 54.9266 39.135C54.896 39.1606 54.8652 39.1859 54.8344 39.2112C54.8137 39.2282 54.7931 39.2453 54.7722 39.2622C54.744 39.2851 54.7156 39.3076 54.6872 39.3302C54.6622 39.35 54.6374 39.3699 54.6123 39.3896C54.5715 39.4214 54.5305 39.453 54.4893 39.4843C54.4801 39.4914 54.471 39.4986 54.4617 39.5056C54.4149 39.541 54.3677 39.5759 54.3203 39.6107C54.3126 39.6163 54.3051 39.6221 54.2974 39.6277C54.1435 39.7401 53.9867 39.849 53.827 39.9546C53.8164 39.9616 53.8059 39.9687 53.7953 39.9757C53.7117 40.0306 53.6267 40.084 53.5407 40.1364C53.5321 40.1417 53.5235 40.1471 53.5149 40.1523C53.4633 40.1835 53.4112 40.2142 53.3587 40.2445C53.3463 40.2518 53.3338 40.259 53.3212 40.2662C53.3015 40.2775 53.2817 40.2887 53.2618 40.2998C53.2522 40.3053 53.2426 40.3107 53.2329 40.3161C53.2108 40.3285 53.1886 40.3407 53.1664 40.3529C53.1548 40.3592 53.1432 40.3656 53.1316 40.3719C53.1115 40.3828 53.0913 40.3937 53.071 40.4045C53.0588 40.4111 53.0465 40.4176 53.0342 40.4241C53.0144 40.4346 52.9944 40.445 52.9744 40.4554C52.9589 40.4635 52.9434 40.4716 52.9279 40.4795C52.9137 40.4868 52.8995 40.4941 52.8853 40.5013C52.8633 40.5124 52.8414 40.5235 52.8193 40.5345C52.8071 40.5406 52.795 40.5466 52.7828 40.5527C52.7627 40.5626 52.7426 40.5724 52.7224 40.5822C52.7093 40.5885 52.6962 40.595 52.683 40.6013C52.6614 40.6117 52.6397 40.622 52.618 40.6322C52.6046 40.6386 52.5911 40.6449 52.5776 40.6512C52.4813 40.6962 52.384 40.7399 52.286 40.7822C52.2797 40.7849 52.2735 40.7876 52.2672 40.7903C52.2325 40.8052 52.1978 40.82 52.1629 40.8345L52.0207 40.8927C51.9526 40.9201 51.884 40.9468 51.8151 40.9731C51.7892 40.983 51.7633 40.993 51.7374 41.0027C51.7218 41.0085 51.7061 41.0141 51.6905 41.0199C51.6584 41.0318 51.6263 41.0437 51.5941 41.0553C51.5742 41.0625 51.5541 41.0694 51.5341 41.0765C51.5072 41.0861 51.4803 41.0957 51.4532 41.1051C51.4324 41.1124 51.4114 41.1195 51.3905 41.1266C51.3623 41.1362 51.3342 41.146 51.3059 41.1554C51.2869 41.1618 51.2679 41.1679 51.2488 41.1742C51.2197 41.1837 51.1906 41.1933 51.1614 41.2027C51.1377 41.2103 51.114 41.2177 51.0903 41.2252C51.0675 41.2323 51.0448 41.2395 51.0219 41.2466C50.9948 41.2549 50.9676 41.2631 50.9405 41.2713C50.9178 41.2781 50.8951 41.285 50.8724 41.2917C50.8501 41.2983 50.8278 41.3047 50.8056 41.3112C50.7775 41.3193 50.7494 41.3275 50.7212 41.3355C50.7007 41.3413 50.6801 41.347 50.6596 41.3527C50.6333 41.3599 50.607 41.3672 50.5807 41.3743C50.5547 41.3813 50.5287 41.3882 50.5027 41.3951C50.4781 41.4016 50.4535 41.4081 50.4289 41.4144C50.4073 41.42 50.3858 41.4254 50.3642 41.4308C50.3378 41.4375 50.3114 41.4441 50.2849 41.4506C50.2557 41.4578 50.2265 41.4648 50.1973 41.4718C50.1798 41.476 50.1622 41.4801 50.1446 41.4842C50.115 41.4911 50.0853 41.4979 50.0556 41.5046C50.0339 41.5096 50.0122 41.5145 49.9904 41.5193C49.9633 41.5253 49.9362 41.5312 49.909 41.537C49.8873 41.5417 49.8656 41.5463 49.8439 41.5509C49.8164 41.5566 49.7888 41.5623 49.7612 41.5678C49.7378 41.5726 49.7143 41.5773 49.6909 41.5819C49.6654 41.5869 49.64 41.5918 49.6145 41.5966C49.5922 41.6009 49.5699 41.605 49.5476 41.6092C49.5174 41.6148 49.4872 41.6203 49.4569 41.6257C49.4397 41.6287 49.4224 41.6317 49.4051 41.6347C49.3749 41.64 49.3448 41.645 49.3147 41.65C49.2908 41.654 49.2669 41.6578 49.2431 41.6616C49.219 41.6655 49.1949 41.6693 49.1708 41.673C49.1469 41.6766 49.1231 41.6803 49.0992 41.6838C49.0719 41.6879 49.0446 41.6918 49.0173 41.6957C48.9943 41.6989 48.9714 41.702 48.9485 41.7051C48.923 41.7086 48.8976 41.712 48.8721 41.7153C48.8499 41.7181 48.8277 41.7209 48.8055 41.7236C48.7769 41.7272 48.7483 41.7307 48.7198 41.734C48.6973 41.7366 48.6748 41.7391 48.6523 41.7415C48.6277 41.7443 48.6032 41.7471 48.5787 41.7497C48.5519 41.7525 48.5251 41.7551 48.4984 41.7577C48.4745 41.76 48.4506 41.7623 48.4267 41.7645C48.4073 41.7663 48.3878 41.7679 48.3684 41.7696C48.3376 41.7723 48.3067 41.775 48.2759 41.7774C48.2567 41.7789 48.2375 41.7802 48.2184 41.7816C48.1907 41.7836 48.163 41.7857 48.1353 41.7875C48.1112 41.7891 48.0871 41.7905 48.063 41.792C48.0371 41.7935 48.0112 41.7951 47.9854 41.7965C47.97 41.7973 47.9547 41.798 47.9394 41.7988C47.905 41.8005 47.8706 41.8021 47.8363 41.8034C47.832 41.8036 47.8277 41.8037 47.8234 41.8039C47.781 41.8055 47.7386 41.807 47.6964 41.8081C47.6804 41.8085 47.6644 41.8088 47.6485 41.8092C47.5682 41.811 47.4883 41.8122 47.4087 41.8122C47.3293 41.8122 47.2497 41.811 47.1697 41.8092C47.1535 41.8088 47.1372 41.8085 47.121 41.8081C47.0785 41.8069 47.036 41.8056 46.9934 41.8039C46.9893 41.8038 46.9853 41.8036 46.9812 41.8034C46.9474 41.8021 46.9136 41.8004 46.8798 41.7988C46.8638 41.798 46.8478 41.7974 46.8319 41.7965C46.8071 41.7952 46.7823 41.7937 46.7575 41.7922C46.7324 41.7907 46.7071 41.7892 46.6819 41.7875C46.6553 41.7858 46.6287 41.7838 46.602 41.7818C46.5819 41.7803 46.5619 41.779 46.5418 41.7774C46.5118 41.775 46.4819 41.7723 46.4519 41.7697C46.4316 41.768 46.4113 41.7663 46.391 41.7645C46.368 41.7624 46.345 41.76 46.3219 41.7578C46.2944 41.7551 46.2668 41.7524 46.2393 41.7495C46.2162 41.7471 46.1932 41.7446 46.1701 41.742C46.1458 41.7393 46.1216 41.7366 46.0973 41.7338C46.0707 41.7307 46.0441 41.7274 46.0175 41.7241C45.9935 41.7211 45.9694 41.7181 45.9454 41.715C45.9211 41.7119 45.8968 41.7086 45.8725 41.7053C45.8492 41.7022 45.8258 41.699 45.8025 41.6957C45.7751 41.6918 45.7477 41.6878 45.7203 41.6837C45.6967 41.6802 45.6731 41.6767 45.6495 41.6731C45.6255 41.6694 45.6015 41.6656 45.5775 41.6617C45.5532 41.6578 45.5288 41.6538 45.5045 41.6498C45.4758 41.645 45.4472 41.6402 45.4185 41.6352C45.3996 41.6319 45.3806 41.6285 45.3617 41.6252C45.3334 41.6201 45.305 41.615 45.2767 41.6098C45.2517 41.6051 45.2267 41.6004 45.2018 41.5957C45.1803 41.5916 45.1589 41.5875 45.1375 41.5832C45.1096 41.5778 45.0818 41.5722 45.054 41.5665C45.0298 41.5616 45.0056 41.5566 44.9814 41.5516C44.9577 41.5466 44.9339 41.5415 44.9101 41.5364C44.8855 41.5311 44.8608 41.5257 44.8362 41.5203C44.8091 41.5143 44.7822 41.5082 44.7552 41.502C44.7345 41.4973 44.7139 41.4926 44.6933 41.4878C44.6651 41.4812 44.6369 41.4745 44.6087 41.4677C44.5855 41.4621 44.5623 41.4566 44.5391 41.4509C44.512 41.4442 44.4848 41.4373 44.4577 41.4304C44.438 41.4255 44.4183 41.4205 44.3986 41.4154C44.3696 41.4079 44.3406 41.4002 44.3117 41.3926C44.29 41.3868 44.2683 41.3811 44.2467 41.3752C44.2186 41.3676 44.1907 41.3598 44.1627 41.3521C44.1426 41.3465 44.1225 41.341 44.1025 41.3353C44.0738 41.3272 44.0453 41.3189 44.0167 41.3106C43.996 41.3046 43.9752 41.2986 43.9546 41.2924C43.9285 41.2847 43.9025 41.2769 43.8765 41.269C43.8526 41.2618 43.8287 41.2545 43.8049 41.2472C43.7791 41.2392 43.7533 41.231 43.7276 41.2229C43.7068 41.2164 43.6861 41.2098 43.6654 41.2032C43.6328 41.1927 43.6003 41.182 43.5678 41.1713C43.5522 41.1661 43.5366 41.1611 43.521 41.1559C43.4868 41.1444 43.4527 41.1327 43.4186 41.121C43.4046 41.1162 43.3905 41.1114 43.3765 41.1065C43.3427 41.0948 43.309 41.0827 43.2752 41.0707C43.2609 41.0656 43.2466 41.0607 43.2323 41.0555C43.1519 41.0265 43.0719 40.9964 42.9922 40.9658C42.9298 40.9418 42.8675 40.9176 42.8056 40.8927L42.6635 40.8345C42.6297 40.8204 42.596 40.8061 42.5624 40.7917L42.5558 40.7889C42.5493 40.7861 42.5429 40.7832 42.5364 40.7804C42.4397 40.7386 42.3437 40.6956 42.2487 40.6512C42.2352 40.6449 42.2218 40.6386 42.2083 40.6322C42.1866 40.622 42.1649 40.6117 42.1433 40.6013C42.1288 40.5943 42.1143 40.5872 42.0998 40.5801C42.0832 40.572 42.0665 40.5639 42.0499 40.5558C42.0331 40.5475 42.0163 40.5392 41.9996 40.5308C41.9805 40.5212 41.9614 40.5117 41.9424 40.502C41.9267 40.494 41.911 40.486 41.8954 40.478C41.8827 40.4714 41.87 40.4649 41.8573 40.4583C41.8338 40.446 41.8102 40.4338 41.7868 40.4214C41.7777 40.4165 41.7686 40.4116 41.7595 40.4068C41.7378 40.3952 41.7162 40.3836 41.6947 40.3719C41.6831 40.3656 41.6715 40.3592 41.6599 40.3529C41.6377 40.3407 41.6155 40.3285 41.5934 40.3161C41.5837 40.3107 41.5741 40.3053 41.5645 40.2998C41.5446 40.2887 41.5248 40.2775 41.5051 40.2662C41.4926 40.259 41.4801 40.2518 41.4676 40.2445C41.4152 40.2142 41.3631 40.1835 41.3114 40.1523C41.3028 40.1471 41.2942 40.1417 41.2856 40.1364C41.1997 40.084 41.1147 40.0306 41.0311 39.9757C41.0205 39.9687 41.0101 39.9616 40.9995 39.9546C40.8397 39.849 40.6828 39.7401 40.5289 39.6277C40.5212 39.6221 40.5137 39.6163 40.5061 39.6107C40.4587 39.5759 40.4114 39.541 40.3646 39.5056C40.3553 39.4986 40.3462 39.4914 40.337 39.4843C40.2958 39.453 40.2548 39.4214 40.2141 39.3896C40.189 39.3699 40.1641 39.35 40.1391 39.3302C40.1107 39.3076 40.0823 39.2851 40.0541 39.2622C40.0333 39.2453 40.0127 39.2282 39.992 39.2112C39.9611 39.1859 39.9303 39.1606 39.8997 39.135C39.8771 39.116 39.8546 39.0967 39.8321 39.0775C39.8035 39.0531 39.7749 39.0288 39.7466 39.0041C39.7249 38.9854 39.7035 38.9663 39.682 38.9474C39.6536 38.9223 39.6252 38.8973 39.597 38.872C39.5739 38.8513 39.5511 38.8303 39.5282 38.8094C39.5015 38.7851 39.4749 38.7608 39.4485 38.7362C39.4269 38.7161 39.4057 38.6958 39.3843 38.6756C39.3563 38.6491 39.3283 38.6227 39.3006 38.5959C39.2802 38.5763 39.26 38.5565 39.2397 38.5368C39.2124 38.51 39.1851 38.4831 39.1579 38.456C39.1359 38.434 39.114 38.412 39.0922 38.3898C39.068 38.3653 39.0439 38.3407 39.0199 38.316C38.9974 38.2927 38.975 38.2694 38.9526 38.246C38.9272 38.2192 38.9018 38.1924 38.8765 38.1654C38.8554 38.1429 38.8345 38.1201 38.8136 38.0973C38.7905 38.0722 38.7674 38.0471 38.7445 38.0217C38.7214 37.9961 38.6983 37.9704 38.6753 37.9445C38.6537 37.9202 38.6322 37.8957 38.6107 37.8712C38.5873 37.8443 38.5639 37.8174 38.5407 37.7903C38.5196 37.7656 38.4985 37.7409 38.4775 37.716C38.4562 37.6907 38.435 37.6653 38.4139 37.6399C38.3895 37.6103 38.3652 37.5806 38.3409 37.5507C38.323 37.5287 38.3052 37.5066 38.2874 37.4844C38.2631 37.4541 38.2389 37.4236 38.2149 37.3929C38.1961 37.3689 38.1773 37.3449 38.1586 37.3208C38.1358 37.2913 38.1133 37.2615 38.0908 37.2317C38.0719 37.2069 38.0531 37.182 38.0345 37.157C38.0117 37.1264 37.9892 37.0957 37.9667 37.0648C37.949 37.0405 37.9312 37.0162 37.9136 36.9917C37.8893 36.958 37.8654 36.924 37.8414 36.8899C37.8258 36.8677 37.81 36.8454 37.7945 36.823C37.7712 36.7895 37.7483 36.7557 37.7253 36.7218C37.7091 36.698 37.6928 36.6741 37.6768 36.65C37.6541 36.616 37.6316 36.5817 37.6092 36.5474C37.5936 36.5237 37.578 36.5 37.5626 36.4761C37.5425 36.4449 37.5227 36.4134 37.5028 36.3819C37.484 36.3521 37.465 36.3223 37.4463 36.2922C37.4285 36.2634 37.4109 36.2343 37.3933 36.2052C37.3752 36.1755 37.357 36.1459 37.3391 36.116C37.3193 36.0828 37.2999 36.0493 37.2804 36.0159C37.264 35.988 37.2474 35.9602 37.2313 35.9321C37.2078 35.8913 37.1848 35.8501 37.1617 35.8089C37.1507 35.7893 37.1395 35.7697 37.1285 35.7499C37.1092 35.715 37.0903 35.6798 37.0713 35.6447C36.9528 35.426 36.8388 35.2019 36.7303 34.9718C36.6909 34.8882 36.6526 34.804 36.6148 34.7196C36.5922 34.6691 36.5697 34.6185 36.5476 34.5677C36.5409 34.5521 36.5343 34.5364 36.5276 34.5208C36.5055 34.4694 36.4836 34.418 36.4622 34.3664C36.4498 34.3364 36.4378 34.3063 36.4255 34.2762C36.4107 34.2397 36.3957 34.2032 36.3811 34.1665C36.3691 34.1363 36.3575 34.106 36.3457 34.0757C36.3297 34.0346 36.3135 33.9934 36.2978 33.9521C36.2899 33.9311 36.2822 33.9101 36.2744 33.8891C36.2563 33.8407 36.2383 33.7922 36.2208 33.7435C36.2116 33.7182 36.2028 33.6929 36.1939 33.6676C36.1784 33.6239 36.1629 33.5801 36.1478 33.5362C36.1389 33.5104 36.1303 33.4846 36.1216 33.4587C36.1056 33.4114 36.0897 33.364 36.0742 33.3165C36.0672 33.2952 36.0606 33.2738 36.0537 33.2525C36.0381 33.2039 36.0224 33.1551 36.0073 33.1062C35.9992 33.0801 35.9913 33.054 35.9834 33.0278C35.9698 32.9832 35.9563 32.9385 35.9431 32.8936C35.9332 32.86 35.9236 32.8261 35.9139 32.7923C35.9035 32.756 35.8931 32.7196 35.883 32.6831C35.8731 32.6476 35.8635 32.6121 35.8538 32.5764C35.8429 32.5358 35.8319 32.4951 35.8212 32.4543C35.8136 32.4252 35.8061 32.3959 35.7986 32.3666C35.7869 32.3208 35.7753 32.2748 35.764 32.2286C35.7566 32.1985 35.7494 32.1682 35.7421 32.138C35.7326 32.0981 35.7231 32.0582 35.7138 32.0181C35.7048 31.9791 35.6958 31.94 35.6871 31.9008C35.6788 31.864 35.6707 31.8271 35.6627 31.7901C35.6551 31.7549 35.6476 31.7197 35.6402 31.6844C35.6309 31.64 35.6217 31.5954 35.6127 31.5506C35.6067 31.5208 35.6008 31.4909 35.5949 31.4609C35.5858 31.4141 35.5769 31.3672 35.5681 31.3202C35.562 31.2878 35.556 31.2553 35.5501 31.2228C35.5427 31.1817 35.5354 31.1405 35.5283 31.0991C35.5219 31.0623 35.5155 31.0255 35.5093 30.9885C35.5016 30.9427 35.4943 30.8967 35.4869 30.8506C35.4821 30.8199 35.4772 30.7891 35.4725 30.7583C35.4657 30.7143 35.4592 30.6701 35.4528 30.6259C35.4471 30.5872 35.4415 30.5485 35.436 30.5096C35.4305 30.47 35.4252 30.4302 35.4199 30.3904C35.4147 30.351 35.4094 30.3114 35.4044 30.2718C35.3987 30.2267 35.3932 30.1816 35.3878 30.1363C35.3839 30.1038 35.38 30.0713 35.3763 30.0387C35.3705 29.9877 35.3649 29.9366 35.3595 29.8854C35.356 29.8529 35.3525 29.8204 35.3492 29.7878C35.3447 29.7439 35.3406 29.6999 35.3364 29.6558C35.3327 29.6163 35.3288 29.5768 35.3253 29.5372C35.3214 29.4936 35.3178 29.4497 35.3142 29.4058C35.311 29.3679 35.3078 29.33 35.3049 29.292C35.3009 29.2411 35.2975 29.1902 35.2939 29.139C35.2915 29.1056 35.289 29.072 35.2868 29.0384C35.2842 28.9982 35.2818 28.9578 35.2794 28.9173C35.2765 28.8692 35.2736 28.8209 35.271 28.7725C35.2689 28.7328 35.2671 28.6931 35.2652 28.6533C35.2632 28.6119 35.261 28.5705 35.2592 28.529C35.2482 28.2703 35.2412 28.0078 35.2384 27.7413C35.2375 27.6514 35.237 27.561 35.237 27.4701C35.237 27.3793 35.2375 27.2888 35.2384 27.1989C35.2413 26.929 35.2484 26.6632 35.2597 26.4013C35.271 26.1394 35.2865 25.8814 35.3064 25.6271C35.313 25.5423 35.3202 25.4579 35.3278 25.3739C35.3354 25.29 35.3435 25.2065 35.3521 25.1234C35.3606 25.0403 35.3695 24.9576 35.3791 24.8754C35.4267 24.4638 35.4864 24.0623 35.5585 23.6701C35.5873 23.5132 35.6181 23.3578 35.6509 23.2039C35.7 22.973 35.7537 22.7455 35.8119 22.521C35.9864 21.8476 36.2017 21.2023 36.459 20.5813C36.4876 20.5123 36.5167 20.4436 36.5463 20.3752C36.6056 20.2384 36.6669 20.1028 36.7303 19.9683C36.9207 19.5646 37.1266 19.1787 37.3474 18.8101C37.3842 18.7487 37.4213 18.6877 37.459 18.6272C37.5343 18.5063 37.6112 18.3872 37.6898 18.2701C37.7291 18.2116 37.7687 18.1535 37.8088 18.0959C38.1297 17.6351 38.4767 17.2046 38.8491 16.8037C38.9887 16.6533 39.1319 16.5071 39.2786 16.365C39.6698 15.9859 40.0859 15.6361 40.526 15.3144C40.581 15.2742 40.6363 15.2344 40.6921 15.1951C40.8036 15.1164 40.9166 15.0395 41.0311 14.9644C41.0628 14.9436 41.0945 14.923 41.1265 14.9026C41.1584 14.8822 41.1906 14.8621 41.2229 14.842C41.5458 14.6416 41.8851 14.4591 42.2364 14.2945C42.3067 14.2616 42.3774 14.2294 42.4486 14.1979C42.5198 14.1664 42.5914 14.1356 42.6635 14.1056C42.8523 14.0268 43.0437 13.9524 43.2372 13.8826C43.2856 13.8652 43.3341 13.848 43.3828 13.8312C43.6258 13.7468 43.872 13.6696 44.1199 13.5997C44.1695 13.5858 44.2192 13.572 44.2689 13.5586C44.6171 13.465 44.9685 13.3859 45.3202 13.3221C45.3704 13.313 45.4207 13.3042 45.4709 13.2957C45.5714 13.2787 45.6719 13.2629 45.7722 13.2485C46.0232 13.2123 46.2736 13.1841 46.5223 13.1641C46.6218 13.1561 46.721 13.1494 46.8199 13.1441C46.8693 13.1414 46.9187 13.139 46.9679 13.137C47.0665 13.133 47.1647 13.1302 47.2624 13.1289C47.3113 13.1282 47.3601 13.1279 47.4087 13.1279ZM47.4279 16.3582C44.73 16.3601 42.5224 19.4777 41.7556 21.0368C41.7458 21.0587 41.7362 21.0808 41.7265 21.1027L41.686 21.1942C41.596 21.4005 41.5117 21.6056 41.4332 21.8129C41.4223 21.8414 41.4118 21.8701 41.4012 21.8988C41.3929 21.921 41.3846 21.9432 41.3765 21.9654C41.367 21.9917 41.3577 22.0181 41.3483 22.0445C41.3383 22.0729 41.3281 22.1012 41.3182 22.1297C41.3122 22.1472 41.3063 22.1648 41.3003 22.1824C41.2881 22.2184 41.2758 22.2545 41.2639 22.2908C41.258 22.3086 41.2523 22.3265 41.2466 22.3444C41.2354 22.3789 41.2242 22.4135 41.2133 22.4482C41.2066 22.4698 41.2001 22.4914 41.1935 22.513C41.1837 22.5451 41.174 22.5773 41.1645 22.6096C41.1571 22.6348 41.1498 22.6601 41.1425 22.6854C41.1345 22.7131 41.1266 22.7409 41.1188 22.7688C41.1104 22.7992 41.1021 22.8298 41.0939 22.8605C41.087 22.886 41.0801 22.9115 41.0734 22.9371C41.0661 22.9651 41.0591 22.9932 41.0519 23.0215C41.0443 23.0519 41.0366 23.0824 41.0291 23.1131C41.0229 23.1388 41.0168 23.1646 41.0107 23.1905C41.0033 23.2222 40.9959 23.2541 40.9886 23.2861C40.9824 23.3134 40.9765 23.3408 40.9705 23.3683C40.9637 23.3993 40.9569 23.4304 40.9504 23.4617C40.9445 23.4897 40.9388 23.5179 40.9331 23.5462C40.9263 23.5798 40.9195 23.6136 40.913 23.6476C40.9076 23.6757 40.9022 23.704 40.897 23.7323C40.8913 23.7628 40.8858 23.7933 40.8804 23.8241C40.8744 23.8576 40.8686 23.8913 40.8628 23.9253C40.8577 23.9556 40.8526 23.9861 40.8476 24.0168C40.8426 24.0478 40.8377 24.079 40.8328 24.1104C40.8269 24.1483 40.8212 24.1866 40.8156 24.2252C40.8118 24.2514 40.808 24.2778 40.8043 24.3044C40.7992 24.3404 40.7943 24.3768 40.7894 24.4134C40.7849 24.4473 40.7805 24.4815 40.7762 24.516C40.7721 24.5487 40.7682 24.5816 40.7642 24.6147C40.76 24.6503 40.7557 24.6862 40.7517 24.7223C40.7473 24.7617 40.7431 24.8015 40.7389 24.8415C40.7359 24.8701 40.7328 24.8988 40.7299 24.9277C40.7256 24.9717 40.7215 25.0162 40.7174 25.061C40.7144 25.0936 40.7113 25.1263 40.7084 25.1592C40.7051 25.1984 40.702 25.2379 40.6988 25.2777C40.696 25.3118 40.6932 25.3461 40.6906 25.3806C40.6873 25.4249 40.6843 25.4696 40.6812 25.5147C40.6788 25.5493 40.6763 25.5841 40.674 25.6192C40.6711 25.6654 40.6685 25.7121 40.6658 25.7591C40.664 25.7911 40.662 25.8232 40.6603 25.8555C40.6579 25.9015 40.6557 25.9479 40.6535 25.9947C40.6516 26.0342 40.6497 26.074 40.648 26.1141C40.6464 26.1516 40.645 26.1894 40.6436 26.2274C40.6418 26.2745 40.6399 26.3219 40.6383 26.3697C40.637 26.4087 40.636 26.4478 40.6348 26.4873C40.6334 26.536 40.6319 26.5851 40.6307 26.6346C40.6305 26.6403 40.6304 26.6461 40.6303 26.6518C40.6241 26.9149 40.6209 27.1901 40.6207 27.4787C40.622 30.687 41.0003 32.2363 41.7556 33.9208C41.7693 33.9486 41.7839 33.9768 41.7985 34.0056L41.8317 34.0713C41.8842 34.1726 41.9421 34.2792 42.005 34.3901C42.0319 34.4375 42.0598 34.4858 42.0886 34.5347C42.0929 34.542 42.0972 34.5494 42.1015 34.5567C42.1311 34.6068 42.1617 34.6575 42.1932 34.7088C42.1965 34.7143 42.1998 34.7198 42.2032 34.7253C42.2356 34.778 42.2691 34.8314 42.3034 34.8853C42.3089 34.8939 42.3144 34.9026 42.3199 34.9112C42.3295 34.9262 42.3392 34.9413 42.3489 34.9564C42.3586 34.9713 42.3683 34.9863 42.3781 35.0013C42.3906 35.0204 42.4033 35.0395 42.416 35.0588C42.4214 35.0669 42.4268 35.0751 42.4322 35.0832C42.4459 35.1038 42.4596 35.1244 42.4736 35.145C42.4846 35.1614 42.4957 35.1778 42.5069 35.1942C42.5122 35.202 42.5175 35.2098 42.5228 35.2175C42.5388 35.2409 42.5549 35.2643 42.5712 35.2878C42.5818 35.303 42.5925 35.3183 42.6032 35.3335C42.6094 35.3424 42.6157 35.3513 42.6219 35.3602C42.6374 35.3821 42.6529 35.404 42.6687 35.426C42.6784 35.4397 42.6883 35.4534 42.6982 35.4671C42.7111 35.485 42.7241 35.503 42.7372 35.521C42.7739 35.5712 42.8114 35.6216 42.8494 35.672C42.8593 35.6851 42.8692 35.6982 42.8792 35.7113C42.8897 35.7252 42.9003 35.739 42.911 35.7529C42.9236 35.7694 42.9363 35.786 42.9491 35.8025C43.0127 35.8845 43.0782 35.9664 43.1452 36.0481C43.1837 36.095 43.2226 36.1419 43.2622 36.1886C43.3248 36.2624 43.3888 36.3357 43.4541 36.4086C43.4803 36.4378 43.5067 36.467 43.5333 36.496C43.5531 36.5177 43.573 36.5393 43.593 36.5608C43.6 36.5683 43.6071 36.5757 43.6141 36.5831C43.6353 36.6058 43.6566 36.6285 43.6781 36.651C43.696 36.6697 43.714 36.6883 43.7321 36.7069C43.7433 36.7185 43.7545 36.7301 43.7658 36.7417C43.7792 36.7553 43.7928 36.7688 43.8063 36.7824C43.8235 36.7998 43.8407 36.8172 43.8581 36.8345C43.8687 36.845 43.8794 36.8554 43.89 36.8658C43.91 36.8854 43.93 36.905 43.9501 36.9245C43.9623 36.9362 43.9747 36.9479 43.9869 36.9596C44.0064 36.9782 44.0258 36.9967 44.0455 37.0151C44.056 37.025 44.0666 37.0346 44.0771 37.0444C44.0974 37.0633 44.1178 37.082 44.1383 37.1007C44.1505 37.1118 44.1628 37.1228 44.1751 37.1339C44.1941 37.1509 44.213 37.168 44.2321 37.1849C44.2463 37.1974 44.2605 37.2098 44.2748 37.2222C44.2917 37.2369 44.3086 37.2517 44.3256 37.2663C44.342 37.2802 44.3583 37.2941 44.3748 37.308C44.3916 37.3221 44.4085 37.3361 44.4254 37.3501C44.4397 37.362 44.4541 37.3739 44.4685 37.3856C44.4871 37.4008 44.5057 37.4158 44.5243 37.4308C44.5403 37.4436 44.5563 37.4562 44.5724 37.4688C44.5889 37.4818 44.6055 37.4948 44.6222 37.5077C44.6385 37.5204 44.6549 37.5329 44.6713 37.5454C44.6903 37.5598 44.7093 37.5741 44.7284 37.5883C44.7423 37.5986 44.7563 37.6089 44.7703 37.6192C44.7897 37.6333 44.8091 37.6473 44.8285 37.6613C44.8453 37.6733 44.862 37.6853 44.8788 37.6971C44.8955 37.7088 44.9122 37.7203 44.929 37.7319C44.9458 37.7434 44.9625 37.755 44.9794 37.7664C45.0002 37.7804 45.0211 37.7941 45.042 37.8079C45.0563 37.8172 45.0706 37.8267 45.0849 37.8359C45.103 37.8476 45.1212 37.8591 45.1394 37.8706C45.1574 37.8819 45.1753 37.8933 45.1934 37.9044C45.2105 37.9149 45.2278 37.9253 45.245 37.9357C45.2629 37.9465 45.2808 37.9574 45.2989 37.9679C45.3189 37.9797 45.3391 37.9912 45.3592 38.0027C45.376 38.0123 45.3927 38.0219 45.4095 38.0313C45.4261 38.0405 45.4428 38.0495 45.4595 38.0585C45.4786 38.0689 45.4977 38.0794 45.5169 38.0896C45.5416 38.1026 45.5664 38.1152 45.5912 38.1278C45.6035 38.134 45.6156 38.1404 45.6279 38.1466C45.689 38.177 45.7506 38.2058 45.8125 38.2335C45.8397 38.2457 45.8671 38.2576 45.8945 38.2693C45.9179 38.2792 45.9412 38.2894 45.9647 38.299L45.9683 38.3004C45.9769 38.3039 45.9855 38.3071 45.9941 38.3105C46.0228 38.3219 46.0516 38.3332 46.0805 38.3441C46.0958 38.3498 46.1112 38.3552 46.1266 38.3608C46.1499 38.3692 46.1733 38.3777 46.1967 38.3857C46.2115 38.3908 46.2263 38.3956 46.2411 38.4004C46.2651 38.4084 46.2892 38.4165 46.3133 38.424C46.3463 38.4343 46.3794 38.4442 46.4126 38.4536C46.416 38.4546 46.4194 38.4555 46.4228 38.4565C46.4564 38.4659 46.4901 38.4749 46.5239 38.4835C46.5299 38.485 46.5359 38.4865 46.5419 38.488C46.5759 38.4965 46.6101 38.5045 46.6443 38.512C46.6511 38.5135 46.6579 38.515 46.6647 38.5165C46.6748 38.5186 46.6849 38.5208 46.6951 38.5229C46.708 38.5256 46.721 38.5281 46.734 38.5307C46.7398 38.5318 46.7456 38.5329 46.7515 38.534C46.7629 38.5362 46.7744 38.5384 46.7859 38.5405C46.7963 38.5424 46.8067 38.5442 46.8172 38.546C46.8264 38.5476 46.8357 38.5492 46.845 38.5507C46.8555 38.5525 46.866 38.5541 46.8765 38.5558C46.8881 38.5576 46.8996 38.5592 46.9112 38.5609C46.9188 38.562 46.9265 38.5632 46.9341 38.5642C46.9475 38.5661 46.9608 38.5679 46.9742 38.5696C46.9812 38.5705 46.9882 38.5715 46.9952 38.5724C47.0101 38.5742 47.0251 38.5759 47.0401 38.5775C47.0451 38.5781 47.0501 38.5786 47.0552 38.5792C47.0666 38.5804 47.0781 38.5815 47.0896 38.5826C47.0999 38.5836 47.1103 38.5847 47.1206 38.5856C47.128 38.5863 47.1354 38.5868 47.1427 38.5874C47.156 38.5885 47.1692 38.5896 47.1825 38.5905C47.1872 38.5909 47.1919 38.5911 47.1966 38.5914C47.2121 38.5924 47.2276 38.5934 47.2431 38.5942C47.2457 38.5944 47.2483 38.5945 47.251 38.5946C47.3097 38.5976 47.3687 38.5992 47.4279 38.5993C47.4634 38.5992 47.4989 38.5986 47.5342 38.5975C47.5399 38.5973 47.5456 38.5972 47.5512 38.597C47.6296 38.5942 47.7075 38.5887 47.7849 38.5809C47.7885 38.5805 47.792 38.5801 47.7955 38.5798C47.8058 38.5787 47.816 38.5775 47.8262 38.5763C47.8377 38.575 47.8491 38.5738 47.8605 38.5724C47.8691 38.5713 47.8777 38.5701 47.8862 38.569C47.8975 38.5676 47.9088 38.5661 47.92 38.5645C47.9321 38.5628 47.9442 38.561 47.9562 38.5592C47.963 38.5582 47.9697 38.5573 47.9764 38.5562C47.9939 38.5535 48.0113 38.5507 48.0288 38.5478C48.0307 38.5474 48.0326 38.547 48.0345 38.5467C48.0462 38.5447 48.0578 38.5426 48.0695 38.5405C48.0825 38.5381 48.0956 38.5358 48.1086 38.5333C48.1129 38.5325 48.1172 38.5315 48.1216 38.5307C48.1338 38.5283 48.1461 38.5259 48.1583 38.5234C48.2313 38.5084 48.3038 38.4912 48.3759 38.472C48.3814 38.4705 48.3869 38.4691 48.3924 38.4676C48.4261 38.4585 48.4597 38.449 48.4931 38.439C48.4989 38.4373 48.5047 38.4355 48.5105 38.4338C48.5307 38.4277 48.5508 38.4211 48.5709 38.4147C48.5925 38.4078 48.614 38.401 48.6354 38.3938C48.6536 38.3876 48.6716 38.3812 48.6897 38.3749C48.7101 38.3677 48.7305 38.3605 48.7509 38.353C48.7698 38.346 48.7887 38.3388 48.8076 38.3315C48.8265 38.3243 48.8453 38.317 48.8641 38.3095C48.886 38.3008 48.9079 38.2917 48.9297 38.2826C48.9444 38.2765 48.9591 38.2704 48.9737 38.2641C48.9954 38.2548 49.0171 38.2452 49.0388 38.2356C49.0572 38.2273 49.0756 38.2191 49.094 38.2106C49.1116 38.2025 49.1292 38.1941 49.1468 38.1857C49.1666 38.1763 49.1864 38.1668 49.2062 38.1571C49.2245 38.148 49.2428 38.1389 49.2611 38.1296C49.2794 38.1203 49.2976 38.1109 49.3158 38.1014C49.3341 38.0919 49.3523 38.0822 49.3704 38.0725C49.39 38.062 49.4095 38.0515 49.4289 38.0408C49.4459 38.0314 49.463 38.0219 49.48 38.0123C49.4993 38.0014 49.5184 37.9902 49.5376 37.9791C49.5547 37.9691 49.5718 37.9591 49.5888 37.949C49.6073 37.9379 49.6257 37.9267 49.644 37.9155C49.6615 37.9048 49.6791 37.8941 49.6965 37.8832C49.7162 37.8709 49.7357 37.8585 49.7553 37.846C49.7715 37.8356 49.7877 37.8251 49.8038 37.8145C49.8216 37.8029 49.8394 37.7912 49.8571 37.7793C49.875 37.7673 49.8928 37.7553 49.9106 37.7431C49.9283 37.731 49.946 37.7187 49.9636 37.7064C49.9805 37.6946 49.9975 37.6828 50.0143 37.6708C50.0323 37.658 50.0502 37.6449 50.0681 37.6319C50.0832 37.6209 50.0984 37.6099 50.1135 37.5988C50.1341 37.5835 50.1547 37.568 50.1752 37.5524C50.1888 37.5421 50.2024 37.5319 50.216 37.5215C50.2345 37.5072 50.2529 37.4929 50.2713 37.4785C50.2873 37.4659 50.3034 37.4534 50.3193 37.4407C50.3361 37.4274 50.3526 37.4138 50.3693 37.4003C50.3853 37.3873 50.4014 37.3743 50.4174 37.3611C50.4337 37.3477 50.4497 37.3341 50.4659 37.3205C50.483 37.3062 50.5001 37.2921 50.517 37.2776C50.532 37.2648 50.5468 37.2518 50.5617 37.2389C50.579 37.224 50.5962 37.2092 50.6133 37.1941C50.7724 37.0541 50.9262 36.9081 51.0743 36.7578C51.0927 36.7391 51.111 36.7201 51.1292 36.7013C51.1415 36.6887 51.1538 36.6761 51.1659 36.6634C51.1769 36.652 51.1876 36.6405 51.1985 36.629C51.2463 36.5787 51.2935 36.5281 51.34 36.4771C51.352 36.464 51.3639 36.4507 51.3758 36.4375C51.3929 36.4186 51.4099 36.3997 51.4267 36.3807C51.4337 36.3728 51.4406 36.3649 51.4476 36.357C51.4948 36.3036 51.5413 36.2501 51.5871 36.1963C51.6043 36.1759 51.6215 36.1555 51.6385 36.1351C51.6469 36.1251 51.6553 36.1151 51.6636 36.1051C51.68 36.0854 51.6963 36.0656 51.7125 36.0458C51.7244 36.0313 51.7363 36.0168 51.7481 36.0022C51.76 35.9876 51.7718 35.973 51.7836 35.9584C51.7983 35.9401 51.8128 35.9218 51.8273 35.9036C51.8389 35.889 51.8503 35.8744 51.8617 35.8598C51.8735 35.8449 51.8853 35.83 51.897 35.815C51.9112 35.7967 51.9253 35.7784 51.9394 35.7601C51.9507 35.7454 51.9619 35.7308 51.9731 35.7161C51.9846 35.701 51.996 35.6859 52.0074 35.6708C52.0221 35.6513 52.0366 35.6318 52.0511 35.6124C52.0586 35.6024 52.066 35.5923 52.0734 35.5823C52.0873 35.5635 52.1011 35.5448 52.1148 35.5261C52.1287 35.5071 52.1425 35.4881 52.1562 35.4691C52.1637 35.4588 52.171 35.4484 52.1785 35.4381C52.1933 35.4173 52.2081 35.3966 52.2228 35.376C52.2319 35.363 52.241 35.3501 52.25 35.3372C52.2609 35.3218 52.2717 35.3064 52.2824 35.291C52.3179 35.2399 52.3527 35.189 52.3867 35.1384C52.3957 35.1251 52.4047 35.1118 52.4136 35.0985C52.4214 35.0869 52.4289 35.0751 52.4366 35.0635C52.4504 35.0428 52.464 35.0222 52.4775 35.0016C52.4904 34.9819 52.5033 34.9622 52.516 34.9425C52.5198 34.9366 52.5235 34.9306 52.5273 34.9247C52.543 34.9003 52.5585 34.8761 52.5738 34.8519C52.5784 34.8446 52.5829 34.8373 52.5875 34.83C52.6132 34.7892 52.6383 34.7487 52.6628 34.7087C52.6926 34.6601 52.7216 34.6121 52.7497 34.5647C52.7564 34.5533 52.763 34.5419 52.7696 34.5306C52.7968 34.4843 52.8233 34.4387 52.8488 34.3938C52.8696 34.3572 52.8894 34.321 52.909 34.2854C52.9801 34.1567 53.0443 34.0347 53.1003 33.9208C53.1542 33.8006 53.2059 33.681 53.256 33.5615C53.3594 33.3147 53.4549 33.0682 53.5419 32.816C53.5604 32.7625 53.5784 32.7087 53.5961 32.6547C53.6315 32.5467 53.6655 32.4374 53.6979 32.3265C53.7629 32.1046 53.822 31.876 53.8752 31.6372C53.9151 31.4582 53.9517 31.2735 53.9849 31.0816C54.0403 30.7617 54.0865 30.4219 54.1235 30.0553C54.1383 29.9086 54.1517 29.7576 54.1635 29.6019C54.1813 29.3684 54.1958 29.1242 54.207 28.868C54.2145 28.6971 54.2204 28.5209 54.2249 28.3388C54.2317 28.0657 54.2351 27.7795 54.2352 27.4787C54.2349 26.6766 54.211 25.9782 54.1635 25.3555C54.1517 25.1998 54.1383 25.0489 54.1235 24.9022C54.0198 23.8756 53.8441 23.0592 53.5961 22.3028C53.4544 21.8706 53.2892 21.4579 53.1003 21.0368C53.0866 21.0088 53.072 20.9806 53.0573 20.9517C53.0208 20.8798 52.9819 20.8047 52.9399 20.7273C52.8809 20.6189 52.8166 20.5055 52.7472 20.3883C52.7231 20.3477 52.6984 20.3067 52.6731 20.2653C52.5705 20.0972 52.458 19.9223 52.336 19.7439C52.184 19.5215 52.0173 19.2936 51.8374 19.0663C51.7346 18.9364 51.6274 18.8068 51.5162 18.6785C51.4884 18.6464 51.4603 18.6143 51.432 18.5824C51.3185 18.4546 51.2009 18.3284 51.0795 18.205C50.7766 17.897 50.4498 17.6063 50.1027 17.3505C50.0332 17.2993 49.9629 17.2495 49.8918 17.2013C49.8346 17.1624 49.7766 17.1248 49.7184 17.088C49.6682 17.0563 49.6178 17.0252 49.5669 16.9952C49.5302 16.9736 49.4934 16.9524 49.4564 16.9316C49.3823 16.8901 49.3075 16.8504 49.232 16.8128C49.1942 16.7939 49.1563 16.7756 49.1182 16.7578C49.0421 16.7221 48.9652 16.6885 48.8877 16.6571C48.752 16.6021 48.6144 16.5537 48.4749 16.5129C48.435 16.5012 48.395 16.4901 48.3548 16.4797C48.3347 16.4744 48.3146 16.4694 48.2945 16.4645C48.234 16.4498 48.1732 16.4365 48.1121 16.4247C48.0714 16.4168 48.0306 16.4097 47.9896 16.4032C47.9486 16.3967 47.9074 16.3908 47.8661 16.3856C47.8455 16.3831 47.8248 16.3807 47.8041 16.3785C47.7627 16.374 47.7212 16.3704 47.6795 16.3674C47.6587 16.3659 47.6378 16.3645 47.6169 16.3634C47.5751 16.3611 47.5332 16.3595 47.4911 16.3588C47.4701 16.3584 47.449 16.3582 47.4279 16.3582Z" fill="url(#paint4_linear_98_2470)"/>
<defs>
<linearGradient id="paint0_linear_98_2470" x1="105.37" y1="18.269" x2="85.2398" y2="33.628" gradientUnits="userSpaceOnUse">
<stop offset="1" stop-color="#FFA57A"/>
</linearGradient>
<linearGradient id="paint1_linear_98_2470" x1="80.3126" y1="18.2689" x2="60.6184" y2="32.2316" gradientUnits="userSpaceOnUse">
<stop offset="1" stop-color="#FFA57A"/>
</linearGradient>
<linearGradient id="paint2_linear_98_2470" x1="140.264" y1="18.2691" x2="119.514" y2="41.3907" gradientUnits="userSpaceOnUse">
<stop offset="1" stop-color="#FFA57A"/>
</linearGradient>
<linearGradient id="paint3_linear_98_2470" x1="29.5716" y1="7.49451" x2="0.472718" y2="29.0339" gradientUnits="userSpaceOnUse">
<stop offset="1" stop-color="#FFA57A"/>
</linearGradient>
<linearGradient id="paint4_linear_98_2470" x1="56.4564" y1="18.2711" x2="36.2382" y2="33.9368" gradientUnits="userSpaceOnUse">
<stop offset="1" stop-color="#FFA57A"/>
</linearGradient>
</defs>
</svg>
