<svg width="116" height="51" viewBox="0 0 116 51" fill="none" xmlns="http://www.w3.org/2000/svg">
<path d="M40.647 19.426C39.352 19.426 38.0338 19.7864 36.6925 20.5072C35.3975 21.2281 34.2643 22.3769 33.293 23.9537C32.4789 25.3415 31.9299 26.7922 31.6208 28.9783C31.5516 29.4678 31.9484 29.896 32.4556 29.8969L44.1158 29.9179C45.7809 29.9179 46.8678 29.58 47.3766 28.9042C47.9316 28.2284 48.2091 27.3949 48.2091 26.4038C48.2091 25.0973 47.8622 24.2241 47.1684 23.1428C46.5209 22.0165 45.619 21.1154 44.4627 20.4397C43.3527 19.7639 42.0808 19.426 40.647 19.426ZM40.5776 49.8535C35.9062 49.8535 32.1599 48.3893 29.3385 45.4609C26.5172 42.4875 25.1066 38.4102 25.1066 33.2292C25.1066 29.7602 25.8235 26.7417 27.2573 24.1737C28.7373 21.6057 30.6476 19.6378 33.0527 18.1961C35.504 16.7544 38.1957 15.9967 41.0632 15.9967C43.4683 15.9967 45.6421 16.8355 47.5847 17.8717C49.5272 18.9079 51.0767 20.3946 52.2329 22.3319C53.3892 24.2241 53.9674 26.2236 53.9674 28.9718C53.9674 29.7377 53.9211 30.4585 53.8286 31.1343C53.6857 32.1086 52.7898 32.7562 51.7794 32.7562H32.383C31.9027 32.7562 31.5148 33.1415 31.539 33.6087C31.7321 37.336 32.6486 40.2054 34.5418 42.2172C36.5769 44.3797 39.2595 45.4609 42.5896 45.4609C44.8096 45.4609 46.6597 45.0329 48.1397 44.1769C49.117 43.582 50.4856 42.7106 51.6621 41.7851C52.3189 41.2685 53.4214 41.6244 53.533 42.4394C53.5734 42.7348 53.5204 43.0366 53.3685 43.2952C52.1432 45.3814 50.8457 46.2137 48.6253 47.7586C46.2677 49.399 43.7227 49.8535 40.5776 49.8535Z" fill="url(#paint0_linear_98_2264)"/>
<path d="M112.085 49.607C111.317 50.2724 109.895 50.0328 109.873 49.2238C109.848 48.3508 109.904 47.4161 109.871 46.1089C109.904 45.4017 109.882 44.5579 109.733 44.6975C107.981 46.3348 106.434 47.576 105.089 48.4209C103.655 49.322 101.921 49.7725 99.8857 49.7725C97.3419 49.7725 95.1449 49.0742 93.2949 47.6776C91.4911 46.2359 90.5892 44.1184 90.5892 41.3252C90.5892 40.0187 90.8898 38.8023 91.4911 37.676C92.1386 36.5496 93.2949 35.4458 94.9599 34.3646C96.625 33.2833 99.0069 32.2021 102.106 31.1208C103.17 30.7604 104.395 30.3775 105.783 29.972C107.17 29.5665 108.491 29.1934 109.879 28.8781C109.879 28.8781 109.888 29.6066 109.861 27.2434C109.834 24.8802 110.124 23.5788 108.554 21.7532C106.984 19.9276 104.739 19.4757 103.222 19.4383C101.704 19.4008 101.067 19.6342 100.142 19.9401C99.2174 20.2461 98.5185 20.5968 98.1753 20.7946C97.832 20.9925 97.2102 21.3995 96.4687 21.87C95.7272 22.3406 95.2954 22.5866 94.609 23.079C93.9227 23.5714 93.1117 24.4378 92.2067 23.7976C91.3017 23.1574 91.6142 22.5464 92.1929 21.5331C92.7717 20.5197 95.3072 18.1976 97.2447 17.2585C99.1822 16.3193 101.333 15.4684 104.927 15.8493C108.521 16.2303 111.161 17.461 112.919 19.2631C114.676 21.0202 115.773 23.3943 115.773 27.6743V42.0686C115.773 43.5102 115.758 44.2122 115.753 45.0057C115.747 45.7992 115.752 46.0025 115.72 46.0424C115.688 46.0824 115.5 46.265 115.374 46.3918C115.248 46.5186 115.147 46.6185 114.99 46.7746C114.833 46.9306 114.665 47.0995 114.482 47.2827C114.299 47.4659 114.102 47.6613 113.844 47.9215C113.586 48.1817 113.696 48.074 113.204 48.5599C112.712 49.0457 112.854 48.9415 112.085 49.607ZM96.7637 40.3115C96.7637 42.1136 97.2956 43.3976 98.3594 44.1635C99.4232 44.9294 100.741 45.3123 102.314 45.3123C103.008 45.3123 103.655 45.2222 104.256 45.042C104.904 44.8618 105.667 44.5239 106.546 44.0283C107.425 43.4877 108.558 42.7218 109.945 41.7307L109.879 31.4209C108.676 31.7363 107.563 32.0669 106.407 32.4724C105.251 32.8328 104.303 33.1482 103.563 33.4185C101.574 34.1844 100.094 34.9728 99.1225 35.7837C98.1513 36.5947 97.5038 37.3831 97.18 38.149C96.9025 38.9149 96.7637 39.6357 96.7637 40.3115Z" fill="url(#paint1_linear_98_2264)"/>
<path d="M63.7964 33.0941C63.7964 36.8334 64.675 40.7979 66.5021 42.893C68.3291 44.988 71.1329 45.5584 73.2836 45.5584C75.4342 45.5584 76.5515 45.066 77.3074 44.6799C78.0633 44.2938 77.2555 44.808 78.3861 44.02C79.5167 43.2321 81.21 40.8238 81.21 38.551C81.21 36.2781 81.21 30.1373 81.21 27.5042C81.21 24.8711 79.8269 21.5804 78.4949 20.9008C77.1628 20.2213 77.7303 20.4805 76.978 20.1819C76.2257 19.8834 74.8042 19.4386 73.3704 19.4386C71.9366 19.4386 70.0403 19.9341 68.5834 20.8577C67.1264 21.7813 65.9933 23.633 65.1145 25.5928C64.2357 27.5526 63.7964 29.3547 63.7964 33.0941ZM82.7249 49.9069C82.0874 50.0805 81.2722 49.7781 81.2716 48.9942C81.271 48.2102 81.2766 47.8944 81.2717 47.5482C81.2667 47.202 81.2958 45.2216 81.271 44.9969C81.2462 44.7721 81.3158 44.6205 81.0171 44.8173C80.7184 45.0141 78.719 47.7603 77.2555 48.5695C75.792 49.3788 74.2029 49.8535 71.7053 49.8535C69.2078 49.8535 66.4096 49.1552 64.282 47.7586C62.1544 46.362 60.4663 44.4474 59.2869 41.9469C58.1074 39.4463 57.5524 36.6082 57.5524 33.2292C57.5524 29.8503 58.2 26.7417 59.495 24.1737C60.79 21.6057 62.5476 19.1908 64.7676 17.7491C66.9877 16.3074 70.1097 15.5866 72.3297 15.5866C74.5498 15.5866 75.2479 15.8303 76.978 16.5327C78.7081 17.2351 81.1738 19.9466 81.1632 18.9944C81.1526 18.0423 81.1561 17.6789 81.1495 14.7821C81.1428 11.8852 81.1506 5.75841 81.1528 5.01183C81.1551 4.26526 81.153 3.9428 81.1561 3.74944C81.1593 3.55608 81.2307 3.41767 81.4169 3.2336C81.6031 3.04953 81.3864 3.28515 82.0629 2.58033C82.7394 1.8755 82.464 2.16679 83.3656 1.27354C84.2671 0.380292 84.8987 0.101857 85.3179 0.0170218C85.737 -0.0678137 86.4175 0.184614 86.6584 0.425127C86.8993 0.665641 86.9906 0.876746 86.9906 1.13203C86.9906 1.38732 86.9931 14.1674 86.9939 22.5199C86.9948 30.8724 86.9851 42.8176 86.995 43.9143C87.0049 45.011 87.1942 45.8446 86.8611 46.1645C86.5281 46.4843 86.7147 46.3025 86.5913 46.4288C86.4679 46.5551 86.4829 46.541 86.2545 46.766C86.0261 46.991 85.8562 47.1621 85.6243 47.4009C85.3924 47.6397 85.2839 47.7369 84.8785 48.1366C84.473 48.5362 84.1652 48.8616 83.8565 49.1672C83.5478 49.4728 83.3625 49.7334 82.7249 49.9069Z" fill="url(#paint2_linear_98_2264)"/>
<path d="M25.1203 45.7512C25.8769 47.2075 26.1696 48.0239 26.7645 49.1615C27.3595 50.299 25.2932 50.0443 24.9143 50.0466C24.5355 50.049 21.5368 50.0388 21.5368 50.0388H14.6546L8.01147 50.0466H1.33493C1.06865 50.0462 0.863524 50.0401 0.704152 50.0309C0.262002 50.0053 0.00823026 49.7134 0.0121051 49.2705C0.012256 49.2533 0.0124267 49.2356 0.0126178 49.2174C0.0199512 48.5206 0.0147917 48.8761 0.0123153 48.1945C0.00983879 47.5128 0.0107641 46.6434 0.0151133 45.5561C0.0194626 44.4687 -0.0246507 44.7407 0.0205448 43.1137C0.0248037 41.4729 0.0203606 39.398 0.0203606 39.398C0.0203606 39.398 0.0213607 31.1545 0.0203606 28.348C0.0193605 25.5416 0.0229145 21.2269 0.0229145 21.2269V7.85996C0.0229145 6.72958 0.0221812 6.40374 0.0347747 5.31655C0.0409805 5.00572 0.0461693 5.02225 0.0352876 4.59299C0.0504389 4.21386 0.0371941 4.22766 0.0405268 4.0405C0.0427418 3.9161 0.0238706 3.89787 0.0997439 3.80583C0.225712 3.65302 0.354016 3.50147 0.485258 3.35316C0.789877 3.00894 1.31253 2.53693 1.60731 2.24214C1.60731 2.24214 2.34884 1.60058 2.66348 1.29447C2.97813 0.988349 3.37974 0.649606 3.74593 0.376862C4.09355 0.117946 4.58588 -0.207705 5.26199 0.176039C5.33621 0.218162 5.40017 0.276417 5.4534 0.343123C5.62809 0.56206 5.87461 0.922889 5.87419 1.38847C5.87369 1.93342 5.97905 42.0691 5.94693 43.9511C5.97905 44.3832 13.9534 44.1104 14.3218 44.184C14.43 44.2005 22.1972 44.1392 22.8062 44.184C23.4152 44.2288 24.3637 44.2949 25.1203 45.7512Z" fill="url(#paint3_linear_98_2264)"/>
<defs>
<linearGradient id="paint0_linear_98_2264" x1="104.108" y1="8.96402" x2="71.8955" y2="62.2828" gradientUnits="userSpaceOnUse">
<stop offset="0.498641" stop-color="#B6D486"/>
</linearGradient>
<linearGradient id="paint1_linear_98_2264" x1="104.108" y1="8.96402" x2="71.8955" y2="62.2828" gradientUnits="userSpaceOnUse">
<stop offset="0.498641" stop-color="#B6D486"/>
</linearGradient>
<linearGradient id="paint2_linear_98_2264" x1="104.108" y1="8.96402" x2="71.8955" y2="62.2828" gradientUnits="userSpaceOnUse">
<stop offset="0.498641" stop-color="#B6D486"/>
</linearGradient>
<linearGradient id="paint3_linear_98_2264" x1="23.4142" y1="8.97759" x2="-5.38086" y2="23.0817" gradientUnits="userSpaceOnUse">
<stop offset="0.498641" stop-color="#B6D486"/>
</linearGradient>
</defs>
</svg>
