<svg width="213" height="43" viewBox="0 0 213 43" fill="none" xmlns="http://www.w3.org/2000/svg">
<path d="M34.3335 16.4092C33.2396 16.4092 32.1262 16.7137 30.9933 17.3225C29.8994 17.9314 28.9423 18.9018 28.1219 20.2336C27.4343 21.4058 26.9706 22.6312 26.7094 24.4776C26.651 24.8911 26.9861 25.2528 27.4146 25.2535L37.2635 25.2713C38.6699 25.2713 39.5879 24.9859 40.0177 24.4151C40.4865 23.8442 40.7209 23.1403 40.7209 22.3031C40.7209 21.1995 40.4279 20.462 39.8419 19.5487C39.2949 18.5973 38.5331 17.8363 37.5565 17.2655C36.6189 16.6946 35.5446 16.4092 34.3335 16.4092ZM34.2749 42.11C30.3292 42.11 27.1648 40.8733 24.7817 38.3998C22.3987 35.8882 21.2072 32.4444 21.2072 28.0682C21.2072 25.1381 21.8127 22.5885 23.0237 20.4194C24.2739 18.2504 25.8875 16.5882 27.9189 15.3704C29.9894 14.1527 32.263 13.5127 34.6851 13.5127C36.7165 13.5127 38.5527 14.2212 40.1935 15.0964C41.8343 15.9716 43.143 17.2274 44.1197 18.8637C45.0963 20.462 45.5847 22.1509 45.5847 24.4721C45.5847 25.119 45.5456 25.7279 45.4675 26.2987C45.3468 27.1217 44.59 27.6686 43.7366 27.6686H27.3533C26.9476 27.6686 26.6199 27.9941 26.6404 28.3888C26.8035 31.537 27.5776 33.9607 29.1767 35.6599C30.8956 37.4865 33.1615 38.3998 35.9743 38.3998C37.8495 38.3998 39.4121 38.0383 40.6623 37.3152C41.4877 36.8127 42.6437 36.0767 43.6375 35.295C44.1923 34.8586 45.1235 35.1592 45.2178 35.8477C45.2519 36.0971 45.2071 36.3521 45.0788 36.5705C44.0439 38.3326 42.9479 39.0356 41.0725 40.3405C39.081 41.7261 36.9314 42.11 34.2749 42.11Z" fill="#94E3F0"/>
<path d="M94.6746 41.9017C94.0252 42.4638 92.8248 42.2614 92.8054 41.5781C92.7846 40.8407 92.8315 40.0512 92.8044 38.9471C92.8315 38.3497 92.8134 37.637 92.6872 37.7549C91.208 39.1379 89.9006 40.1862 88.7649 40.8999C87.5538 41.661 86.0889 42.0416 84.3699 42.0416C82.2213 42.0416 80.3656 41.4517 78.8029 40.2721C77.2793 39.0543 76.5176 37.2658 76.5176 34.9065C76.5176 33.8029 76.7715 32.7755 77.2794 31.8242C77.8263 30.8728 78.8029 29.9405 80.2093 29.0272C81.6157 28.1139 83.6276 27.2006 86.2451 26.2874C87.1436 25.9829 88.1789 25.6595 89.3509 25.317C90.5229 24.9745 91.6387 24.6594 92.8107 24.393C92.8107 24.393 92.8184 25.0084 92.7958 23.0123C92.7731 21.0162 93.0178 19.9169 91.6917 18.3749C90.3656 16.8329 88.4689 16.4512 87.1875 16.4196C85.9062 16.388 85.3678 16.5851 84.5866 16.8435C83.8054 17.102 83.2151 17.3982 82.9252 17.5653C82.6353 17.7324 82.1101 18.0761 81.4837 18.4736C80.8574 18.8711 80.4927 19.0789 79.9129 19.4948C79.3332 19.9107 78.6482 20.6425 77.8838 20.1017C77.1194 19.561 77.3833 19.045 77.8722 18.189C78.361 17.3331 80.5027 15.3717 82.1392 14.5785C83.7757 13.7852 85.5925 13.0664 88.628 13.3882C91.6635 13.71 93.8938 14.7495 95.3783 16.2717C96.8628 17.7558 97.7893 19.7611 97.7893 23.3762V35.5344C97.7893 36.7521 97.7767 37.345 97.7721 38.0152C97.7675 38.6855 97.7719 38.8572 97.7447 38.8909C97.7175 38.9247 97.5589 39.0789 97.4525 39.186C97.346 39.2931 97.2608 39.3775 97.1282 39.5093C96.9956 39.6411 96.8538 39.7838 96.699 39.9385C96.5443 40.0933 96.3782 40.2583 96.1601 40.4781C95.942 40.6979 96.0347 40.6069 95.6192 41.0173C95.2036 41.4277 95.3239 41.3396 94.6746 41.9017ZM81.7329 34.0503C81.7329 35.5724 82.1822 36.657 83.0807 37.3039C83.9792 37.9508 85.0926 38.2742 86.4209 38.2742C87.0069 38.2742 87.5538 38.1981 88.0617 38.0459C88.6086 37.8937 89.2532 37.6083 89.9955 37.1897C90.7378 36.7331 91.6949 36.0862 92.8669 35.249L92.8107 26.5408C91.795 26.8072 90.855 27.0865 89.8783 27.429C88.9016 27.7334 88.1008 27.9998 87.4757 28.2281C85.7958 28.875 84.5457 29.5409 83.7253 30.2259C82.9049 30.9109 82.358 31.5768 82.0845 32.2237C81.8501 32.8706 81.7329 33.4795 81.7329 34.0503Z" fill="#94E3F0"/>
<path d="M53.8868 27.954C53.8868 31.1125 54.6289 34.4611 56.1722 36.2307C57.7154 38.0003 60.0836 38.4821 61.9002 38.4821C63.7168 38.4821 64.6605 38.0661 65.299 37.74C65.9375 37.4139 65.2551 37.8483 66.2101 37.1827C67.1651 36.5171 68.5953 34.483 68.5953 32.5632C68.5953 30.6435 68.5953 25.4566 68.5953 23.2325C68.5953 21.0085 67.4271 18.229 66.302 17.655C65.1769 17.081 65.6562 17.2999 65.0207 17.0478C64.3853 16.7956 63.1846 16.4199 61.9736 16.4199C60.7625 16.4199 59.1608 16.8385 57.9302 17.6186C56.6996 18.3987 55.7425 19.9628 55.0002 21.6181C54.2579 23.2735 53.8868 24.7956 53.8868 27.954ZM69.8749 42.1551C69.3364 42.3017 68.6479 42.0463 68.6474 41.3841C68.6469 40.7219 68.6516 40.4552 68.6474 40.1628C68.6433 39.8704 68.6678 38.1977 68.6469 38.0078C68.6259 37.8179 68.6848 37.6899 68.4324 37.8561C68.1801 38.0223 66.4913 40.342 65.2551 41.0255C64.019 41.709 62.6768 42.11 60.5672 42.11C58.4576 42.11 56.094 41.5202 54.297 40.3405C52.4999 39.1608 51.0741 37.5437 50.0778 35.4316C49.0815 33.3195 48.6128 30.9222 48.6128 28.0682C48.6128 25.2142 49.1597 22.5885 50.2536 20.4194C51.3475 18.2504 52.832 16.2106 54.7072 14.9929C56.5824 13.7752 59.2194 13.1663 61.0946 13.1663C62.9698 13.1663 63.5594 13.3721 65.0207 13.9654C66.4821 14.5587 68.5647 16.849 68.5558 16.0447C68.5469 15.2405 68.5499 14.9336 68.5442 12.4867C68.5386 10.0399 68.5452 4.86488 68.547 4.23428C68.5489 3.60368 68.5472 3.33132 68.5499 3.16799C68.5525 3.00467 68.6128 2.88776 68.7701 2.73229C68.9274 2.57681 68.7443 2.77583 69.3158 2.1805C69.8872 1.58516 69.6546 1.8312 70.4161 1.07672C71.1775 0.322229 71.711 0.0870487 72.0651 0.015392C72.4192 -0.0562646 72.9939 0.156949 73.1974 0.3601C73.4009 0.563251 73.478 0.741562 73.478 0.95719C73.478 1.17282 73.4801 11.9676 73.4808 19.0226C73.4815 26.0775 73.4733 36.1671 73.4817 37.0934C73.49 38.0197 73.6499 38.7239 73.3686 38.994C73.0873 39.2642 73.2449 39.1106 73.1407 39.2173C73.0365 39.324 73.0492 39.3121 72.8562 39.5021C72.6633 39.6921 72.5198 39.8367 72.3239 40.0384C72.1281 40.2401 72.0364 40.3222 71.694 40.6597C71.3515 40.9973 71.0915 41.2722 70.8307 41.5303C70.57 41.7884 70.4135 42.0085 69.8749 42.1551Z" fill="#94E3F0"/>
<path d="M21.2181 38.6452C21.8571 39.8752 22.1043 40.5648 22.6069 41.5256C23.1094 42.4865 21.3641 42.2713 21.0441 42.2733C20.7241 42.2753 18.1913 42.2667 18.1913 42.2667H12.3781L6.76695 42.2733H1.12756C0.902644 42.2729 0.729383 42.2678 0.594768 42.26C0.221302 42.2384 0.00695176 41.9918 0.0102247 41.6178C0.0103521 41.6032 0.0104963 41.5883 0.0106577 41.5729C0.0168519 40.9843 0.0124939 41.2846 0.0104022 40.7089C0.00831041 40.1331 0.00909197 39.3987 0.0127656 38.4803C0.0164392 37.5619 -0.0208214 37.7917 0.0173533 36.4174C0.0209507 35.0315 0.0171977 33.2789 0.0171977 33.2789C0.0171977 33.2789 0.0180425 26.316 0.0171977 23.9455C0.016353 21.575 0.0193549 17.9306 0.0193549 17.9306V6.64017C0.0193549 5.68539 0.0187355 5.41017 0.0293727 4.49187C0.0346145 4.22932 0.0389972 4.24328 0.029806 3.88071C0.0426036 3.56048 0.0314163 3.57213 0.0342313 3.41404C0.0361022 3.30897 0.0201625 3.29357 0.0842495 3.21583C0.190649 3.08675 0.299022 2.95875 0.409877 2.83348C0.667176 2.54273 1.10864 2.14405 1.35763 1.89506C1.35763 1.89506 1.98396 1.35316 2.24973 1.0946C2.5155 0.836034 2.85472 0.549913 3.16403 0.319539C3.45765 0.100844 3.87349 -0.174218 4.44458 0.149913C4.50727 0.185492 4.5613 0.234697 4.60625 0.291041C4.75381 0.475967 4.96204 0.780742 4.96168 1.174C4.96126 1.63429 5.05025 35.535 5.02312 37.1247C5.05025 37.4896 11.7858 37.2592 12.097 37.3214C12.1884 37.3353 18.7491 37.2836 19.2634 37.3214C19.7778 37.3592 20.579 37.4151 21.2181 38.6452Z" fill="#94E3F0"/>
<path d="M193.053 13.7539L186.376 13.7539C185.677 13.7539 185.111 14.3206 185.111 15.0197C185.111 15.6546 185.581 16.1913 186.211 16.2746L186.989 16.3775C187.509 16.4359 188.087 16.4804 188.087 16.8656C188.087 17.0796 187.87 17.9142 187.76 18.2994L186.395 22.5398L184.941 27.665L183.393 32.9121L182.381 36.1076C182.214 36.6327 181.481 36.6595 181.277 36.1479L178.17 28.3666L176.277 23.5648L174.354 18.6045C174.244 18.2621 173.872 17.2607 173.866 17.0202C173.859 16.7797 174.545 16.7018 175.032 16.5459L175.689 16.3818C176.282 16.2333 176.699 15.6998 176.699 15.0878C176.699 14.3511 176.102 13.7539 175.365 13.7539H167.965C167.279 13.7539 166.722 14.3101 166.722 14.9962C166.722 15.6381 167.211 16.1743 167.851 16.2333L168.498 16.293C169.304 16.3674 169.981 16.9304 170.201 17.7092L170.299 18.0581L171.797 22.3318L174.354 29.6098L179.061 42.0999C179.195 42.4566 179.537 42.6927 179.918 42.6927H183.925C184.327 42.6927 184.682 42.4314 184.798 42.0468C185.925 38.3053 186.97 34.0679 186.97 34.0679C186.97 34.0679 191.792 17.4483 191.982 16.781C192.051 16.537 192.383 16.4417 192.775 16.419C193.573 16.3728 194.315 15.8056 194.311 15.0058C194.307 14.3135 193.745 13.7539 193.053 13.7539Z" fill="#94E3F0"/>
<path d="M211.603 13.7539L204.418 13.7539C203.682 13.7539 203.085 14.3508 203.085 15.0872C203.085 15.7001 203.503 16.2341 204.098 16.3814L205.68 16.7731C206.068 17.03 206.262 17.3512 206.262 17.7366C206.262 17.9507 206.204 18.2505 206.088 18.6359L200.474 36.3924C200.308 36.9193 199.572 36.9445 199.369 36.4302L192.349 18.5717C192.233 18.2291 192.141 17.9963 192.078 17.7527C192.023 17.5025 191.93 17.2539 191.831 16.8268C191.78 16.6029 191.939 16.3887 192.167 16.362L192.512 16.3215C193.263 16.2334 193.662 15.3894 193.253 14.7536C193.03 14.4071 192.621 14.228 192.216 14.2995L189.383 14.7984C188.6 14.9363 188.03 15.6164 188.03 16.4114C188.03 16.6508 188.069 16.8886 188.147 17.1151L192.383 29.4153L197.324 42.1273C197.461 42.4793 197.8 42.7112 198.178 42.7112H201.879C202.275 42.7112 202.626 42.4575 202.747 42.0807C203.947 38.3329 205.062 34.0809 205.062 34.0809C205.062 34.0809 210.191 17.4507 210.393 16.783C210.473 16.5186 210.88 16.4287 211.341 16.4165C212.141 16.3955 212.874 15.8142 212.87 15.0146C212.867 14.3173 212.3 13.7539 211.603 13.7539Z" fill="#94E3F0"/>
<path d="M155.41 13.7539C156.194 13.7539 157.01 13.8414 157.821 14.0082C158.378 14.1228 158.932 14.2749 159.472 14.4619C159.521 14.4789 159.57 14.4962 159.618 14.5137C159.813 14.584 160.006 14.6589 160.196 14.7382C160.269 14.7684 160.341 14.7994 160.413 14.8311C160.484 14.8628 160.556 14.8952 160.626 14.9283C160.98 15.094 161.322 15.2778 161.647 15.4796C161.679 15.4997 161.712 15.52 161.744 15.5406C161.776 15.5611 161.808 15.5818 161.84 15.6027C162.474 16.0189 163.063 16.4881 163.604 17.0128C163.752 17.1559 163.896 17.3031 164.037 17.4545C164.88 18.3627 165.595 19.4213 166.17 20.6405C166.585 21.5206 166.911 22.449 167.151 23.4375C167.188 23.5895 167.223 23.743 167.256 23.8979C167.289 24.0529 167.32 24.2093 167.349 24.3672C167.422 24.762 167.482 25.1663 167.53 25.5806C167.54 25.6634 167.549 25.7467 167.557 25.8303C167.574 25.9977 167.59 26.1667 167.603 26.3374C167.617 26.5081 167.628 26.6804 167.637 26.8544C167.642 26.9414 167.646 27.0289 167.65 27.1168C167.665 27.4684 167.673 27.827 167.673 28.1929L167.672 28.4659C167.669 28.7342 167.662 28.9985 167.651 29.2589C167.649 29.3007 167.647 29.3424 167.645 29.384C167.643 29.4241 167.641 29.4641 167.639 29.504C167.636 29.5528 167.633 29.6014 167.63 29.6498C167.628 29.6906 167.625 29.7312 167.623 29.7718C167.621 29.8056 167.618 29.8394 167.616 29.8731C167.612 29.9245 167.609 29.9759 167.605 30.027C167.602 30.0653 167.598 30.1035 167.595 30.1417C167.592 30.1859 167.588 30.23 167.584 30.274C167.58 30.3138 167.577 30.3536 167.573 30.3933C167.569 30.4377 167.564 30.482 167.56 30.5262C167.557 30.559 167.553 30.5918 167.55 30.6245C167.544 30.6761 167.539 30.7275 167.533 30.7788C167.529 30.8116 167.525 30.8444 167.521 30.8771C167.516 30.9226 167.51 30.9681 167.504 31.0135C167.5 31.0506 167.495 31.0876 167.49 31.1246C167.484 31.1715 167.477 31.2182 167.471 31.2648C167.467 31.2942 167.462 31.3234 167.458 31.3526C167.451 31.4037 167.443 31.4546 167.435 31.5054C167.431 31.5341 167.427 31.5627 167.422 31.5913C167.414 31.6433 167.405 31.6952 167.397 31.7469C167.392 31.7748 167.387 31.8026 167.382 31.8304C167.374 31.8784 167.366 31.9263 167.357 31.974C167.351 32.0057 167.346 32.0373 167.34 32.0689C167.331 32.1163 167.322 32.1635 167.313 32.2106C167.307 32.2408 167.301 32.2709 167.295 32.3009C167.286 32.346 167.276 32.3909 167.267 32.4356C167.26 32.47 167.252 32.5043 167.245 32.5385C167.236 32.5814 167.226 32.6241 167.217 32.6667C167.21 32.698 167.203 32.7292 167.196 32.7603C167.185 32.806 167.174 32.8515 167.163 32.8969C167.156 32.9258 167.149 32.9547 167.142 32.9835C167.131 33.03 167.119 33.0763 167.107 33.1225C167.1 33.1513 167.093 33.1801 167.085 33.2088C167.073 33.2555 167.06 33.302 167.048 33.3485C167.041 33.3754 167.033 33.4024 167.026 33.4293C167.012 33.4782 166.998 33.5269 166.984 33.5754C166.978 33.5983 166.971 33.6211 166.965 33.6439C166.95 33.694 166.935 33.7438 166.92 33.7936C166.912 33.8181 166.905 33.8426 166.897 33.867C166.882 33.9163 166.866 33.9653 166.851 34.0143C166.844 34.0358 166.837 34.0573 166.83 34.0787C166.814 34.1266 166.798 34.1743 166.782 34.2219C166.774 34.2479 166.765 34.274 166.756 34.2999C166.741 34.3441 166.725 34.3882 166.71 34.4322C166.701 34.4577 166.692 34.4832 166.683 34.5086C166.665 34.5576 166.647 34.6064 166.629 34.6552C166.621 34.6763 166.613 34.6975 166.605 34.7186C166.589 34.7602 166.573 34.8016 166.557 34.8431C166.545 34.8736 166.533 34.9041 166.521 34.9345C166.506 34.9714 166.491 35.0081 166.476 35.0449C166.464 35.0752 166.452 35.1055 166.439 35.1357C166.418 35.1877 166.396 35.2395 166.374 35.2911C166.367 35.3068 166.36 35.3227 166.354 35.3384C166.331 35.3896 166.309 35.4404 166.286 35.4913C166.248 35.5763 166.209 35.661 166.17 35.7452C166.097 35.9002 166.021 36.0524 165.943 36.2022C165.92 36.2473 165.897 36.2923 165.873 36.3368C165.863 36.3547 165.854 36.3724 165.844 36.3902C165.819 36.4366 165.794 36.4827 165.769 36.5286C165.758 36.5485 165.746 36.5682 165.735 36.588C165.712 36.6295 165.689 36.6709 165.665 36.712C165.649 36.7403 165.632 36.7682 165.616 36.7963C165.596 36.83 165.577 36.8637 165.557 36.8971C165.541 36.9232 165.525 36.949 165.509 36.9749C165.488 37.0101 165.467 37.0454 165.445 37.0803C165.431 37.1037 165.416 37.1268 165.401 37.15C165.378 37.1869 165.355 37.2237 165.331 37.2602C165.316 37.2841 165.3 37.3077 165.285 37.3314C165.262 37.366 165.24 37.4005 165.217 37.4348C165.201 37.459 165.184 37.483 165.168 37.507C165.145 37.5411 165.122 37.5752 165.098 37.6089C165.083 37.6315 165.067 37.6539 165.051 37.6763C165.027 37.7106 165.003 37.7448 164.978 37.7788C164.961 37.8034 164.943 37.8279 164.925 37.8524C164.902 37.8834 164.879 37.9144 164.857 37.9451C164.838 37.9703 164.819 37.9954 164.8 38.0204C164.777 38.0504 164.755 38.0803 164.732 38.11C164.713 38.1343 164.694 38.1585 164.675 38.1827C164.651 38.2135 164.626 38.2442 164.602 38.2748C164.584 38.2971 164.566 38.3194 164.548 38.3415C164.524 38.3716 164.499 38.4015 164.475 38.4313C164.453 38.4569 164.432 38.4825 164.411 38.5079C164.389 38.5329 164.368 38.5579 164.347 38.5827C164.324 38.61 164.3 38.6371 164.276 38.6641C164.255 38.6889 164.233 38.7135 164.211 38.738C164.188 38.764 164.165 38.7899 164.142 38.8157C164.119 38.8412 164.095 38.8666 164.072 38.8918C164.051 38.9147 164.03 38.9377 164.009 38.9604C163.983 38.9876 163.958 39.0146 163.932 39.0415C163.91 39.0651 163.887 39.0886 163.864 39.1119C163.84 39.1369 163.816 39.1616 163.792 39.1863C163.77 39.2086 163.748 39.2308 163.726 39.2529C163.698 39.2802 163.671 39.3073 163.643 39.3342C163.623 39.3541 163.602 39.374 163.582 39.3938C163.554 39.4207 163.526 39.4473 163.498 39.474C163.476 39.4943 163.455 39.5148 163.433 39.535C163.406 39.5597 163.38 39.5842 163.353 39.6087C163.33 39.6298 163.307 39.6509 163.284 39.6717C163.255 39.6972 163.226 39.7224 163.198 39.7476C163.176 39.7667 163.155 39.7859 163.133 39.8048C163.104 39.8295 163.076 39.8541 163.047 39.8786C163.024 39.8979 163.002 39.9173 162.979 39.9365C162.948 39.9623 162.917 39.9877 162.886 40.0132C162.865 40.0303 162.844 40.0476 162.823 40.0646C162.795 40.0876 162.766 40.1103 162.738 40.133C162.713 40.153 162.688 40.173 162.662 40.1928C162.621 40.2249 162.58 40.2566 162.539 40.2882C162.529 40.2952 162.52 40.3025 162.511 40.3096C162.464 40.3453 162.416 40.3804 162.368 40.4154C162.361 40.4211 162.353 40.4269 162.345 40.4325C162.19 40.5457 162.032 40.6553 161.872 40.7616C161.861 40.7686 161.85 40.7759 161.84 40.7829C161.756 40.8382 161.67 40.8919 161.583 40.9447C161.575 40.95 161.566 40.9554 161.557 40.9607C161.506 40.9921 161.453 41.023 161.4 41.0535C161.388 41.0608 161.375 41.0681 161.363 41.0753C161.343 41.0867 161.323 41.098 161.303 41.1092C161.293 41.1147 161.283 41.1201 161.274 41.1256C161.251 41.138 161.229 41.1503 161.207 41.1626C161.195 41.169 161.183 41.1754 161.172 41.1817C161.151 41.1927 161.131 41.2037 161.111 41.2146C161.098 41.2212 161.086 41.2278 161.074 41.2343C161.054 41.2449 161.033 41.2553 161.013 41.2658C160.998 41.2739 160.982 41.2821 160.967 41.2901C160.952 41.2974 160.938 41.3047 160.924 41.312C160.902 41.3232 160.879 41.3344 160.857 41.3454C160.845 41.3515 160.833 41.3577 160.82 41.3637C160.8 41.3737 160.78 41.3836 160.76 41.3934C160.746 41.3998 160.733 41.4063 160.72 41.4127C160.698 41.4231 160.676 41.4335 160.655 41.4438C160.641 41.4502 160.627 41.4566 160.614 41.4629C160.517 41.5082 160.419 41.5522 160.32 41.5948C160.314 41.5975 160.308 41.6003 160.301 41.603C160.266 41.6179 160.232 41.6328 160.196 41.6475L160.053 41.706C159.985 41.7337 159.916 41.7605 159.846 41.787C159.82 41.7969 159.794 41.807 159.768 41.8168C159.752 41.8227 159.737 41.8283 159.721 41.8341C159.689 41.8461 159.656 41.858 159.624 41.8697C159.604 41.877 159.583 41.884 159.563 41.8911C159.536 41.9008 159.509 41.9104 159.482 41.9199C159.461 41.9272 159.44 41.9343 159.419 41.9415C159.39 41.9512 159.362 41.961 159.334 41.9705C159.315 41.9769 159.295 41.9831 159.276 41.9894C159.247 41.9991 159.217 42.0087 159.188 42.0182C159.164 42.0258 159.14 42.0333 159.117 42.0408C159.094 42.048 159.071 42.0552 159.048 42.0623C159.02 42.0707 158.993 42.079 158.966 42.0872C158.943 42.0941 158.92 42.101 158.897 42.1078C158.875 42.1144 158.852 42.1209 158.83 42.1274C158.802 42.1356 158.773 42.1438 158.745 42.1518C158.724 42.1576 158.704 42.1634 158.683 42.1691C158.656 42.1764 158.63 42.1837 158.604 42.1909C158.577 42.198 158.551 42.2049 158.525 42.2118C158.5 42.2184 158.475 42.2249 158.451 42.2313C158.429 42.2369 158.407 42.2423 158.386 42.2478C158.359 42.2545 158.332 42.2612 158.306 42.2677C158.276 42.275 158.247 42.282 158.218 42.289C158.2 42.2932 158.182 42.2974 158.165 42.3015C158.135 42.3085 158.105 42.3153 158.075 42.3221C158.053 42.3271 158.031 42.3321 158.009 42.3369C157.982 42.3429 157.955 42.3489 157.927 42.3547C157.905 42.3594 157.884 42.3641 157.862 42.3687C157.834 42.3745 157.806 42.3801 157.779 42.3857C157.755 42.3905 157.731 42.3953 157.708 42.3999C157.682 42.405 157.656 42.4099 157.631 42.4147C157.608 42.419 157.586 42.4232 157.563 42.4274C157.533 42.433 157.503 42.4386 157.472 42.444C157.455 42.447 157.437 42.4501 157.42 42.4531C157.39 42.4584 157.359 42.4635 157.329 42.4685C157.305 42.4725 157.281 42.4763 157.257 42.4802C157.233 42.484 157.208 42.4879 157.184 42.4916C157.16 42.4953 157.136 42.499 157.112 42.5025C157.085 42.5066 157.057 42.5106 157.03 42.5144C157.006 42.5177 156.983 42.5208 156.96 42.5239C156.935 42.5274 156.909 42.5309 156.883 42.5342C156.861 42.5371 156.839 42.5398 156.816 42.5426C156.788 42.5461 156.759 42.5497 156.73 42.5531C156.707 42.5557 156.685 42.5581 156.662 42.5606C156.637 42.5634 156.613 42.5662 156.588 42.5688C156.561 42.5716 156.534 42.5742 156.507 42.5769C156.483 42.5792 156.459 42.5815 156.435 42.5837C156.415 42.5855 156.396 42.5872 156.376 42.5889C156.345 42.5916 156.314 42.5943 156.283 42.5967C156.264 42.5982 156.245 42.5995 156.225 42.6009C156.197 42.603 156.169 42.6051 156.142 42.6069C156.117 42.6085 156.093 42.6099 156.069 42.6114C156.043 42.613 156.017 42.6146 155.991 42.616C155.975 42.6168 155.96 42.6175 155.944 42.6182C155.91 42.6199 155.875 42.6216 155.841 42.6229C155.836 42.6231 155.832 42.6232 155.828 42.6234C155.785 42.6251 155.742 42.6265 155.7 42.6276C155.684 42.6281 155.668 42.6283 155.651 42.6287C155.571 42.6305 155.49 42.6317 155.41 42.6317C155.33 42.6317 155.25 42.6305 155.17 42.6287C155.153 42.6283 155.137 42.6281 155.12 42.6276C155.078 42.6265 155.035 42.6251 154.992 42.6234C154.988 42.6233 154.984 42.6231 154.98 42.6229C154.946 42.6216 154.912 42.6199 154.878 42.6182C154.862 42.6175 154.845 42.6168 154.829 42.616C154.804 42.6146 154.78 42.6131 154.755 42.6116C154.729 42.6101 154.704 42.6086 154.678 42.6069C154.652 42.6052 154.625 42.6031 154.598 42.6012C154.578 42.5997 154.558 42.5983 154.537 42.5967C154.507 42.5943 154.477 42.5916 154.447 42.589C154.426 42.5872 154.406 42.5856 154.386 42.5837C154.362 42.5816 154.339 42.5793 154.316 42.577C154.288 42.5743 154.261 42.5716 154.233 42.5687C154.21 42.5663 154.186 42.5637 154.163 42.5611C154.139 42.5584 154.114 42.5557 154.09 42.5528C154.063 42.5497 154.036 42.5464 154.01 42.5431C153.985 42.5401 153.961 42.5371 153.937 42.5339C153.912 42.5308 153.888 42.5275 153.864 42.5242C153.84 42.521 153.817 42.5178 153.793 42.5144C153.765 42.5105 153.738 42.5065 153.71 42.5024C153.687 42.4989 153.663 42.4954 153.639 42.4917C153.615 42.488 153.591 42.4842 153.567 42.4803C153.542 42.4764 153.518 42.4723 153.493 42.4683C153.464 42.4635 153.435 42.4586 153.406 42.4536C153.387 42.4503 153.368 42.4469 153.349 42.4435C153.321 42.4384 153.292 42.4332 153.264 42.428C153.239 42.4233 153.213 42.4186 153.188 42.4138C153.167 42.4096 153.145 42.4055 153.124 42.4013C153.096 42.3957 153.067 42.3901 153.039 42.3844C153.015 42.3795 152.991 42.3745 152.966 42.3694C152.943 42.3644 152.919 42.3593 152.895 42.3541C152.87 42.3488 152.845 42.3434 152.82 42.3379C152.793 42.3318 152.766 42.3257 152.739 42.3195C152.718 42.3147 152.697 42.31 152.676 42.3052C152.648 42.2985 152.62 42.2918 152.591 42.2849C152.568 42.2793 152.544 42.2737 152.521 42.268C152.494 42.2612 152.466 42.2543 152.439 42.2474C152.419 42.2424 152.4 42.2374 152.38 42.2323C152.351 42.2247 152.321 42.217 152.292 42.2093C152.27 42.2035 152.249 42.1978 152.227 42.1919C152.199 42.1842 152.17 42.1763 152.142 42.1685C152.122 42.1629 152.102 42.1574 152.082 42.1517C152.053 42.1435 152.024 42.1351 151.995 42.1268C151.974 42.1207 151.953 42.1147 151.933 42.1085C151.906 42.1007 151.88 42.0928 151.854 42.0849C151.83 42.0776 151.806 42.0703 151.782 42.0629C151.756 42.0549 151.73 42.0467 151.704 42.0385C151.683 42.0319 151.662 42.0253 151.642 42.0186C151.609 42.0081 151.576 41.9973 151.543 41.9865C151.528 41.9813 151.512 41.9763 151.496 41.971C151.462 41.9595 151.427 41.9477 151.393 41.9359C151.379 41.931 151.365 41.9262 151.351 41.9213C151.317 41.9095 151.283 41.8974 151.249 41.8853C151.234 41.8801 151.22 41.8752 151.206 41.87C151.125 41.8407 151.044 41.8105 150.964 41.7796C150.901 41.7555 150.838 41.7311 150.776 41.706L150.633 41.6475C150.599 41.6333 150.565 41.6189 150.531 41.6044L150.524 41.6015C150.518 41.5987 150.511 41.5958 150.505 41.593C150.408 41.5509 150.311 41.5076 150.215 41.4629C150.202 41.4566 150.188 41.4502 150.175 41.4438C150.153 41.4335 150.131 41.4231 150.109 41.4127C150.095 41.4056 150.08 41.3985 150.065 41.3914C150.049 41.3832 150.032 41.3751 150.015 41.3668C149.998 41.3585 149.981 41.3501 149.964 41.3417C149.945 41.3321 149.926 41.3224 149.907 41.3127C149.891 41.3047 149.875 41.2966 149.86 41.2885C149.847 41.282 149.834 41.2753 149.821 41.2687C149.798 41.2564 149.774 41.244 149.75 41.2315C149.741 41.2267 149.732 41.2218 149.723 41.2169C149.701 41.2052 149.679 41.1935 149.658 41.1817C149.646 41.1754 149.634 41.169 149.623 41.1626C149.6 41.1503 149.578 41.138 149.556 41.1256C149.546 41.1201 149.536 41.1147 149.526 41.1092C149.506 41.098 149.487 41.0867 149.467 41.0753C149.454 41.0681 149.441 41.0608 149.429 41.0535C149.376 41.023 149.324 40.9921 149.272 40.9607C149.263 40.9554 149.254 40.95 149.246 40.9447C149.159 40.8919 149.074 40.8381 148.989 40.7829C148.979 40.7759 148.968 40.7686 148.958 40.7616C148.797 40.6553 148.639 40.5457 148.484 40.4325C148.476 40.4269 148.469 40.4211 148.461 40.4154C148.413 40.3804 148.366 40.3453 148.318 40.3096C148.309 40.3025 148.3 40.2952 148.291 40.2882C148.249 40.2566 148.208 40.2249 148.167 40.1928C148.142 40.173 148.117 40.153 148.091 40.133C148.063 40.1103 148.034 40.0876 148.006 40.0646C147.985 40.0476 147.964 40.0303 147.943 40.0132C147.912 39.9877 147.881 39.9623 147.85 39.9365C147.828 39.9173 147.805 39.8979 147.782 39.8786C147.754 39.8541 147.725 39.8296 147.696 39.8048C147.674 39.7859 147.653 39.7667 147.631 39.7476C147.603 39.7224 147.574 39.6972 147.546 39.6717C147.522 39.6509 147.499 39.6298 147.476 39.6087C147.45 39.5842 147.423 39.5597 147.396 39.535C147.374 39.5148 147.353 39.4943 147.332 39.474C147.303 39.4473 147.275 39.4207 147.247 39.3938C147.227 39.374 147.206 39.3541 147.186 39.3342C147.158 39.3073 147.131 39.2802 147.104 39.2529C147.081 39.2308 147.059 39.2086 147.037 39.1863C147.013 39.1616 146.989 39.1369 146.965 39.1119C146.942 39.0886 146.919 39.0651 146.897 39.0415C146.871 39.0146 146.846 38.9876 146.82 38.9604C146.799 38.9377 146.778 38.9147 146.757 38.8918C146.734 38.8666 146.711 38.8412 146.687 38.8157C146.664 38.7899 146.641 38.764 146.618 38.738C146.596 38.7135 146.574 38.6889 146.553 38.6641C146.529 38.6371 146.506 38.61 146.482 38.5827C146.461 38.5579 146.44 38.5329 146.419 38.5079C146.397 38.4825 146.376 38.4569 146.355 38.4313C146.33 38.4015 146.306 38.3716 146.281 38.3415C146.263 38.3194 146.245 38.2971 146.227 38.2748C146.203 38.2442 146.178 38.2135 146.154 38.1827C146.135 38.1585 146.116 38.1343 146.098 38.11C146.075 38.0803 146.052 38.0504 146.029 38.0204C146.01 37.9954 145.991 37.9703 145.973 37.9451C145.95 37.9144 145.927 37.8834 145.904 37.8524C145.887 37.8279 145.869 37.8034 145.851 37.7788C145.826 37.7448 145.802 37.7106 145.778 37.6763C145.762 37.6539 145.747 37.6315 145.731 37.6089C145.708 37.5752 145.684 37.5411 145.661 37.507C145.645 37.483 145.629 37.459 145.613 37.4348C145.59 37.4005 145.567 37.366 145.544 37.3314C145.529 37.3075 145.513 37.2837 145.498 37.2596C145.477 37.2282 145.457 37.1965 145.437 37.1648C145.418 37.1348 145.399 37.1048 145.38 37.0745C145.362 37.0455 145.345 37.0162 145.327 36.9869C145.309 36.9571 145.291 36.9272 145.273 36.8971C145.253 36.8637 145.233 36.83 145.213 36.7963C145.197 36.7682 145.18 36.7403 145.164 36.712C145.14 36.6709 145.117 36.6295 145.094 36.588C145.083 36.5682 145.072 36.5485 145.061 36.5286C145.041 36.4934 145.022 36.458 145.003 36.4226C144.884 36.2025 144.769 35.9768 144.66 35.7452C144.62 35.661 144.581 35.5763 144.543 35.4913C144.521 35.4404 144.498 35.3895 144.476 35.3384C144.469 35.3227 144.462 35.3069 144.456 35.2911C144.433 35.2395 144.411 35.1877 144.39 35.1357C144.377 35.1055 144.365 35.0752 144.353 35.0449C144.338 35.0081 144.323 34.9714 144.308 34.9345C144.296 34.9041 144.284 34.8736 144.272 34.8431C144.256 34.8016 144.24 34.7602 144.224 34.7186C144.216 34.6975 144.209 34.6763 144.201 34.6552C144.182 34.6064 144.164 34.5576 144.147 34.5086C144.137 34.4832 144.129 34.4577 144.12 34.4322C144.104 34.3882 144.088 34.3441 144.073 34.2999C144.064 34.274 144.056 34.2479 144.047 34.2219C144.031 34.1743 144.015 34.1266 143.999 34.0787C143.992 34.0573 143.985 34.0358 143.978 34.0143C143.963 33.9653 143.947 33.9163 143.932 33.867C143.924 33.8407 143.916 33.8144 143.908 33.7881C143.894 33.7432 143.88 33.6982 143.867 33.653C143.857 33.6191 143.848 33.5851 143.838 33.551C143.827 33.5144 143.817 33.4778 143.807 33.4411C143.797 33.4054 143.787 33.3695 143.777 33.3337C143.766 33.2928 143.755 33.2518 143.744 33.2107C143.737 33.1814 143.729 33.1519 143.722 33.1225C143.71 33.0763 143.698 33.03 143.687 32.9835C143.679 32.9532 143.672 32.9227 143.665 32.8922C143.655 32.8521 143.646 32.8119 143.636 32.7716C143.627 32.7323 143.618 32.6929 143.609 32.6535C143.601 32.6164 143.593 32.5792 143.585 32.542C143.577 32.5066 143.57 32.4712 143.562 32.4356C143.553 32.3909 143.544 32.346 143.535 32.3009C143.528 32.2709 143.523 32.2408 143.517 32.2106C143.507 32.1635 143.498 32.1163 143.49 32.0689C143.483 32.0363 143.477 32.0036 143.472 31.9709C143.464 31.9295 143.457 31.888 143.449 31.8464C143.443 31.8093 143.437 31.7722 143.43 31.735C143.423 31.6889 143.415 31.6426 143.408 31.5962C143.403 31.5653 143.398 31.5343 143.393 31.5032C143.387 31.4589 143.38 31.4145 143.373 31.37C143.368 31.331 143.362 31.292 143.357 31.2529C143.351 31.213 143.346 31.173 143.34 31.1329C143.335 31.0932 143.33 31.0534 143.325 31.0135C143.319 30.9681 143.313 30.9226 143.308 30.8771C143.304 30.8444 143.3 30.8116 143.296 30.7788C143.291 30.7275 143.285 30.6761 143.28 30.6245C143.276 30.5918 143.273 30.559 143.269 30.5262C143.265 30.482 143.261 30.4377 143.256 30.3933C143.253 30.3536 143.249 30.3138 143.245 30.274C143.241 30.23 143.238 30.1859 143.234 30.1417C143.231 30.1035 143.228 30.0653 143.225 30.027C143.221 29.9759 143.217 29.9245 143.214 29.8731C143.211 29.8394 143.209 29.8056 143.206 29.7718C143.204 29.7312 143.201 29.6906 143.199 29.6498C143.196 29.6014 143.193 29.5528 143.191 29.504C143.188 29.4641 143.187 29.4241 143.185 29.384C143.183 29.3424 143.18 29.3007 143.179 29.2589C143.167 28.9985 143.161 28.7342 143.158 28.4659C143.157 28.3753 143.156 28.2843 143.156 28.1929C143.156 28.1014 143.157 28.0104 143.158 27.9198C143.161 27.6482 143.168 27.3805 143.179 27.1168C143.19 26.8532 143.206 26.5934 143.226 26.3374C143.233 26.252 143.24 26.1671 143.248 26.0825C143.255 25.9981 143.263 25.914 143.272 25.8303C143.281 25.7467 143.29 25.6634 143.299 25.5806C143.347 25.1663 143.407 24.762 143.48 24.3672C143.509 24.2093 143.54 24.0529 143.573 23.8979C143.622 23.6655 143.676 23.4363 143.735 23.2104C143.911 22.5324 144.127 21.8828 144.386 21.2576C144.415 21.1881 144.445 21.119 144.474 21.0501C144.534 20.9124 144.596 20.7758 144.66 20.6405C144.851 20.234 145.059 19.8455 145.281 19.4745C145.318 19.4126 145.355 19.3512 145.393 19.2903C145.469 19.1685 145.546 19.0487 145.626 18.9308C145.665 18.8719 145.705 18.8134 145.745 18.7554C146.068 18.2915 146.418 17.8581 146.793 17.4545C146.933 17.3031 147.077 17.1559 147.225 17.0128C147.619 16.6312 148.038 16.279 148.481 15.9552C148.536 15.9147 148.592 15.8746 148.648 15.835C148.76 15.7558 148.874 15.6784 148.989 15.6027C149.021 15.5818 149.053 15.5611 149.085 15.5406C149.118 15.52 149.15 15.4997 149.183 15.4796C149.508 15.2778 149.849 15.094 150.203 14.9283C150.274 14.8952 150.345 14.8628 150.417 14.8311C150.488 14.7994 150.56 14.7684 150.633 14.7382C150.823 14.6589 151.016 14.584 151.21 14.5137C151.259 14.4961 151.308 14.4789 151.357 14.4619C151.602 14.3769 151.849 14.2992 152.099 14.2289C152.149 14.2148 152.199 14.201 152.249 14.1875C152.6 14.0932 152.953 14.0136 153.307 13.9494C153.358 13.9402 153.409 13.9313 153.459 13.9228C153.56 13.9057 153.662 13.8898 153.763 13.8753C154.015 13.8389 154.267 13.8105 154.518 13.7904C154.618 13.7823 154.718 13.7755 154.817 13.7701C154.867 13.7674 154.917 13.7651 154.966 13.763C155.066 13.759 155.164 13.7562 155.263 13.7549C155.312 13.7542 155.361 13.7539 155.41 13.7539ZM155.429 17.0059C152.713 17.0079 150.491 20.1466 149.719 21.7161C149.709 21.7382 149.699 21.7604 149.69 21.7825L149.649 21.8747C149.558 22.0823 149.473 22.2888 149.394 22.4975C149.383 22.5262 149.373 22.5551 149.362 22.5839C149.354 22.6063 149.345 22.6286 149.337 22.6511C149.328 22.6775 149.318 22.7041 149.309 22.7307C149.299 22.7592 149.288 22.7878 149.279 22.8164C149.272 22.8341 149.267 22.8518 149.26 22.8695C149.248 22.9057 149.236 22.9421 149.224 22.9786C149.218 22.9965 149.212 23.0146 149.206 23.0326C149.195 23.0673 149.184 23.1021 149.173 23.1371C149.166 23.1588 149.16 23.1805 149.153 23.2023C149.143 23.2346 149.133 23.267 149.124 23.2996C149.116 23.3249 149.109 23.3504 149.102 23.3759C149.094 23.4038 149.086 23.4317 149.078 23.4598C149.069 23.4905 149.061 23.5213 149.053 23.5522C149.046 23.5778 149.039 23.6035 149.032 23.6293C149.025 23.6575 149.018 23.6858 149.01 23.7142C149.003 23.7448 148.995 23.7756 148.987 23.8065C148.981 23.8323 148.975 23.8583 148.969 23.8844C148.961 23.9163 148.954 23.9484 148.947 23.9806C148.94 24.0081 148.934 24.0357 148.928 24.0634C148.922 24.0946 148.915 24.1259 148.908 24.1575C148.902 24.1857 148.896 24.214 148.891 24.2425C148.884 24.2763 148.877 24.3104 148.871 24.3446C148.865 24.3729 148.86 24.4013 148.854 24.4299C148.849 24.4605 148.843 24.4913 148.838 24.5223C148.832 24.556 148.826 24.59 148.82 24.6241C148.815 24.6547 148.81 24.6854 148.805 24.7163C148.8 24.7475 148.795 24.7789 148.79 24.8105C148.784 24.8487 148.778 24.8872 148.773 24.9261C148.769 24.9525 148.765 24.9791 148.761 25.0058C148.756 25.0421 148.751 25.0787 148.746 25.1155C148.742 25.1497 148.737 25.1841 148.733 25.2188C148.729 25.2517 148.725 25.2848 148.721 25.3182C148.717 25.354 148.712 25.3901 148.708 25.4265C148.704 25.4662 148.7 25.5062 148.695 25.5466C148.692 25.5753 148.689 25.6042 148.686 25.6333C148.682 25.6776 148.678 25.7224 148.674 25.7675C148.671 25.8003 148.667 25.8332 148.665 25.8664C148.661 25.9059 148.658 25.9456 148.655 25.9857C148.652 26.02 148.649 26.0545 148.647 26.0893C148.643 26.1339 148.64 26.1789 148.637 26.2242C148.635 26.2591 148.632 26.2942 148.63 26.3295C148.627 26.376 148.624 26.423 148.622 26.4703C148.62 26.5025 148.618 26.5348 148.616 26.5674C148.614 26.6137 148.612 26.6604 148.609 26.7075C148.607 26.7473 148.605 26.7873 148.604 26.8277C148.602 26.8655 148.601 26.9035 148.599 26.9418C148.597 26.9892 148.596 27.0369 148.594 27.0851C148.593 27.1243 148.592 27.1637 148.591 27.2034C148.589 27.2525 148.588 27.3019 148.586 27.3517C148.586 27.3575 148.586 27.3633 148.586 27.3691C148.58 27.6339 148.576 27.911 148.576 28.2015C148.578 31.4315 148.958 32.9912 149.719 34.6871C149.733 34.7151 149.747 34.7434 149.762 34.7725L149.795 34.8386C149.848 34.9406 149.907 35.0479 149.97 35.1595C149.997 35.2073 150.025 35.2559 150.054 35.3052C150.058 35.3125 150.063 35.3199 150.067 35.3273C150.097 35.3777 150.128 35.4287 150.159 35.4804C150.163 35.4859 150.166 35.4915 150.169 35.497C150.202 35.5501 150.236 35.6038 150.27 35.6581C150.276 35.6668 150.281 35.6755 150.287 35.6842C150.297 35.6993 150.306 35.7145 150.316 35.7297C150.326 35.7447 150.336 35.7598 150.346 35.7749C150.358 35.7941 150.371 35.8134 150.384 35.8327C150.389 35.8409 150.395 35.8492 150.4 35.8574C150.414 35.8781 150.428 35.8988 150.442 35.9196C150.453 35.9361 150.464 35.9526 150.475 35.9691C150.481 35.9769 150.486 35.9848 150.491 35.9926C150.507 36.0161 150.524 36.0397 150.54 36.0633C150.551 36.0787 150.561 36.094 150.572 36.1094C150.578 36.1183 150.585 36.1273 150.591 36.1362C150.607 36.1582 150.622 36.1804 150.638 36.2025C150.648 36.2163 150.658 36.2301 150.668 36.2439C150.681 36.2619 150.694 36.28 150.707 36.2981C150.744 36.3487 150.782 36.3993 150.82 36.4501C150.83 36.4633 150.84 36.4765 150.85 36.4897C150.861 36.5037 150.871 36.5176 150.882 36.5316C150.895 36.5482 150.907 36.5649 150.92 36.5815C150.984 36.664 151.05 36.7465 151.118 36.8288C151.157 36.876 151.196 36.9232 151.236 36.9702C151.299 37.0445 151.363 37.1183 151.429 37.1917C151.455 37.2211 151.482 37.2505 151.509 37.2797C151.528 37.3015 151.548 37.3232 151.569 37.3449C151.576 37.3524 151.583 37.3599 151.59 37.3674C151.611 37.3902 151.633 37.413 151.654 37.4357C151.672 37.4546 151.69 37.4733 151.709 37.492C151.72 37.5037 151.731 37.5154 151.743 37.527C151.756 37.5408 151.77 37.5543 151.783 37.568C151.801 37.5855 151.818 37.6031 151.836 37.6205C151.846 37.631 151.857 37.6415 151.868 37.652C151.888 37.6717 151.908 37.6915 151.928 37.711C151.94 37.7229 151.953 37.7346 151.965 37.7464C151.985 37.7651 152.004 37.7838 152.024 37.8023C152.035 37.8122 152.045 37.822 152.056 37.8318C152.076 37.8508 152.097 37.8697 152.118 37.8885C152.13 37.8996 152.142 37.9108 152.155 37.9219C152.174 37.9391 152.193 37.9563 152.212 37.9732C152.226 37.9858 152.241 37.9983 152.255 38.0108C152.272 38.0256 152.289 38.0405 152.306 38.0552C152.323 38.0692 152.339 38.0832 152.356 38.0971C152.373 38.1114 152.39 38.1255 152.407 38.1396C152.421 38.1516 152.436 38.1635 152.45 38.1753C152.469 38.1906 152.487 38.2057 152.506 38.2208C152.522 38.2336 152.538 38.2463 152.555 38.259C152.571 38.2722 152.588 38.2853 152.605 38.2982C152.621 38.311 152.638 38.3236 152.654 38.3361C152.673 38.3506 152.692 38.365 152.712 38.3793C152.726 38.3898 152.74 38.4001 152.754 38.4105C152.773 38.4247 152.793 38.4388 152.812 38.4528C152.829 38.4649 152.846 38.477 152.863 38.4889C152.88 38.5007 152.897 38.5123 152.914 38.5239C152.931 38.5355 152.947 38.5472 152.964 38.5587C152.985 38.5728 153.006 38.5866 153.027 38.6004C153.042 38.6098 153.056 38.6193 153.071 38.6287C153.089 38.6404 153.107 38.652 153.125 38.6635C153.144 38.675 153.162 38.6864 153.18 38.6976C153.197 38.7082 153.214 38.7186 153.232 38.7291C153.25 38.74 153.268 38.7509 153.286 38.7616C153.306 38.7734 153.327 38.785 153.347 38.7966C153.364 38.8062 153.38 38.8159 153.397 38.8253C153.414 38.8346 153.431 38.8436 153.448 38.8527C153.467 38.8632 153.486 38.8738 153.506 38.884C153.53 38.8971 153.555 38.9098 153.58 38.9225C153.593 38.9288 153.605 38.9352 153.617 38.9414C153.679 38.972 153.741 39.001 153.803 39.0289C153.831 39.0412 153.858 39.0532 153.886 39.0649C153.909 39.0749 153.933 39.0852 153.956 39.0949L153.96 39.0963C153.969 39.0998 153.977 39.103 153.986 39.1064C154.015 39.1179 154.044 39.1293 154.073 39.1402C154.088 39.146 154.104 39.1514 154.119 39.1571C154.143 39.1656 154.166 39.1741 154.19 39.1822C154.205 39.1873 154.22 39.1921 154.235 39.197C154.259 39.205 154.283 39.2131 154.307 39.2207C154.341 39.231 154.374 39.241 154.407 39.2505C154.411 39.2515 154.414 39.2524 154.418 39.2534C154.451 39.2629 154.485 39.2719 154.519 39.2806C154.525 39.2821 154.531 39.2836 154.537 39.2851C154.572 39.2937 154.606 39.3017 154.641 39.3093C154.647 39.3108 154.654 39.3123 154.661 39.3138C154.671 39.316 154.681 39.3182 154.692 39.3203C154.705 39.323 154.718 39.3255 154.731 39.3281C154.737 39.3292 154.743 39.3303 154.748 39.3315C154.76 39.3337 154.771 39.3359 154.783 39.3379C154.794 39.3399 154.804 39.3417 154.815 39.3435C154.824 39.3451 154.833 39.3468 154.843 39.3483C154.853 39.35 154.864 39.3517 154.874 39.3533C154.886 39.3552 154.898 39.3568 154.909 39.3585C154.917 39.3596 154.925 39.3608 154.932 39.3619C154.946 39.3638 154.959 39.3656 154.973 39.3673C154.98 39.3682 154.987 39.3692 154.994 39.3701C155.009 39.3719 155.024 39.3736 155.039 39.3752C155.044 39.3758 155.049 39.3764 155.054 39.3769C155.066 39.3781 155.077 39.3793 155.089 39.3804C155.099 39.3814 155.11 39.3825 155.12 39.3834C155.127 39.3841 155.135 39.3846 155.142 39.3852C155.156 39.3863 155.169 39.3874 155.182 39.3883C155.187 39.3887 155.192 39.3889 155.197 39.3892C155.212 39.3902 155.228 39.3912 155.243 39.3921C155.246 39.3922 155.249 39.3923 155.251 39.3924C155.31 39.3955 155.37 39.3971 155.429 39.3971C155.465 39.3971 155.501 39.3964 155.536 39.3953C155.542 39.3951 155.548 39.395 155.554 39.3948C155.632 39.392 155.711 39.3865 155.789 39.3786C155.792 39.3782 155.796 39.3779 155.8 39.3775C155.81 39.3764 155.82 39.3752 155.83 39.374C155.842 39.3727 155.853 39.3715 155.865 39.3701C155.874 39.369 155.882 39.3678 155.891 39.3667C155.902 39.3652 155.914 39.3637 155.925 39.3621C155.937 39.3604 155.949 39.3587 155.961 39.3568C155.968 39.3558 155.975 39.3549 155.982 39.3538C155.999 39.3511 156.017 39.3483 156.034 39.3453C156.036 39.345 156.038 39.3445 156.04 39.3442C156.052 39.3422 156.064 39.3401 156.075 39.3379C156.088 39.3356 156.102 39.3332 156.115 39.3307C156.119 39.3299 156.123 39.3289 156.128 39.3281C156.14 39.3257 156.152 39.3233 156.165 39.3207C156.238 39.3056 156.311 39.2883 156.384 39.269C156.389 39.2676 156.395 39.2661 156.4 39.2646C156.434 39.2554 156.468 39.2459 156.502 39.2358C156.508 39.2341 156.513 39.2323 156.519 39.2305C156.54 39.2244 156.56 39.2178 156.58 39.2113C156.602 39.2044 156.624 39.1975 156.645 39.1902C156.663 39.1841 156.682 39.1776 156.7 39.1712C156.72 39.164 156.741 39.1568 156.761 39.1492C156.78 39.1422 156.799 39.1349 156.818 39.1276C156.837 39.1203 156.856 39.113 156.875 39.1054C156.897 39.0966 156.919 39.0876 156.941 39.0784C156.956 39.0722 156.971 39.0661 156.986 39.0597C157.008 39.0503 157.029 39.0407 157.051 39.031C157.07 39.0227 157.088 39.0144 157.107 39.0059C157.125 38.9977 157.142 38.9893 157.16 38.9808C157.18 38.9713 157.2 38.9618 157.22 38.952C157.238 38.9429 157.257 38.9336 157.275 38.9243C157.293 38.915 157.312 38.9055 157.33 38.8959C157.348 38.8863 157.367 38.8766 157.385 38.8668C157.405 38.8563 157.424 38.8457 157.444 38.8349C157.461 38.8254 157.478 38.8159 157.495 38.8062C157.515 38.7952 157.534 38.784 157.553 38.7728C157.571 38.7627 157.588 38.7527 157.605 38.7424C157.624 38.7314 157.642 38.7201 157.661 38.7088C157.678 38.698 157.696 38.6873 157.713 38.6763C157.733 38.6639 157.753 38.6514 157.773 38.6388C157.789 38.6283 157.805 38.6178 157.821 38.6071C157.839 38.5954 157.857 38.5836 157.875 38.5716C157.893 38.5596 157.911 38.5474 157.929 38.5352C157.947 38.523 157.965 38.5107 157.982 38.4983C157.999 38.4864 158.016 38.4745 158.033 38.4624C158.051 38.4495 158.069 38.4363 158.087 38.4232C158.103 38.4121 158.118 38.4011 158.133 38.3899C158.154 38.3745 158.175 38.3589 158.195 38.3432C158.209 38.3329 158.223 38.3225 158.236 38.3121C158.255 38.2978 158.273 38.2833 158.292 38.2688C158.308 38.2561 158.324 38.2436 158.34 38.2308C158.357 38.2173 158.374 38.2037 158.391 38.1901C158.407 38.177 158.423 38.1639 158.439 38.1507C158.455 38.1372 158.472 38.1234 158.488 38.1098C158.505 38.0954 158.522 38.0811 158.539 38.0666C158.555 38.0537 158.569 38.0406 158.584 38.0276C158.602 38.0126 158.619 37.9977 158.636 37.9825C158.796 37.8416 158.951 37.6946 159.1 37.5432C159.119 37.5244 159.137 37.5053 159.156 37.4864C159.168 37.4736 159.18 37.461 159.193 37.4482C159.204 37.4367 159.215 37.4251 159.225 37.4136C159.274 37.363 159.321 37.312 159.368 37.2607C159.38 37.2474 159.392 37.2341 159.404 37.2208C159.421 37.2018 159.438 37.1827 159.455 37.1636C159.462 37.1557 159.469 37.1477 159.476 37.1397C159.524 37.086 159.571 37.0321 159.617 36.9779C159.634 36.9574 159.651 36.9369 159.668 36.9163C159.677 36.9063 159.685 36.8962 159.694 36.8862C159.71 36.8663 159.727 36.8464 159.743 36.8265C159.755 36.8119 159.767 36.7972 159.779 36.7826C159.791 36.7679 159.803 36.7532 159.815 36.7384C159.829 36.7201 159.844 36.7016 159.859 36.6832C159.87 36.6686 159.882 36.6539 159.893 36.6392C159.905 36.6241 159.917 36.6092 159.929 36.5941C159.943 36.5757 159.957 36.5572 159.971 36.5388C159.983 36.524 159.994 36.5093 160.005 36.4945C160.017 36.4793 160.028 36.4641 160.04 36.4489C160.055 36.4293 160.069 36.4097 160.084 36.3901C160.091 36.38 160.099 36.3699 160.106 36.3598C160.12 36.3409 160.134 36.3221 160.148 36.3033C160.162 36.2841 160.176 36.265 160.19 36.2459C160.197 36.2355 160.205 36.225 160.212 36.2146C160.227 36.1937 160.242 36.1729 160.257 36.1521C160.266 36.1391 160.275 36.1261 160.284 36.1131C160.295 36.0976 160.306 36.0821 160.317 36.0666C160.352 36.0151 160.387 35.9639 160.422 35.913C160.431 35.8995 160.44 35.8862 160.449 35.8728C160.457 35.8611 160.464 35.8492 160.472 35.8375C160.486 35.8167 160.5 35.796 160.513 35.7752C160.526 35.7553 160.539 35.7355 160.552 35.7157C160.556 35.7097 160.559 35.7037 160.563 35.6978C160.579 35.6732 160.595 35.6488 160.61 35.6245C160.615 35.6172 160.619 35.6097 160.624 35.6024C160.65 35.5614 160.675 35.5206 160.7 35.4803C160.73 35.4314 160.759 35.3831 160.787 35.3354C160.794 35.3239 160.8 35.3124 160.807 35.301C160.835 35.2544 160.861 35.2085 160.887 35.1633C160.908 35.1265 160.928 35.09 160.948 35.0542C161.019 34.9246 161.084 34.8017 161.14 34.6871C161.194 34.5661 161.246 34.4456 161.297 34.3254C161.401 34.0769 161.497 33.8287 161.585 33.5748C161.603 33.521 161.621 33.4669 161.639 33.4124C161.675 33.3037 161.709 33.1937 161.742 33.082C161.807 32.8586 161.867 32.6285 161.92 32.3881C161.96 32.2079 161.997 32.0219 162.031 31.8287C162.086 31.5067 162.133 31.1646 162.17 30.7955C162.185 30.6478 162.199 30.4958 162.211 30.339C162.228 30.1039 162.243 29.8582 162.254 29.6002C162.262 29.4281 162.268 29.2507 162.272 29.0674C162.279 28.7925 162.283 28.5043 162.283 28.2015C162.282 27.394 162.258 26.691 162.211 26.064C162.199 25.9073 162.185 25.7553 162.17 25.6077C162.066 24.5742 161.889 23.7522 161.639 22.9907C161.497 22.5556 161.33 22.1401 161.14 21.7161C161.126 21.688 161.112 21.6596 161.097 21.6305C161.06 21.5581 161.021 21.4825 160.979 21.4046C160.919 21.2954 160.855 21.1812 160.785 21.0632C160.76 21.0224 160.735 20.9812 160.71 20.9395C160.607 20.7702 160.493 20.5942 160.371 20.4146C160.218 20.1907 160.05 19.9612 159.869 19.7323C159.765 19.6016 159.657 19.4711 159.545 19.3419C159.517 19.3096 159.489 19.2773 159.461 19.2452C159.346 19.1165 159.228 18.9895 159.106 18.8652C158.801 18.5552 158.472 18.2625 158.122 18.005C158.052 17.9534 157.982 17.9033 157.91 17.8548C157.852 17.8156 157.794 17.7778 157.735 17.7407C157.685 17.7088 157.634 17.6775 157.583 17.6473C157.546 17.6255 157.509 17.6042 157.472 17.5833C157.397 17.5415 157.322 17.5015 157.246 17.4636C157.208 17.4446 157.17 17.4262 157.131 17.4083C157.054 17.3724 156.977 17.3385 156.899 17.3069C156.762 17.2515 156.624 17.2028 156.483 17.1617C156.443 17.1499 156.403 17.1388 156.363 17.1283C156.342 17.123 156.322 17.1179 156.302 17.113C156.241 17.0982 156.18 17.0848 156.118 17.0729C156.077 17.065 156.036 17.0578 155.995 17.0513C155.954 17.0447 155.912 17.0388 155.871 17.0336C155.85 17.031 155.829 17.0286 155.808 17.0264C155.767 17.0219 155.725 17.0182 155.683 17.0152C155.662 17.0137 155.641 17.0124 155.62 17.0112C155.578 17.0089 155.535 17.0073 155.493 17.0065C155.472 17.0061 155.451 17.0059 155.429 17.0059Z" fill="#94E3F0"/>
<path d="M140.176 38.4451C140.176 36.5257 140.229 25.8959 140.229 23.6722C140.238 22.8681 140.275 15.3746 140.28 12.9281C140.286 10.4817 140.28 5.30746 140.278 4.67696C140.276 4.04647 140.277 3.77414 140.275 3.61085C140.272 3.44755 140.211 3.33066 140.051 3.17521C139.892 3.01976 140.078 3.21875 139.498 2.62351C138.918 2.02827 139.154 2.27427 138.382 1.5199C137.61 0.765537 137.069 0.530394 136.71 0.458749C136.35 0.387104 135.768 0.600284 135.561 0.803402C135.355 1.00652 135.277 1.1848 135.277 1.4004C135.277 1.61599 135.275 12.4091 135.274 19.4629C135.273 26.5167 135.281 36.6047 135.273 37.5309C135.264 38.457 135.144 39.202 135.429 39.4721C135.532 39.5696 135.571 39.6066 135.585 39.619C135.583 39.6175 135.587 39.6224 135.619 39.6544C135.724 39.7611 135.712 39.7492 135.907 39.9392C136.103 40.1291 136.248 40.2737 136.447 40.4754C136.646 40.677 136.739 40.7591 137.086 41.0966C137.433 41.4341 137.697 41.7089 137.961 41.967C138.226 42.2251 138.385 42.4451 138.931 42.5917C139.477 42.7383 140.175 42.483 140.176 41.8209C140.176 41.1588 140.172 40.8921 140.176 40.5998C140.18 40.3074 140.155 38.6349 140.176 38.4451Z" fill="#94E3F0"/>
<path d="M130.701 3.80182C131.343 2.56661 131.591 1.87416 132.095 0.909321C132.6 -0.0555229 130.847 0.16053 130.526 0.158554C130.205 0.156574 127.661 0.165222 127.661 0.165222H121.824L116.19 0.158554H110.527C110.301 0.158932 110.127 0.164097 109.992 0.171917C109.617 0.193615 109.401 0.441185 109.405 0.816818C109.405 0.83144 109.405 0.846447 109.405 0.861855C109.411 1.45292 109.407 1.15134 109.405 1.7295C109.403 2.30767 109.404 3.04512 109.407 3.96735C109.411 4.88958 109.374 4.65887 109.412 6.03889C109.415 7.43057 109.412 9.19048 109.412 9.19048C109.412 9.19048 109.413 16.1824 109.412 18.5628C109.411 20.9432 109.414 24.6028 109.414 24.6028V35.9403C109.414 36.8991 109.413 37.1754 109.424 38.0976C109.429 38.3612 109.434 38.3472 109.424 38.7113C109.437 39.0328 109.426 39.0211 109.429 39.1799C109.431 39.2854 109.415 39.3009 109.479 39.3789C109.586 39.5085 109.695 39.6371 109.806 39.7629C110.064 40.0548 110.508 40.4552 110.758 40.7052C110.758 40.7052 111.387 41.2494 111.654 41.509C111.92 41.7686 112.261 42.056 112.572 42.2873C112.866 42.5069 113.284 42.7831 113.858 42.4576C113.92 42.4219 113.975 42.3725 114.02 42.3159C114.168 42.1302 114.377 41.8242 114.377 41.4293C114.376 40.9671 114.466 6.92492 114.438 5.32864C114.466 4.96216 121.229 5.19352 121.542 5.1311C121.634 5.11711 128.222 5.16909 128.738 5.1311C129.255 5.0931 130.059 5.03701 130.701 3.80182Z" fill="#94E3F0"/>
<path d="M127.491 21.2286C128.036 20.6 128.312 20.251 128.675 19.7566C129.039 19.2622 127.615 19.3755 127.342 19.3745C127.07 19.3735 124.909 19.3779 124.909 19.3779H119.951L115.166 19.3745H110.356C110.164 19.3747 110.016 19.3773 109.902 19.3813C109.583 19.3923 109.4 19.5183 109.403 19.7095C109.403 19.7169 109.403 19.7246 109.403 19.7324C109.409 20.0332 109.405 19.8797 109.403 20.174C109.401 20.4682 109.402 20.8435 109.405 21.3128C109.408 21.7821 109.377 21.6647 109.409 22.367C109.412 23.0752 109.409 23.9709 109.409 23.9709C109.409 23.9709 109.41 27.5291 109.409 28.7405C109.408 29.9518 109.411 31.8142 109.411 31.8142V37.5839C109.411 38.0718 109.41 38.2125 109.419 38.6817C109.424 38.8159 109.428 38.8088 109.42 38.994C109.431 39.1577 109.421 39.1517 109.424 39.2325C109.425 39.2862 109.412 39.2941 109.466 39.3338C109.557 39.3998 109.649 39.4652 109.744 39.5292C109.963 39.6778 110.34 39.8815 110.552 40.0088C110.552 40.0088 111.086 40.2857 111.313 40.4178C111.54 40.55 111.829 40.6962 112.093 40.8139C112.343 40.9257 112.698 41.0662 113.185 40.9006C113.239 40.8824 113.285 40.8573 113.323 40.8285C113.449 40.734 113.626 40.5782 113.626 40.3772C113.626 40.1594 113.781 25.8865 113.786 23.1381C113.786 22.8497 113.917 22.6627 114.205 22.6448C115.538 22.5618 119.595 22.6399 119.817 22.6133C119.895 22.6062 125.491 22.6326 125.929 22.6133C126.368 22.5939 126.946 21.8572 127.491 21.2286Z" fill="#94E3F0"/>
</svg>
