<svg width="1413" height="1413" viewBox="0 0 1413 1413" fill="none" xmlns="http://www.w3.org/2000/svg">
<g clip-path="url(#clip0_411_364)">
<rect width="1412.88" height="1412.88" rx="706.442" fill="white"/>
<path d="M1133.54 722.625C1217.69 708.962 1296.59 764.404 1309.88 846.298C1323.18 928.191 1265.88 1005.75 1181.73 1019.41C1097.58 1033.08 1018.68 977.635 1005.38 895.741C992.081 813.848 1049.39 736.289 1133.54 722.625Z" stroke="black" stroke-opacity="0.15" stroke-width="5.33184"/>
<path d="M1250.86 615.983C1335.01 602.32 1413.91 657.762 1427.21 739.656C1440.5 821.549 1383.2 899.108 1299.05 912.772C1214.9 926.436 1136 870.993 1122.7 789.099C1109.4 707.206 1166.71 629.647 1250.86 615.983Z" stroke="black" stroke-opacity="0.15" stroke-width="5.33184"/>
<path d="M1361.03 520.001C1445.18 506.337 1524.08 561.78 1537.38 643.673C1550.68 725.567 1493.37 803.126 1409.22 816.79C1325.07 830.453 1246.17 775.011 1232.87 693.117C1219.58 611.223 1276.88 533.665 1361.03 520.001Z" stroke="black" stroke-opacity="0.15" stroke-width="5.33184"/>
<path d="M351.51 871.885C435.66 858.221 514.56 913.664 527.858 995.557C541.155 1077.45 483.85 1155.01 399.701 1168.67C315.551 1182.34 236.65 1126.89 223.352 1045C210.055 963.107 267.36 885.549 351.51 871.885Z" stroke="black" stroke-opacity="0.15" stroke-width="5.33184"/>
<path d="M994.878 -6.08774C1079.03 -19.7512 1157.93 35.6913 1171.23 117.585C1184.52 199.478 1127.22 277.037 1043.07 290.701C958.919 304.365 880.018 248.922 866.721 167.029C853.423 85.1348 910.728 7.57599 994.878 -6.08774Z" stroke="black" stroke-opacity="0.15" stroke-width="5.33184"/>
<path d="M628.813 136.094C712.962 122.43 791.863 177.873 805.16 259.767C818.458 341.66 761.153 419.219 677.004 432.883C592.854 446.546 513.953 391.104 500.655 309.21C487.358 227.316 544.663 149.758 628.813 136.094Z" stroke="black" stroke-opacity="0.15" stroke-width="5.33184"/>
<path d="M472.424 79.2274C556.574 65.564 635.474 121.006 648.772 202.9C662.069 284.794 604.764 362.352 520.615 376.016C436.465 389.68 357.564 334.237 344.267 252.344C330.969 170.45 388.274 92.8912 472.424 79.2274Z" stroke="black" stroke-opacity="0.15" stroke-width="5.33184"/>
<path d="M340.887 40.1159C425.037 26.4524 503.937 81.8949 517.234 163.788C530.532 245.682 473.227 323.241 389.078 336.905C304.928 350.568 226.027 295.126 212.729 213.232C199.432 131.338 256.737 53.7796 340.887 40.1159Z" stroke="black" stroke-opacity="0.15" stroke-width="5.33184"/>
<path d="M585.782 9.03613C664.271 -11.9948 744.407 33.013 764.873 109.391C785.338 185.768 738.442 264.813 659.953 285.845C581.464 306.876 501.327 261.869 480.861 185.491C460.396 109.114 507.293 30.0673 585.782 9.03613Z" stroke="black" stroke-opacity="0.15" stroke-width="5.33184"/>
<path d="M362.206 178.748C446.356 165.085 525.256 220.527 538.554 302.421C551.851 384.314 494.547 461.873 410.397 475.537C326.247 489.201 247.346 433.758 234.049 351.864C220.751 269.971 278.057 192.412 362.206 178.748Z" stroke="black" stroke-opacity="0.15" stroke-width="5.33184"/>
<path d="M454.65 -66.4935C538.799 -80.157 617.7 -24.7145 630.997 57.1791C644.295 139.073 586.99 216.631 502.841 230.295C418.691 243.959 339.79 188.516 326.492 106.623C313.195 24.729 370.5 -52.8298 454.65 -66.4935Z" stroke="black" stroke-opacity="0.15" stroke-width="5.33184"/>
<path d="M1044.69 967.863C1128.84 954.2 1207.74 1009.64 1221.03 1091.54C1234.33 1173.43 1177.03 1250.99 1092.88 1264.65C1008.73 1278.32 929.826 1222.87 916.528 1140.98C903.231 1059.09 960.536 981.527 1044.69 967.863Z" stroke="black" stroke-opacity="0.15" stroke-width="5.33184"/>
<path d="M934.494 1067.39C1018.64 1053.73 1097.54 1109.17 1110.84 1191.07C1124.14 1272.96 1066.83 1350.52 982.684 1364.18C898.535 1377.85 819.633 1322.4 806.336 1240.51C793.038 1158.62 850.344 1081.06 934.494 1067.39Z" stroke="black" stroke-opacity="0.15" stroke-width="5.33184"/>
<path d="M817.186 1170.49C901.335 1156.82 980.236 1212.27 993.533 1294.16C1006.83 1376.05 949.526 1453.61 865.377 1467.28C781.227 1480.94 702.326 1425.5 689.028 1343.6C675.731 1261.71 733.036 1184.15 817.186 1170.49Z" stroke="black" stroke-opacity="0.15" stroke-width="5.33184"/>
<path d="M667.905 1120.73C752.054 1107.06 830.955 1162.51 844.252 1244.4C857.549 1326.29 800.245 1403.85 716.095 1417.52C631.946 1431.18 553.044 1375.74 539.747 1293.84C526.45 1211.95 583.755 1134.39 667.905 1120.73Z" stroke="black" stroke-opacity="0.15" stroke-width="5.33184"/>
<path d="M525.702 1067.39C609.851 1053.73 688.752 1109.17 702.049 1191.07C715.346 1272.96 658.042 1350.52 573.892 1364.18C489.743 1377.85 410.841 1322.4 397.544 1240.51C384.246 1158.62 441.552 1081.06 525.702 1067.39Z" stroke="black" stroke-opacity="0.15" stroke-width="5.33184"/>
<path d="M237.806 964.31C321.956 950.646 400.856 1006.09 414.153 1087.98C427.451 1169.88 370.146 1247.43 285.997 1261.1C201.847 1274.76 122.946 1219.32 109.648 1137.43C96.351 1055.53 153.656 977.973 237.806 964.31Z" stroke="black" stroke-opacity="0.15" stroke-width="5.33184"/>
<path d="M180.939 672.85C265.088 659.187 343.989 714.629 357.286 796.523C370.584 878.416 313.279 955.975 229.13 969.639C144.98 983.302 66.0787 927.86 52.7812 845.966C39.4838 764.073 96.789 686.514 180.939 672.85Z" stroke="black" stroke-opacity="0.15" stroke-width="5.33184"/>
<path d="M60.0697 772.349C144.219 758.686 223.12 814.128 236.417 896.022C249.714 977.915 192.41 1055.47 108.26 1069.14C24.1107 1082.8 -54.7905 1027.36 -68.088 945.466C-81.3854 863.572 -24.0801 786.013 60.0697 772.349Z" stroke="black" stroke-opacity="0.15" stroke-width="5.33184"/>
<path d="M81.433 918.124C165.583 904.461 244.483 959.903 257.78 1041.8C271.078 1123.69 213.773 1201.25 129.624 1214.91C45.474 1228.58 -33.4272 1173.13 -46.7247 1091.24C-60.0221 1009.35 -2.71683 931.788 81.433 918.124Z" stroke="black" stroke-opacity="0.15" stroke-width="5.33184"/>
<path d="M156.03 520.001C240.179 506.337 319.08 561.78 332.377 643.673C345.674 725.567 288.37 803.125 204.22 816.789C120.071 830.453 41.1695 775.011 27.872 693.117C14.5746 611.223 71.8799 533.664 156.03 520.001Z" stroke="black" stroke-opacity="0.15" stroke-width="5.33184"/>
<path d="M3.20249 480.886C87.3521 467.222 166.253 522.665 179.55 604.558C192.847 686.452 135.543 764.01 51.3933 777.674C-32.7565 791.338 -111.658 735.896 -124.955 654.002C-138.253 572.108 -80.9473 494.549 3.20249 480.886Z" stroke="black" stroke-opacity="0.15" stroke-width="5.33184"/>
<path d="M28.0833 623.09C112.233 609.426 191.133 664.869 204.431 746.762C217.728 828.656 160.424 906.214 76.2741 919.878C-7.87563 933.542 -86.7768 878.099 -100.074 796.206C-113.372 714.312 -56.0664 636.753 28.0833 623.09Z" stroke="black" stroke-opacity="0.15" stroke-width="5.33184"/>
<path d="M131.193 377.815C215.342 364.152 294.243 419.594 307.54 501.488C320.837 583.381 263.533 660.94 179.383 674.604C95.2337 688.268 16.3326 632.825 3.03509 550.932C-10.2623 469.038 47.0429 391.479 131.193 377.815Z" stroke="black" stroke-opacity="0.15" stroke-width="5.33184"/>
<path d="M237.805 281.833C321.955 268.17 400.855 323.612 414.152 405.506C427.45 487.399 370.145 564.958 285.996 578.622C201.846 592.286 122.945 536.843 109.647 454.949C96.35 373.056 153.655 295.497 237.805 281.833Z" stroke="black" stroke-opacity="0.15" stroke-width="5.33184"/>
<path d="M209.336 136.094C293.486 122.43 372.386 177.873 385.684 259.767C398.981 341.66 341.677 419.219 257.527 432.883C173.377 446.546 94.4761 391.104 81.1786 309.21C67.8812 227.316 125.186 149.758 209.336 136.094Z" stroke="black" stroke-opacity="0.15" stroke-width="5.33184"/>
<path d="M109.829 224.97C193.979 211.306 272.879 266.749 286.177 348.642C299.474 430.536 242.17 508.094 158.02 521.758C73.8705 535.422 -5.03072 479.98 -18.3282 398.086C-31.6256 316.192 25.6797 238.633 109.829 224.97Z" stroke="black" stroke-opacity="0.15" stroke-width="5.33184"/>
<path d="M205.79 818.589C289.94 804.926 368.84 860.368 382.138 942.262C395.435 1024.16 338.131 1101.71 253.981 1115.38C169.831 1129.04 90.9302 1073.6 77.6327 991.705C64.3353 909.812 121.641 832.253 205.79 818.589Z" stroke="black" stroke-opacity="0.15" stroke-width="5.33184"/>
<path d="M379.981 1017.64C464.13 1003.97 543.031 1059.42 556.328 1141.31C569.626 1223.2 512.321 1300.76 428.172 1314.43C344.022 1328.09 265.121 1272.65 251.823 1190.75C238.526 1108.86 295.831 1031.3 379.981 1017.64Z" stroke="black" stroke-opacity="0.15" stroke-width="5.33184"/>
<path d="M401.3 1170.49C485.45 1156.82 564.35 1212.27 577.648 1294.16C590.945 1376.05 533.64 1453.61 449.491 1467.28C365.341 1480.94 286.44 1425.5 273.143 1343.6C259.845 1261.71 317.15 1184.15 401.3 1170.49Z" stroke="black" stroke-opacity="0.15" stroke-width="5.33184"/>
<path d="M255.579 1117.17C339.729 1103.51 418.629 1158.95 431.927 1240.85C445.224 1322.74 387.92 1400.3 303.77 1413.96C219.62 1427.63 140.719 1372.18 127.422 1290.29C114.124 1208.4 171.43 1130.84 255.579 1117.17Z" stroke="black" stroke-opacity="0.15" stroke-width="5.33184"/>
<path d="M706.997 1270C791.147 1256.34 870.047 1311.78 883.345 1393.68C896.642 1475.57 839.338 1553.13 755.188 1566.79C671.038 1580.46 592.137 1525.01 578.84 1443.12C565.542 1361.23 622.848 1283.67 706.997 1270Z" stroke="black" stroke-opacity="0.15" stroke-width="5.33184"/>
<path d="M955.786 1216.69C1039.94 1203.03 1118.84 1258.47 1132.13 1340.36C1145.43 1422.26 1088.13 1499.82 1003.98 1513.48C919.827 1527.14 840.926 1471.7 827.629 1389.81C814.331 1307.91 871.637 1230.35 955.786 1216.69Z" stroke="black" stroke-opacity="0.15" stroke-width="5.33184"/>
<path d="M1083.81 1113.62C1167.96 1099.96 1246.86 1155.4 1260.15 1237.29C1273.45 1319.19 1216.15 1396.75 1132 1410.41C1047.85 1424.07 968.946 1368.63 955.648 1286.74C942.351 1204.84 999.656 1127.28 1083.81 1113.62Z" stroke="black" stroke-opacity="0.15" stroke-width="5.33184"/>
<path d="M1190.4 1017.64C1274.55 1003.97 1353.45 1059.42 1366.75 1141.31C1380.05 1223.2 1322.74 1300.76 1238.59 1314.43C1154.44 1328.09 1075.54 1272.65 1062.25 1190.75C1048.95 1108.86 1106.25 1031.3 1190.4 1017.64Z" stroke="black" stroke-opacity="0.15" stroke-width="5.33184"/>
<path d="M1165.55 864.775C1249.7 851.111 1328.6 906.554 1341.9 988.447C1355.2 1070.34 1297.89 1147.9 1213.74 1161.56C1129.59 1175.23 1050.69 1119.78 1037.39 1037.89C1024.1 955.997 1081.4 878.438 1165.55 864.775Z" stroke="black" stroke-opacity="0.15" stroke-width="5.33184"/>
<path d="M1314.84 914.549C1398.98 900.886 1477.89 956.328 1491.18 1038.22C1504.48 1120.12 1447.18 1197.67 1363.03 1211.34C1278.88 1225 1199.98 1169.56 1186.68 1087.67C1173.38 1005.77 1230.69 928.213 1314.84 914.549Z" stroke="black" stroke-opacity="0.15" stroke-width="5.33184"/>
<path d="M1282.85 772.349C1367 758.686 1445.9 814.128 1459.2 896.022C1472.5 977.915 1415.19 1055.47 1331.04 1069.14C1246.89 1082.8 1167.99 1027.36 1154.69 945.466C1141.4 863.572 1198.7 786.013 1282.85 772.349Z" stroke="black" stroke-opacity="0.15" stroke-width="5.33184"/>
<path d="M557.688 1220.26C641.837 1206.6 720.738 1262.04 734.035 1343.93C747.333 1425.83 690.028 1503.39 605.879 1517.05C521.729 1530.71 442.828 1475.27 429.53 1393.38C416.233 1311.48 473.538 1233.93 557.688 1220.26Z" stroke="black" stroke-opacity="0.15" stroke-width="5.33184"/>
<path d="M881.19 86.3373C965.339 72.6739 1044.24 128.116 1057.54 210.01C1070.83 291.903 1013.53 369.462 929.381 383.126C845.231 396.79 766.33 341.347 753.032 259.454C739.735 177.56 797.04 100.001 881.19 86.3373Z" stroke="black" stroke-opacity="0.15" stroke-width="5.33184"/>
<path d="M1192.3 317.143C1278.79 303.099 1359.88 360.084 1373.55 444.255C1387.22 528.427 1328.32 608.143 1241.83 622.187C1155.34 636.231 1074.24 579.246 1060.57 495.074C1046.91 410.903 1105.81 331.187 1192.3 317.143Z" stroke="black" stroke-opacity="0.15" stroke-width="5.48015"/>
<path d="M735.469 40.1156C819.619 26.4522 898.519 81.8946 911.817 163.788C925.114 245.682 867.809 323.24 783.66 336.904C699.51 350.568 620.609 295.126 607.311 213.232C594.014 131.338 651.319 53.7794 735.469 40.1156Z" stroke="black" stroke-opacity="0.15" stroke-width="5.33184"/>
<path d="M712.106 -150.829C804.479 -165.828 891.102 -104.967 905.701 -15.0554C920.3 74.8566 857.385 159.997 765.012 174.996C672.639 189.995 586.017 129.136 571.417 39.2237C556.818 -50.6885 619.733 -135.83 712.106 -150.829Z" stroke="black" stroke-opacity="0.15" stroke-width="5.33184"/>
<path d="M1009.66 152.23C1088.21 139.476 1161.85 191.228 1174.26 267.659C1186.67 344.09 1133.18 416.483 1054.64 429.237C976.09 441.991 902.449 390.24 890.038 313.808C877.628 237.377 931.111 164.984 1009.66 152.23Z" stroke="black" stroke-opacity="0.15" stroke-width="5.33184"/>
<path d="M1102.76 89.8032C1167.81 72.3724 1234.21 109.678 1251.17 172.954C1268.12 236.23 1229.27 301.736 1164.22 319.167C1099.16 336.598 1032.77 299.293 1015.81 236.017C998.856 172.741 1037.71 107.234 1102.76 89.8032Z" stroke="black" stroke-opacity="0.15" stroke-width="5.33184"/>
<path d="M866.531 -39.8623C944.553 -52.531 1017.7 -1.12621 1030.03 74.7918C1042.35 150.71 989.23 222.617 911.208 235.286C833.187 247.955 760.041 196.55 747.714 120.632C735.387 44.7139 788.51 -27.1937 866.531 -39.8623Z" stroke="black" stroke-opacity="0.15" stroke-width="5.33184"/>
<path d="M1215.28 473.779C1299.43 460.116 1378.33 515.558 1391.63 597.452C1404.93 679.345 1347.62 756.904 1263.47 770.568C1179.32 784.231 1100.42 728.789 1087.12 646.895C1073.83 565.002 1131.13 487.443 1215.28 473.779Z" stroke="black" stroke-opacity="0.15" stroke-width="5.33184"/>
<path d="M1332.61 370.709C1416.76 357.045 1495.66 412.488 1508.96 494.381C1522.26 576.275 1464.95 653.833 1380.8 667.497C1296.65 681.161 1217.75 625.719 1204.45 543.825C1191.16 461.931 1248.46 384.372 1332.61 370.709Z" stroke="black" stroke-opacity="0.15" stroke-width="5.33184"/>
<path d="M1293.51 224.97C1377.66 211.306 1456.56 266.749 1469.86 348.642C1483.16 430.536 1425.85 508.095 1341.7 521.759C1257.55 535.422 1178.65 479.98 1165.36 398.086C1152.06 316.192 1209.36 238.634 1293.51 224.97Z" stroke="black" stroke-opacity="0.15" stroke-width="5.33184"/>
<path d="M1153.41 205.223C1230.85 192.648 1303.45 243.671 1315.68 319.024C1327.92 394.376 1275.19 465.75 1197.75 478.325C1120.31 490.899 1047.71 439.876 1035.47 364.523C1023.24 289.17 1075.96 217.797 1153.41 205.223Z" stroke="black" stroke-opacity="0.15" stroke-width="5.33184"/>
<path d="M902.479 239.173C986.628 225.509 1065.53 280.952 1078.83 362.845C1092.12 444.739 1034.82 522.297 950.67 535.961C866.52 549.625 787.619 494.183 774.321 412.289C761.024 330.395 818.329 252.836 902.479 239.173Z" stroke="black" stroke-opacity="0.3" stroke-width="5.33184"/>
<path d="M639.464 974.959C723.614 961.296 802.514 1016.74 815.812 1098.63C829.109 1180.53 771.804 1258.08 687.655 1271.75C603.505 1285.41 524.604 1229.97 511.307 1148.08C498.009 1066.18 555.314 988.623 639.464 974.959Z" stroke="black" stroke-opacity="0.3" stroke-width="5.33184"/>
<path d="M1037.7 286.253C1121.39 272.664 1199.82 327.802 1213.03 409.19C1226.25 490.579 1169.3 567.698 1085.61 581.287C1001.92 594.875 923.497 539.738 910.281 458.349C897.066 376.961 954.018 299.841 1037.7 286.253Z" stroke="black" stroke-opacity="0.3" stroke-width="7.10912"/>
<path d="M269.935 431.992C353.621 418.404 432.047 473.541 445.263 554.93C458.478 636.318 401.527 713.438 317.841 727.026C234.154 740.615 155.727 685.477 142.512 604.089C129.296 522.7 186.248 445.58 269.935 431.992Z" stroke="black" stroke-opacity="0.3" stroke-width="7.10912"/>
<path d="M788.891 1018.49C872.577 1004.9 951.003 1060.04 964.219 1141.42C977.434 1222.81 920.483 1299.93 836.797 1313.52C753.11 1327.11 674.683 1271.97 661.468 1190.58C648.253 1109.19 705.204 1032.07 788.891 1018.49Z" stroke="black" stroke-opacity="0.3" stroke-width="7.10912"/>
<path d="M1069.69 424.885C1153.38 411.297 1231.81 466.435 1245.02 547.823C1258.24 629.211 1201.29 706.331 1117.6 719.92C1033.91 733.508 955.487 678.37 942.272 596.982C929.056 515.593 986.008 438.474 1069.69 424.885Z" stroke="black" stroke-opacity="0.3" stroke-width="7.10912"/>
<path d="M1101.68 577.716C1185.37 564.128 1263.79 619.266 1277.01 700.654C1290.22 782.043 1233.27 859.162 1149.59 872.751C1065.9 886.339 987.472 831.202 974.257 749.813C961.042 668.425 1017.99 591.305 1101.68 577.716Z" stroke="black" stroke-opacity="0.3" stroke-width="7.10912"/>
<path d="M319.696 723.455C403.383 709.867 481.809 765.005 495.024 846.393C508.24 927.782 451.288 1004.9 367.602 1018.49C283.916 1032.08 205.489 976.941 192.274 895.552C179.058 814.164 236.01 737.044 319.696 723.455Z" stroke="black" stroke-opacity="0.3" stroke-width="7.10912"/>
<path d="M294.817 577.716C378.503 564.128 456.929 619.266 470.144 700.654C483.36 782.042 426.409 859.162 342.723 872.751C259.036 886.339 180.609 831.201 167.394 749.813C154.178 668.424 211.13 591.305 294.817 577.716Z" stroke="black" stroke-opacity="0.3" stroke-width="7.10912"/>
<path d="M397.898 332.46C481.584 318.872 560.01 374.01 573.225 455.398C586.441 536.786 529.49 613.906 445.804 627.494C362.117 641.083 283.69 585.945 270.475 504.557C257.259 423.168 314.211 346.049 397.898 332.46Z" stroke="black" stroke-opacity="0.3" stroke-width="7.10912"/>
<path d="M504.554 236.496C588.24 222.908 666.666 278.046 679.882 359.434C693.097 440.822 636.146 517.942 552.46 531.531C468.774 545.119 390.346 489.981 377.131 408.593C363.916 327.204 420.868 250.085 504.554 236.496Z" stroke="black" stroke-opacity="0.3" stroke-width="7.10912"/>
<path d="M756.885 179.611C840.571 166.023 918.997 221.16 932.213 302.549C945.428 383.937 888.477 461.057 804.791 474.645C721.105 488.234 642.678 433.096 629.462 351.708C616.247 270.319 673.199 193.199 756.885 179.611Z" stroke="black" stroke-opacity="0.3" stroke-width="7.10912"/>
<path d="M1023.49 815.88C1107.18 802.292 1185.6 857.43 1198.82 938.818C1212.04 1020.21 1155.08 1097.33 1071.4 1110.91C987.712 1124.5 909.285 1069.37 896.069 987.977C882.854 906.588 939.806 829.469 1023.49 815.88Z" stroke="black" stroke-opacity="0.3" stroke-width="7.10912"/>
<path d="M902.621 922.522C986.307 908.934 1064.73 964.072 1077.95 1045.46C1091.16 1126.85 1034.21 1203.97 950.527 1217.56C866.841 1231.15 788.414 1176.01 775.198 1094.62C761.983 1013.23 818.935 936.111 902.621 922.522Z" stroke="black" stroke-opacity="0.3" stroke-width="7.10912"/>
<path d="M497.433 926.076C581.119 912.487 659.545 967.625 672.761 1049.01C685.976 1130.4 629.025 1207.52 545.339 1221.11C461.652 1234.7 383.225 1179.56 370.01 1098.17C356.795 1016.78 413.746 939.664 497.433 926.076Z" stroke="black" stroke-opacity="0.3" stroke-width="7.10912"/>
<circle cx="633.349" cy="971.999" r="150.303" transform="rotate(50 633.349 971.999)" stroke="black" stroke-opacity="0.5" stroke-width="7.10912"/>
<circle cx="779.071" cy="1021.78" r="150.303" transform="rotate(50 779.071 1021.78)" stroke="black" stroke-opacity="0.5" stroke-width="7.10912"/>
<circle cx="493.603" cy="914.058" r="150.303" transform="rotate(52.6172 493.603 914.058)" stroke="black" stroke-opacity="0.5" stroke-width="7.10912"/>
<path d="M575.182 681.329C625.58 747.289 612.966 841.615 547.007 892.014C481.074 942.391 392.644 929.822 342.224 863.835C291.826 797.875 304.44 703.549 370.4 653.15C436.332 602.773 524.763 615.342 575.182 681.329Z" stroke="black" stroke-opacity="0.5" stroke-width="7.10912"/>
<circle cx="153.858" cy="153.858" r="150.303" transform="matrix(0.632043 0.774934 0.774934 -0.632043 736.513 508.959)" stroke="black" stroke-opacity="0.5" stroke-width="7.10912"/>
<path d="M691.56 574.127C744.026 638.455 838.705 648.07 903.033 595.604C967.379 543.123 976.952 454.062 924.502 389.753C872.036 325.426 777.357 315.811 713.03 368.276C648.683 420.758 639.11 509.819 691.56 574.127Z" stroke="black" stroke-opacity="0.5" stroke-width="7.10912"/>
<circle cx="895.239" cy="924.655" r="150.303" transform="rotate(-9.22285 895.239 924.655)" stroke="black" stroke-opacity="0.5" stroke-width="7.10912"/>
<path d="M985.874 680.572C1067.81 667.267 1145.02 722.904 1158.32 804.841C1171.63 886.778 1115.99 963.987 1034.05 977.292C952.116 990.596 874.908 934.958 861.604 853.021C848.299 771.084 903.937 693.876 985.874 680.572Z" stroke="black" stroke-opacity="0.5" stroke-width="7.10912"/>
<circle cx="984.124" cy="675.864" r="150.303" transform="rotate(-9.22285 984.124 675.864)" stroke="black" stroke-opacity="0.5" stroke-width="7.10912"/>
<path d="M650.216 286.267C733.902 272.679 812.328 327.817 825.544 409.205C838.759 490.593 781.808 567.713 698.122 581.302C614.436 594.89 536.009 539.752 522.793 458.364C509.578 376.975 566.53 299.856 650.216 286.267Z" stroke="black" stroke-opacity="0.5" stroke-width="7.10912"/>
<path d="M519.904 374.753C602.233 361.385 679.645 416.635 692.868 498.075C706.092 579.514 650.139 656.419 567.81 669.787C485.481 683.155 408.07 627.904 394.847 546.465C381.623 465.027 437.575 388.121 519.904 374.753Z" stroke="black" stroke-opacity="0.5" stroke-width="7.10912"/>
<circle cx="438.098" cy="620.38" r="150.303" transform="rotate(49.1366 438.098 620.38)" stroke="black" stroke-opacity="0.5" stroke-width="7.10912"/>
<circle cx="157.968" cy="157.968" r="153.566" transform="matrix(0.640859 0.767658 0.767658 -0.640859 615.733 602.332)" stroke="black" stroke-width="8.80273"/>
<circle cx="745.587" cy="878.046" r="153.566" transform="rotate(50.6549 745.587 878.046)" stroke="black" stroke-width="8.80273"/>
<path d="M847.205 626.756C931.071 614.121 1009.3 671.864 1021.94 755.73C1034.57 839.596 976.828 917.825 892.962 930.46C809.097 943.096 730.867 885.353 718.231 801.487C705.596 717.621 763.34 639.391 847.205 626.756Z" stroke="black" stroke-width="8.80273"/>
<path d="M692.26 434.964C777.119 429.885 849.846 492.845 854.747 575.538C859.648 658.231 794.872 729.42 710.014 734.499C625.155 739.578 552.427 676.618 547.526 593.925C542.624 511.232 607.401 440.042 692.26 434.964Z" stroke="black" stroke-width="8.80273"/>
<path d="M728.411 733.539C779.13 801.514 765.14 897.735 697.164 948.454C629.189 999.173 532.968 985.183 482.249 917.208C431.531 849.232 445.519 753.011 513.495 702.292C581.471 651.573 677.692 665.563 728.411 733.539Z" stroke="black" stroke-width="8.80273"/>
<path d="M703.862 592.821C752.672 656.701 739.707 748.772 674.704 798.439C609.701 848.107 517.46 836.423 468.65 772.542C419.84 708.662 432.805 616.592 497.808 566.924C562.811 517.257 655.052 528.94 703.862 592.821Z" stroke="black" stroke-width="8.80273"/>
</g>
<defs>
<linearGradient id="paint0_linear_411_364" x1="1231.11" y1="253.334" x2="206.93" y2="1188.06" gradientUnits="userSpaceOnUse">
<stop stop-color="#90E4FB"/>
<stop offset="0.498641" stop-color="#B6D486"/>
<stop offset="1" stop-color="#FFA57A"/>
</linearGradient>
<clipPath id="clip0_411_364">
<rect width="1412.88" height="1412.88" rx="706.442" fill="white"/>
</clipPath>
</defs>
</svg>
