<svg width="512" height="512" viewBox="0 0 512 512" fill="none" xmlns="http://www.w3.org/2000/svg">
<g clip-path="url(#clip0_234_366)">
<path d="M433.908 372.556L337.578 339.588C332.051 337.696 327.701 333.242 325.942 327.673L325.001 324.694C346.914 313.352 365.682 296.792 379.797 276.228C396.974 251.203 406.053 221.877 406.053 191.419V150.035C406.053 67.295 338.74 0 256 0C173.26 0 105.947 67.295 105.947 150.035V191.419C105.947 221.971 115.077 251.372 132.351 276.445C146.488 296.965 165.253 313.474 187.149 324.775L186.068 327.939C184.209 333.383 180.022 337.576 174.581 339.443L78.25 372.5L78.091 372.556C31.383 389.171 0 433.645 0 483.221V512H512V483.221C512 433.645 480.617 389.171 433.908 372.556ZM256 29.981C290.055 29.981 320.841 44.235 342.711 67.089C340.126 66.798 337.5 66.64 334.838 66.64H176.983C174.388 66.64 171.829 66.793 169.307 67.069C191.177 44.228 221.955 29.981 256 29.981ZM157.055 259.425C143.246 239.381 135.947 215.864 135.947 191.419V150.035C135.947 139.379 137.35 129.047 139.967 119.204C146.826 105.861 161.179 96.641 176.983 96.641H334.838C351.378 96.641 366.167 106.74 372.518 121.094C374.822 130.367 376.053 140.059 376.053 150.035V191.419C376.053 240.56 346.625 284.246 301.081 302.714L288.241 307.921C288.241 307.921 298.096 338.925 298.528 340.009C296.112 361.34 277.967 377.972 256.001 377.972C234.103 377.972 216.004 361.442 213.499 340.207C213.841 339.362 224.521 308.177 224.521 308.177L211.313 302.876C189.318 294.047 170.557 279.022 157.055 259.425ZM30.008 482C30.517 445.606 53.719 413.104 88.072 400.847C88.072 400.847 188.068 366.394 189.851 365.528C201.384 390.551 226.688 407.971 256 407.971C285.295 407.971 310.588 390.571 322.13 365.571C323.98 366.486 423.935 400.85 423.935 400.85C458.285 413.108 481.483 445.608 481.992 482H30.008Z" fill="#99AE76"/>
<path d="M243.026 165.235C243.026 157.567 249.265 151.329 256.933 151.329C264.601 151.329 270.84 157.567 270.84 165.235V166.173C270.84 173.841 264.601 180.08 256.933 180.08H240.241V227.003H270.241V208.019C287.966 202.37 300.84 185.747 300.84 166.173V165.235C300.84 141.025 281.144 121.329 256.933 121.329C232.722 121.329 213.026 141.025 213.026 165.235V166.192H243.026V165.235Z" fill="#99AE76"/>
<path d="M240.601 252.798H270.601V282.798H240.601V252.798Z" fill="#99AE76"/>
</g>
<defs>
<clipPath id="clip0_234_366">
<rect width="512" height="512" fill="white"/>
</clipPath>
</defs>
</svg>
