<svg width="512" height="512" viewBox="0 0 512 512" fill="none" xmlns="http://www.w3.org/2000/svg">
<path d="M379.737 97.3062H273.633V65.5675C273.633 62.2939 272.332 59.1545 270.018 56.8397C267.703 54.525 264.563 53.2246 261.29 53.2246H241.894C238.62 53.2246 235.481 54.525 233.166 56.8397C230.851 59.1545 229.551 62.2939 229.551 65.5675V97.3062H123.447C101.319 97.3179 80.1006 106.113 64.4538 121.76C48.8071 137.407 40.0117 158.625 40 180.753V230.477C40 285.18 61.7307 337.642 100.412 376.323C139.092 415.004 191.555 436.735 246.258 436.735H261.29C264.563 436.735 267.703 435.434 270.018 433.12C272.332 430.805 273.633 427.665 273.633 424.392V404.996C273.633 401.723 272.332 398.583 270.018 396.268C267.703 393.954 264.563 392.653 261.29 392.653H246.258C203.246 392.653 161.996 375.567 131.582 345.153C101.168 314.739 84.0816 273.489 84.0816 230.477V180.753C84.0816 170.313 88.229 160.3 95.6113 152.918C102.994 145.535 113.006 141.388 123.447 141.388H379.737C390.177 141.388 400.19 145.535 407.572 152.918C414.955 160.3 419.102 170.313 419.102 180.753V233.959C419.074 246.053 417.594 258.1 414.694 269.842C413.925 272.867 414.335 276.071 415.842 278.805C417.348 281.539 419.837 283.598 422.805 284.565L441.319 290.604C442.918 291.135 444.61 291.331 446.288 291.181C447.966 291.031 449.596 290.538 451.076 289.732C452.555 288.926 453.854 287.824 454.89 286.496C455.927 285.167 456.679 283.64 457.1 282.008C461.109 266.305 463.153 250.166 463.184 233.959V180.753C463.172 158.625 454.377 137.407 438.73 121.76C423.083 106.113 401.865 97.3179 379.737 97.3062Z" fill="#99AE76"/>
<path d="M181.061 282.449C200.538 282.449 216.327 266.66 216.327 247.183C216.327 227.707 200.538 211.918 181.061 211.918C161.585 211.918 145.796 227.707 145.796 247.183C145.796 266.66 161.585 282.449 181.061 282.449Z" fill="#99AE76"/>
<path d="M322.122 282.449C341.599 282.449 357.388 266.66 357.388 247.183C357.388 227.707 341.599 211.918 322.122 211.918C302.646 211.918 286.857 227.707 286.857 247.183C286.857 266.66 302.646 282.449 322.122 282.449Z" fill="#99AE76"/>
<line x1="334.123" y1="322.122" x2="450.975" y2="438.974" stroke="#99AE76" stroke-width="28" stroke-linecap="square"/>
<line x1="14" y1="-14" x2="179.254" y2="-14" transform="matrix(-0.707107 0.707107 0.707107 0.707107 472 322.122)" stroke="#99AE76" stroke-width="28" stroke-linecap="square"/>
</svg>
