<svg width="512" height="512" viewBox="0 0 512 512" fill="none" xmlns="http://www.w3.org/2000/svg">
<g clip-path="url(#clip0_234_382)">
<path d="M325.604 16.6592C358.555 39.8833 410.199 68.463 471.976 74.9902V255.383C471.976 282.746 465.41 310.593 452.123 338.227C440.196 363.029 423.175 387.088 401.343 409.66V409.661C362.148 450.189 311.089 481.649 265.207 494.4C220.051 481.85 169.881 451.18 130.941 411.579L129.071 409.661C107.922 387.793 91.2874 364.532 79.4243 340.55L78.2915 338.227C65.0038 310.593 58.438 282.746 58.438 255.383V74.9902C120.216 68.4632 171.86 39.8834 204.811 16.6592H325.604Z" stroke="#99AE76" stroke-width="34"/>
<path d="M298.152 149.225V201.78H350.707V267.669H298.152V320.225H232.263V267.669H179.707V201.78H232.263V149.225H298.152Z" stroke="#99AE76" stroke-width="24"/>
</g>
<defs>
<clipPath id="clip0_234_382">
<rect width="512" height="512" fill="white"/>
</clipPath>
</defs>
</svg>
