<svg width="512" height="512" viewBox="0 0 512 512" fill="none" xmlns="http://www.w3.org/2000/svg">
<path d="M483.556 123.591C483.557 104.122 477.306 85.1671 465.723 69.5184C454.141 53.8697 437.839 42.3541 419.219 36.6678C400.599 30.9815 380.645 31.425 362.297 37.933C343.948 44.441 328.174 56.6694 317.298 72.8173C277.536 59.688 234.607 59.688 194.845 72.8173C187.326 61.7428 177.454 52.4659 165.934 45.6496C154.414 38.8334 141.53 34.6461 128.204 33.387C114.878 32.1279 101.438 33.8282 88.8448 38.3662C76.252 42.9042 64.8171 50.168 55.3573 59.6384C45.8976 69.1088 38.6467 80.5519 34.1229 93.1498C29.599 105.748 27.9139 119.19 29.188 132.514C30.4621 145.839 34.6639 158.718 41.4932 170.23C48.3224 181.743 57.6105 191.605 68.6934 199.111C55.4635 239.309 55.5708 282.705 68.9994 322.837C82.428 362.969 108.46 397.69 143.218 421.831L121.173 465.92L148.338 480.142L169.529 437.475C196.466 450.856 226.136 457.82 256.213 457.82C286.291 457.82 315.961 450.856 342.898 437.475L364.089 480.142L391.253 465.92L369.209 421.831C403.892 397.632 429.837 362.885 443.188 322.757C456.538 282.629 456.58 239.264 443.307 199.111C455.701 190.796 465.857 179.556 472.876 166.385C479.896 153.213 483.564 138.516 483.556 123.591ZM58.7379 123.591C58.7852 111.126 62.6757 98.9795 69.8791 88.8071C77.0825 78.6347 87.2481 70.9315 98.9897 66.7481C110.731 62.5647 123.478 62.1045 135.49 65.4304C147.503 68.7563 158.198 75.7064 166.116 85.3329C129.495 104.219 99.6683 134.045 80.7823 170.666C73.8528 164.94 68.2809 157.747 64.4687 149.606C60.6565 141.465 58.6992 132.58 58.7379 123.591ZM256 426.666C222.993 426.666 190.727 416.875 163.287 398.531C135.846 380.187 114.464 354.116 101.845 323.615C89.227 293.115 85.9399 259.557 92.4001 227.189C98.8602 194.82 114.777 165.094 138.137 141.775C161.496 118.455 191.249 102.589 223.629 96.1838C256.008 89.7789 289.561 93.1232 320.039 105.794C350.518 118.464 376.553 139.891 394.85 167.363C413.147 194.835 422.883 227.117 422.827 260.124C422.676 304.297 405.043 346.613 373.781 377.822C342.519 409.03 300.173 426.591 256 426.666ZM431.36 170.666C412.474 134.045 382.648 104.219 346.027 85.3329C351.417 78.8687 358.096 73.5986 365.636 69.8586C373.177 66.1187 381.414 63.9909 389.822 63.611C398.231 63.2311 406.626 64.6073 414.473 67.652C422.32 70.6967 429.447 75.343 435.398 81.2947C441.35 87.2464 445.996 94.3729 449.041 102.22C452.086 110.067 453.462 118.462 453.082 126.871C452.702 135.279 450.574 143.516 446.834 151.057C443.094 158.597 437.824 165.276 431.36 170.666Z" fill="#99AE76"/>
<path d="M240.782 253.866L199.111 294.969L220.587 316.444L266.098 270.933C268.911 268.094 270.495 264.263 270.507 260.266V169.244H240.782V253.866Z" fill="#99AE76"/>
</svg>
