<svg width="512" height="512" viewBox="0 0 512 512" fill="none" xmlns="http://www.w3.org/2000/svg">
<path fill-rule="evenodd" clip-rule="evenodd" d="M247.074 68.68C194.993 68.68 145.045 89.3553 108.219 126.157C71.3928 162.959 50.7037 212.874 50.7037 264.92C50.7037 312.235 69.5119 357.611 102.991 391.068C136.469 424.524 181.876 443.32 229.222 443.32C250.321 443.32 271.213 439.167 290.706 431.098C310.2 423.029 327.911 411.203 342.831 396.294C357.75 381.383 369.584 363.684 377.659 344.205C385.733 324.723 389.889 303.845 389.889 282.76C389.889 244.909 374.842 208.606 348.06 181.841C321.279 155.079 284.959 140.044 247.087 140.04C213.957 140.095 182.202 153.272 158.777 176.682C135.352 200.091 122.166 231.825 122.111 264.932C122.115 293.316 133.399 320.538 153.484 340.608C173.571 360.683 200.815 371.96 229.222 371.96C252.896 371.96 275.6 362.562 292.337 345.833C309.077 329.107 318.481 306.418 318.481 282.76C318.481 263.834 310.959 245.683 297.566 232.301C284.176 218.918 266.013 211.4 247.074 211.4C232.871 211.4 219.248 217.039 209.205 227.076C199.161 237.113 193.519 250.726 193.519 264.92V264.995C193.499 269.676 194.408 274.315 196.191 278.644C197.974 282.972 200.599 286.906 203.91 290.215C207.222 293.525 211.158 296.147 215.489 297.929C219.821 299.712 224.463 300.62 229.147 300.6H229.222C233.957 300.6 238.498 298.72 241.845 295.375C245.192 292.03 247.074 287.491 247.074 282.76C237.215 282.76 229.222 274.773 229.222 264.92C229.222 255.067 237.215 247.08 247.074 247.08C256.543 247.08 265.624 250.839 272.32 257.531C279.016 264.222 282.778 273.298 282.778 282.76C282.778 296.955 277.135 310.567 267.091 320.604C257.057 330.632 243.45 336.269 229.26 336.28C219.875 336.314 210.574 334.494 201.895 330.923C193.204 327.346 185.308 322.086 178.664 315.445C172.018 308.805 166.755 300.914 163.176 292.228C159.602 283.556 157.781 274.261 157.815 264.883C157.815 264.87 157.815 264.858 157.815 264.845L175.667 264.92H157.815C157.815 264.908 157.815 264.895 157.815 264.883C157.826 241.239 167.228 218.565 183.959 201.847C200.697 185.118 223.401 175.72 247.074 175.72C275.482 175.72 302.725 186.997 322.812 207.072C342.901 227.146 354.185 254.371 354.185 282.76C354.185 315.88 341.019 347.644 317.584 371.063C294.149 394.483 262.364 407.64 229.222 407.64C191.346 407.64 155.019 392.603 128.236 365.839C101.454 339.074 86.4074 302.771 86.4074 264.92V264.891C86.4738 222.336 103.42 181.543 133.531 151.452C163.642 121.361 204.462 104.426 247.046 104.36H247.074C294.421 104.36 339.827 123.156 373.306 156.612C406.784 190.069 425.593 235.445 425.593 282.76C425.593 308.53 420.514 334.048 410.645 357.857C400.777 381.667 386.311 403.3 368.078 421.523C349.842 439.745 328.195 454.201 304.37 464.063C280.545 473.925 255.009 479 229.222 479C172.407 479 117.919 456.445 77.7443 416.298C37.5697 376.149 15 321.698 15 264.92C15 203.411 39.4506 144.422 82.9729 100.928C126.496 57.4344 185.524 33 247.074 33C279.895 33 312.394 39.4602 342.717 52.0119C373.039 64.5634 400.591 82.9606 423.798 106.153C447.006 129.345 465.415 156.879 477.975 187.18C490.536 217.483 497 249.961 497 282.76C497 292.613 489.008 300.6 479.148 300.6C469.289 300.6 461.296 292.613 461.296 282.76C461.296 254.646 455.755 226.808 444.99 200.835C434.224 174.862 418.445 151.261 398.552 131.383C378.66 111.503 355.044 95.7344 329.053 84.9759C303.063 74.2174 275.207 68.68 247.074 68.68ZM229.26 336.28C229.247 336.28 229.235 336.28 229.222 336.28V318.44L229.297 336.28C229.285 336.28 229.272 336.28 229.26 336.28Z" fill="#99AE76"/>
</svg>
