<svg width="1272" height="477" viewBox="0 0 1272 477" fill="none" xmlns="http://www.w3.org/2000/svg">
<rect width="1272" height="477" rx="64" fill="#414141"/>
<g clip-path="url(#clip0_3_8585)">
<path d="M260.116 168.805L71.4959 60.9938C69.1258 59.6175 66.1439 59.694 63.8502 61.0703C61.48 62.4466 60.0273 64.8934 60.0273 67.646C60.0273 67.646 60.1038 77.586 60.1803 93.9488L197.574 231.351L260.116 168.805Z" fill="url(#paint0_linear_3_8585)"/>
<path d="M60.1797 93.9492C60.4091 152.978 61.0972 296.267 61.403 367.606L197.65 231.351L60.1797 93.9492Z" fill="url(#paint1_linear_3_8585)"/>
<path d="M368.072 230.51L260.115 168.805L197.496 231.351L268.143 302.002L368.149 243.738C370.519 242.361 371.972 239.838 371.972 237.162C371.972 234.409 370.443 231.886 368.072 230.51Z" fill="url(#paint2_linear_3_8585)"/>
<path d="M61.3281 367.606C61.481 393.067 61.5575 409.354 61.5575 409.354C61.5575 412.106 63.0102 414.63 65.3804 415.929C67.7505 417.306 70.6559 417.306 73.0261 415.929L268.222 302.078L197.575 231.427L61.3281 367.606Z" fill="url(#paint3_linear_3_8585)"/>
</g>
<path opacity="0.8" d="M581.599 143.844C576.817 143.844 572.657 142.777 569.118 140.645C565.603 138.512 562.884 135.488 560.962 131.574C559.04 127.637 558.079 122.984 558.079 117.617V117.582C558.079 112.215 559.04 107.574 560.962 103.66C562.884 99.7461 565.603 96.7344 569.118 94.625C572.634 92.4922 576.794 91.4258 581.599 91.4258C585.325 91.4258 588.688 92.1406 591.688 93.5703C594.688 95 597.161 96.9805 599.106 99.5117C601.052 102.043 602.282 104.984 602.798 108.336L602.833 108.688H594.993L594.782 107.984C594.243 105.992 593.364 104.281 592.145 102.852C590.95 101.422 589.462 100.332 587.681 99.582C585.923 98.8086 583.895 98.4219 581.599 98.4219C578.458 98.4219 575.728 99.207 573.407 100.777C571.11 102.348 569.329 104.562 568.063 107.422C566.798 110.281 566.165 113.668 566.165 117.582V117.617C566.165 121.508 566.798 124.906 568.063 127.812C569.329 130.695 571.122 132.922 573.442 134.492C575.763 136.062 578.481 136.848 581.599 136.848C583.849 136.848 585.853 136.473 587.61 135.723C589.392 134.949 590.903 133.824 592.145 132.348C593.388 130.871 594.313 129.066 594.923 126.934L595.028 126.582H602.868L602.798 126.934C602.282 130.309 601.052 133.273 599.106 135.828C597.185 138.359 594.724 140.328 591.724 141.734C588.724 143.141 585.349 143.844 581.599 143.844ZM632.733 143.844C627.834 143.844 623.604 142.789 620.041 140.68C616.479 138.547 613.737 135.523 611.815 131.609C609.893 127.672 608.932 123.02 608.932 117.652V117.582C608.932 112.215 609.893 107.574 611.815 103.66C613.76 99.7461 616.514 96.7344 620.076 94.625C623.639 92.4922 627.858 91.4258 632.733 91.4258C637.584 91.4258 641.791 92.4922 645.354 94.625C648.916 96.7578 651.658 99.7812 653.58 103.695C655.502 107.586 656.463 112.215 656.463 117.582V117.652C656.463 123.02 655.502 127.66 653.58 131.574C651.658 135.488 648.916 138.512 645.354 140.645C641.815 142.777 637.608 143.844 632.733 143.844ZM632.733 136.848C635.967 136.848 638.756 136.062 641.1 134.492C643.444 132.922 645.248 130.695 646.514 127.812C647.78 124.93 648.412 121.543 648.412 117.652V117.582C648.412 113.668 647.768 110.281 646.479 107.422C645.213 104.539 643.397 102.324 641.03 100.777C638.686 99.207 635.92 98.4219 632.733 98.4219C629.522 98.4219 626.733 99.1953 624.365 100.742C622.022 102.289 620.205 104.504 618.916 107.387C617.627 110.246 616.983 113.645 616.983 117.582V117.652C616.983 121.566 617.627 124.965 618.916 127.848C620.205 130.73 622.022 132.957 624.365 134.527C626.709 136.074 629.498 136.848 632.733 136.848ZM664.707 143V92.2695H673.812L690.23 132.734H690.441L706.859 92.2695H716V143H708.793V105.594H705.171L713.398 93.6758L693.253 143H687.418L667.308 93.6758L675.535 105.594H671.914V143H664.707ZM726.106 143V92.2695H735.212L751.63 132.734H751.841L768.259 92.2695H777.399V143H770.192V105.594H766.571L774.798 93.6758L754.653 143H748.817L728.708 93.6758L736.934 105.594H733.313V143H726.106ZM787.506 143V92.2695H795.381V143H787.506ZM805.453 143V92.2695H812.73L843.949 137.094L835.617 129.711H839.027V92.2695H846.867V143H839.589L808.37 98.1055L816.703 105.453H813.292V143H805.453ZM878.77 143.844C875.137 143.844 871.856 143.234 868.926 142.016C866.02 140.797 863.536 139.039 861.473 136.742C859.434 134.445 857.864 131.668 856.762 128.41C855.661 125.152 855.11 121.484 855.11 117.406V117.371C855.11 112.027 856.071 107.422 857.993 103.555C859.915 99.6875 862.645 96.6992 866.184 94.5898C869.723 92.4805 873.895 91.4258 878.7 91.4258C882.637 91.4258 886.083 92.1289 889.036 93.5352C891.989 94.918 894.403 96.8164 896.278 99.2305C898.153 101.645 899.442 104.387 900.145 107.457L900.286 108.055H892.165L892.024 107.668C890.969 104.738 889.305 102.465 887.032 100.848C884.782 99.2305 882.005 98.4219 878.7 98.4219C875.489 98.4219 872.712 99.1719 870.368 100.672C868.048 102.172 866.266 104.34 865.024 107.176C863.782 109.988 863.161 113.375 863.161 117.336V117.371C863.161 120.395 863.524 123.113 864.251 125.527C864.977 127.918 866.02 129.957 867.38 131.645C868.762 133.332 870.415 134.621 872.337 135.512C874.258 136.402 876.426 136.848 878.84 136.848C881.583 136.848 883.997 136.309 886.083 135.23C888.192 134.152 889.833 132.652 891.005 130.73C892.2 128.785 892.809 126.535 892.833 123.98V123.137H879.544V116.703H900.637V121.906C900.637 125.328 900.145 128.398 899.161 131.117C898.176 133.836 896.735 136.145 894.837 138.043C892.962 139.941 890.665 141.383 887.946 142.367C885.251 143.352 882.192 143.844 878.77 143.844ZM941.628 143.844C937.831 143.844 934.503 143.27 931.644 142.121C928.808 140.973 926.558 139.332 924.894 137.199C923.23 135.043 922.292 132.477 922.081 129.5L922.046 128.973H929.745L929.816 129.43C930.05 130.977 930.695 132.324 931.749 133.473C932.827 134.598 934.234 135.465 935.968 136.074C937.702 136.684 939.695 136.988 941.945 136.988C944.218 136.988 946.175 136.672 947.816 136.039C949.456 135.406 950.722 134.504 951.613 133.332C952.527 132.16 952.984 130.789 952.984 129.219V129.184C952.984 127.145 952.245 125.527 950.769 124.332C949.316 123.113 946.902 122.141 943.527 121.414L938.007 120.254C933.038 119.199 929.335 117.512 926.898 115.191C924.46 112.848 923.241 109.801 923.241 106.051V106.016C923.265 103.133 924.062 100.602 925.632 98.4219C927.202 96.2188 929.37 94.5078 932.136 93.2891C934.902 92.0469 938.077 91.4258 941.663 91.4258C945.179 91.4258 948.284 92.0234 950.98 93.2188C953.675 94.4141 955.808 96.0898 957.378 98.2461C958.948 100.379 959.827 102.875 960.015 105.734L960.05 106.297H952.351L952.28 105.84C952.07 104.246 951.484 102.887 950.523 101.762C949.585 100.637 948.355 99.7812 946.831 99.1953C945.308 98.5859 943.538 98.2812 941.523 98.2812C939.437 98.2812 937.62 98.5977 936.073 99.2305C934.527 99.8398 933.331 100.695 932.488 101.797C931.644 102.898 931.222 104.199 931.222 105.699V105.734C931.222 107.633 931.972 109.18 933.472 110.375C934.972 111.57 937.304 112.508 940.468 113.188L945.988 114.383C949.48 115.109 952.327 116.094 954.53 117.336C956.734 118.578 958.363 120.125 959.417 121.977C960.472 123.828 960.999 126.066 960.999 128.691V128.727C960.999 131.82 960.214 134.504 958.644 136.777C957.097 139.027 954.87 140.773 951.964 142.016C949.081 143.234 945.636 143.844 941.628 143.844ZM990.758 143.844C985.86 143.844 981.629 142.789 978.067 140.68C974.504 138.547 971.762 135.523 969.84 131.609C967.918 127.672 966.958 123.02 966.958 117.652V117.582C966.958 112.215 967.918 107.574 969.84 103.66C971.786 99.7461 974.54 96.7344 978.102 94.625C981.665 92.4922 985.883 91.4258 990.758 91.4258C995.61 91.4258 999.817 92.4922 1003.38 94.625C1006.94 96.7578 1009.68 99.7812 1011.61 103.695C1013.53 107.586 1014.49 112.215 1014.49 117.582V117.652C1014.49 123.02 1013.53 127.66 1011.61 131.574C1009.68 135.488 1006.94 138.512 1003.38 140.645C999.84 142.777 995.633 143.844 990.758 143.844ZM990.758 136.848C993.993 136.848 996.782 136.062 999.125 134.492C1001.47 132.922 1003.27 130.695 1004.54 127.812C1005.81 124.93 1006.44 121.543 1006.44 117.652V117.582C1006.44 113.668 1005.79 110.281 1004.5 107.422C1003.24 104.539 1001.42 102.324 999.055 100.777C996.711 99.207 993.946 98.4219 990.758 98.4219C987.547 98.4219 984.758 99.1953 982.391 100.742C980.047 102.289 978.231 104.504 976.942 107.387C975.653 110.246 975.008 113.645 975.008 117.582V117.652C975.008 121.566 975.653 124.965 976.942 127.848C978.231 130.73 980.047 132.957 982.391 134.527C984.735 136.074 987.524 136.848 990.758 136.848ZM1044.7 143.844C1039.81 143.844 1035.58 142.789 1032.01 140.68C1028.45 138.547 1025.71 135.523 1023.79 131.609C1021.87 127.672 1020.9 123.02 1020.9 117.652V117.582C1020.9 112.215 1021.87 107.574 1023.79 103.66C1025.73 99.7461 1028.49 96.7344 1032.05 94.625C1035.61 92.4922 1039.83 91.4258 1044.7 91.4258C1049.56 91.4258 1053.76 92.4922 1057.33 94.625C1060.89 96.7578 1063.63 99.7812 1065.55 103.695C1067.47 107.586 1068.44 112.215 1068.44 117.582V117.652C1068.44 123.02 1067.47 127.66 1065.55 131.574C1063.63 135.488 1060.89 138.512 1057.33 140.645C1053.79 142.777 1049.58 143.844 1044.7 143.844ZM1044.7 136.848C1047.94 136.848 1050.73 136.062 1053.07 134.492C1055.42 132.922 1057.22 130.695 1058.49 127.812C1059.75 124.93 1060.38 121.543 1060.38 117.652V117.582C1060.38 113.668 1059.74 110.281 1058.45 107.422C1057.19 104.539 1055.37 102.324 1053 100.777C1050.66 99.207 1047.89 98.4219 1044.7 98.4219C1041.49 98.4219 1038.7 99.1953 1036.34 100.742C1033.99 102.289 1032.18 104.504 1030.89 107.387C1029.6 110.246 1028.95 113.645 1028.95 117.582V117.652C1028.95 121.566 1029.6 124.965 1030.89 127.848C1032.18 130.73 1033.99 132.957 1036.34 134.527C1038.68 136.074 1041.47 136.848 1044.7 136.848ZM1076.68 143V92.2695H1083.96L1115.17 137.094L1106.84 129.711H1110.25V92.2695H1118.09V143H1110.82L1079.6 98.1055L1087.93 105.453H1084.52V143H1076.68Z" fill="white"/>
<path d="M487.947 296.009V277.341H515.949C522.805 277.341 528.131 275.601 531.928 272.12C535.777 268.587 537.702 263.577 537.702 257.091V256.933C537.702 250.446 535.777 245.463 531.928 241.982C528.131 238.502 522.805 236.762 515.949 236.762H487.947V217.856H521.803C529.818 217.856 536.832 219.491 542.844 222.761C548.855 225.978 553.522 230.513 556.845 236.366C560.22 242.22 561.907 249.049 561.907 256.854V257.012C561.907 264.869 560.22 271.725 556.845 277.578C553.522 283.432 548.855 287.967 542.844 291.184C536.832 294.4 529.818 296.009 521.803 296.009H487.947ZM475.924 332V217.856H499.812V332H475.924ZM574.643 332V217.856H597.74V332H574.643ZM638.557 333.345C632.914 333.345 627.957 332.264 623.686 330.102C619.414 327.887 616.065 324.854 613.64 321.005C611.267 317.103 610.08 312.673 610.08 307.716V307.558C610.08 302.39 611.372 297.986 613.956 294.348C616.54 290.656 620.284 287.756 625.188 285.646C630.093 283.537 636.052 282.245 643.065 281.771L676.13 279.714V294.11L646.546 296.009C642.116 296.272 638.741 297.327 636.421 299.173C634.101 300.966 632.94 303.365 632.94 306.371V306.529C632.94 309.641 634.127 312.093 636.5 313.886C638.873 315.626 642.063 316.496 646.071 316.496C649.499 316.496 652.558 315.837 655.247 314.519C657.989 313.147 660.125 311.302 661.654 308.981C663.236 306.608 664.027 303.945 664.027 300.992V275.284C664.027 271.54 662.841 268.587 660.468 266.425C658.095 264.21 654.641 263.103 650.105 263.103C645.781 263.103 642.354 263.999 639.822 265.792C637.291 267.585 635.735 269.853 635.155 272.595L634.997 273.307H613.877L613.956 272.357C614.378 267.137 616.092 262.496 619.098 258.436C622.156 254.375 626.375 251.211 631.754 248.943C637.186 246.623 643.619 245.463 651.055 245.463C658.385 245.463 664.739 246.649 670.118 249.022C675.497 251.343 679.663 254.639 682.616 258.91C685.622 263.182 687.125 268.165 687.125 273.86V332H664.027V319.344H663.553C661.971 322.244 659.914 324.749 657.383 326.858C654.904 328.915 652.083 330.523 648.919 331.684C645.755 332.791 642.301 333.345 638.557 333.345ZM714.89 359.923C712.622 359.923 710.434 359.817 708.324 359.606C706.215 359.396 704.475 359.158 703.104 358.895V341.729C703.947 341.888 705.028 342.046 706.347 342.204C707.665 342.415 709.168 342.521 710.855 342.521C714.336 342.521 717.078 341.94 719.082 340.78C721.086 339.62 722.589 337.616 723.591 334.769L724.619 332L694.64 247.203H720.031L739.174 318.078L736.089 313.49H740.439L737.354 318.078L756.497 247.203H780.86L751.751 333.503C749.536 340.147 746.741 345.395 743.366 349.244C740.044 353.094 736.036 355.836 731.343 357.471C726.649 359.105 721.165 359.923 714.89 359.923ZM864.708 333.978C855.69 333.978 847.807 332.659 841.057 330.022C834.359 327.333 829.086 323.51 825.236 318.553C821.387 313.543 819.225 307.531 818.75 300.518L818.671 299.252H841.215L841.373 300.122C841.9 303.075 843.219 305.633 845.328 307.795C847.49 309.904 850.285 311.565 853.713 312.778C857.141 313.938 861.017 314.519 865.341 314.519C869.771 314.519 873.567 313.938 876.731 312.778C879.948 311.565 882.427 309.878 884.167 307.716C885.96 305.501 886.856 302.943 886.856 300.043V299.964C886.856 296.114 885.327 293.108 882.269 290.946C879.263 288.731 874.2 286.886 867.081 285.409L855.058 283.036C843.825 280.769 835.361 276.945 829.666 271.566C823.971 266.188 821.123 259.2 821.123 250.604V250.525C821.123 243.564 822.995 237.5 826.739 232.332C830.483 227.111 835.625 223.077 842.164 220.229C848.703 217.329 856.191 215.879 864.629 215.879C873.436 215.879 881.029 217.25 887.41 219.992C893.844 222.734 898.854 226.61 902.439 231.62C906.025 236.63 908.003 242.457 908.372 249.102L908.451 250.604H885.907L885.828 249.655C885.406 246.649 884.272 244.092 882.427 241.982C880.581 239.82 878.129 238.159 875.07 236.999C872.064 235.839 868.584 235.259 864.629 235.259C860.568 235.259 857.062 235.865 854.108 237.078C851.155 238.238 848.888 239.847 847.306 241.903C845.776 243.96 845.012 246.359 845.012 249.102V249.181C845.012 252.767 846.541 255.667 849.6 257.882C852.658 260.097 857.457 261.863 863.996 263.182L876.099 265.634C884.062 267.216 890.601 269.404 895.716 272.199C900.831 274.994 904.602 278.527 907.027 282.799C909.506 287.018 910.745 292.106 910.745 298.065V298.145C910.745 305.475 908.899 311.829 905.208 317.208C901.569 322.534 896.296 326.674 889.388 329.627C882.532 332.527 874.306 333.978 864.708 333.978ZM957.099 333.74C947.712 333.74 940.751 331.763 936.216 327.808C931.681 323.853 929.413 317.34 929.413 308.27V264.605H917.627V247.203H929.413V226.479H952.748V247.203H968.252V264.605H952.748V305.738C952.748 309.693 953.618 312.462 955.358 314.044C957.151 315.573 959.788 316.338 963.269 316.338C964.323 316.338 965.246 316.312 966.037 316.259C966.828 316.153 967.566 316.048 968.252 315.942V332.87C966.986 333.081 965.404 333.266 963.506 333.424C961.66 333.635 959.524 333.74 957.099 333.74ZM1018.8 333.74C1010.2 333.74 1002.77 331.974 996.491 328.44C990.216 324.907 985.364 319.845 981.937 313.253C978.509 306.661 976.795 298.777 976.795 289.602V289.443C976.795 280.32 978.535 272.489 982.016 265.95C985.496 259.358 990.374 254.296 996.649 250.763C1002.92 247.229 1010.28 245.463 1018.72 245.463C1027.21 245.463 1034.59 247.229 1040.87 250.763C1047.2 254.243 1052.1 259.279 1055.58 265.871C1059.06 272.41 1060.8 280.268 1060.8 289.443V289.602C1060.8 298.83 1059.06 306.74 1055.58 313.332C1052.15 319.924 1047.3 324.986 1041.03 328.52C1034.75 332 1027.34 333.74 1018.8 333.74ZM1018.88 315.626C1022.62 315.626 1025.86 314.624 1028.61 312.62C1031.4 310.563 1033.54 307.61 1035.01 303.761C1036.54 299.858 1037.31 295.139 1037.31 289.602V289.443C1037.31 283.959 1036.54 279.292 1035.01 275.442C1033.48 271.593 1031.32 268.666 1028.53 266.662C1025.73 264.605 1022.46 263.577 1018.72 263.577C1015.03 263.577 1011.78 264.605 1008.99 266.662C1006.25 268.666 1004.11 271.593 1002.58 275.442C1001.05 279.292 1000.29 283.959 1000.29 289.443V289.602C1000.29 295.139 1001.03 299.858 1002.5 303.761C1004.03 307.61 1006.19 310.563 1008.99 312.62C1011.78 314.624 1015.08 315.626 1018.88 315.626ZM1072.75 332V247.203H1095.84V261.995H1096.32C1097.58 256.774 1099.88 252.714 1103.2 249.813C1106.52 246.913 1110.66 245.463 1115.62 245.463C1116.88 245.463 1118.1 245.542 1119.26 245.7C1120.42 245.858 1121.42 246.069 1122.26 246.333V266.662C1121.31 266.293 1120.1 266.003 1118.62 265.792C1117.15 265.528 1115.57 265.396 1113.88 265.396C1110.08 265.396 1106.84 266.135 1104.15 267.611C1101.46 269.088 1099.4 271.25 1097.98 274.098C1096.55 276.945 1095.84 280.426 1095.84 284.539V332H1072.75ZM1167.67 333.74C1159.02 333.74 1151.58 331.974 1145.36 328.44C1139.14 324.854 1134.34 319.766 1130.96 313.174C1127.64 306.582 1125.98 298.777 1125.98 289.76V289.681C1125.98 280.663 1127.64 272.858 1130.96 266.267C1134.34 259.622 1139.06 254.507 1145.12 250.921C1151.24 247.282 1158.44 245.463 1166.72 245.463C1175 245.463 1182.14 247.229 1188.15 250.763C1194.22 254.243 1198.89 259.174 1202.16 265.555C1205.48 271.936 1207.14 279.397 1207.14 287.94V295.06H1137.29V280.505H1196.22L1185.23 294.11V285.251C1185.23 280.294 1184.46 276.154 1182.93 272.832C1181.4 269.457 1179.27 266.926 1176.53 265.238C1173.84 263.551 1170.7 262.707 1167.11 262.707C1163.53 262.707 1160.34 263.577 1157.54 265.317C1154.8 267.058 1152.64 269.615 1151.06 272.99C1149.53 276.312 1148.76 280.399 1148.76 285.251V294.189C1148.76 298.883 1149.53 302.891 1151.06 306.213C1152.64 309.535 1154.88 312.093 1157.78 313.886C1160.68 315.626 1164.13 316.496 1168.14 316.496C1171.31 316.496 1174.05 315.995 1176.37 314.993C1178.69 313.991 1180.59 312.726 1182.06 311.196C1183.54 309.667 1184.54 308.111 1185.07 306.529L1185.23 306.055H1206.43L1206.19 306.925C1205.56 310.036 1204.32 313.174 1202.47 316.338C1200.63 319.502 1198.12 322.402 1194.96 325.039C1191.85 327.676 1188.02 329.785 1183.49 331.367C1179 332.949 1173.73 333.74 1167.67 333.74Z" fill="white"/>
<defs>
<linearGradient id="paint0_linear_3_8585" x1="60.0273" y1="145.709" x2="260.151" y2="145.709" gradientUnits="userSpaceOnUse">
<stop stop-color="#63BE6B"/>
<stop offset="0.506" stop-color="#5BBC6A"/>
<stop offset="1" stop-color="#4AB96A"/>
</linearGradient>
<linearGradient id="paint1_linear_3_8585" x1="60.143" y1="230.81" x2="197.57" y2="230.81" gradientUnits="userSpaceOnUse">
<stop stop-color="#3EC6F2"/>
<stop offset="1" stop-color="#45AFE3"/>
</linearGradient>
<linearGradient id="paint2_linear_3_8585" x1="197.569" y1="235.452" x2="371.953" y2="235.452" gradientUnits="userSpaceOnUse">
<stop stop-color="#FAA51A"/>
<stop offset="0.387" stop-color="#FAB716"/>
<stop offset="0.741" stop-color="#FAC412"/>
<stop offset="1" stop-color="#FAC80F"/>
</linearGradient>
<linearGradient id="paint3_linear_3_8585" x1="61.3618" y1="324.191" x2="268.219" y2="324.191" gradientUnits="userSpaceOnUse">
<stop stop-color="#EC3B50"/>
<stop offset="1" stop-color="#E7515B"/>
</linearGradient>
<clipPath id="clip0_3_8585">
<rect width="312" height="357" fill="white" transform="translate(60 60)"/>
</clipPath>
</defs>
</svg>
