<svg width="1272" height="460" viewBox="0 0 1272 460" fill="none" xmlns="http://www.w3.org/2000/svg">
<rect width="1272" height="460" rx="64" fill="#414141"/>
<g clip-path="url(#clip0_3_8578)">
<path d="M291.704 240.47C291.212 197.383 326.666 176.948 328.389 175.717C321.306 165.696 311.994 157.455 301.185 151.645C290.375 145.834 278.365 142.612 266.099 142.233C239.755 139.525 214.395 157.744 201.1 157.744C187.805 157.744 167.124 142.479 145.211 142.972C130.789 143.358 116.715 147.488 104.37 154.955C92.0253 162.423 81.834 172.971 74.7962 185.566C44.7589 237.515 67.1637 314.578 96.2162 356.926C110.496 377.361 127.731 400.504 149.889 399.766C171.555 399.027 179.434 385.732 205.532 385.732C231.63 385.732 239.016 399.766 261.667 399.273C284.811 399.027 299.583 378.346 313.617 357.418C330.113 333.782 336.76 310.639 337.253 309.408C336.76 308.915 292.197 292.173 291.704 240.47ZM248.864 114.166C260.682 99.8855 268.561 79.6966 266.591 60C249.357 60.7386 228.675 71.3255 216.365 85.6055C209.994 92.7366 205.119 101.075 202.032 110.126C198.945 119.177 197.707 128.755 198.392 138.294C217.596 139.771 237.047 128.446 248.864 114.166Z" fill="white"/>
</g>
<path opacity="0.8" d="M587.099 135.344C582.317 135.344 578.157 134.277 574.618 132.145C571.103 130.012 568.384 126.988 566.462 123.074C564.54 119.137 563.579 114.484 563.579 109.117V109.082C563.579 103.715 564.54 99.0742 566.462 95.1602C568.384 91.2461 571.103 88.2344 574.618 86.125C578.134 83.9922 582.294 82.9258 587.099 82.9258C590.825 82.9258 594.188 83.6406 597.188 85.0703C600.188 86.5 602.661 88.4805 604.606 91.0117C606.552 93.543 607.782 96.4844 608.298 99.8359L608.333 100.188H600.493L600.282 99.4844C599.743 97.4922 598.864 95.7812 597.645 94.3516C596.45 92.9219 594.962 91.832 593.181 91.082C591.423 90.3086 589.395 89.9219 587.099 89.9219C583.958 89.9219 581.228 90.707 578.907 92.2773C576.61 93.8477 574.829 96.0625 573.563 98.9219C572.298 101.781 571.665 105.168 571.665 109.082V109.117C571.665 113.008 572.298 116.406 573.563 119.312C574.829 122.195 576.622 124.422 578.942 125.992C581.263 127.562 583.981 128.348 587.099 128.348C589.349 128.348 591.353 127.973 593.11 127.223C594.892 126.449 596.403 125.324 597.645 123.848C598.888 122.371 599.813 120.566 600.423 118.434L600.528 118.082H608.368L608.298 118.434C607.782 121.809 606.552 124.773 604.606 127.328C602.685 129.859 600.224 131.828 597.224 133.234C594.224 134.641 590.849 135.344 587.099 135.344ZM638.233 135.344C633.334 135.344 629.104 134.289 625.541 132.18C621.979 130.047 619.237 127.023 617.315 123.109C615.393 119.172 614.432 114.52 614.432 109.152V109.082C614.432 103.715 615.393 99.0742 617.315 95.1602C619.26 91.2461 622.014 88.2344 625.576 86.125C629.139 83.9922 633.358 82.9258 638.233 82.9258C643.084 82.9258 647.291 83.9922 650.854 86.125C654.416 88.2578 657.158 91.2812 659.08 95.1953C661.002 99.0859 661.963 103.715 661.963 109.082V109.152C661.963 114.52 661.002 119.16 659.08 123.074C657.158 126.988 654.416 130.012 650.854 132.145C647.315 134.277 643.108 135.344 638.233 135.344ZM638.233 128.348C641.467 128.348 644.256 127.562 646.6 125.992C648.944 124.422 650.748 122.195 652.014 119.312C653.28 116.43 653.912 113.043 653.912 109.152V109.082C653.912 105.168 653.268 101.781 651.979 98.9219C650.713 96.0391 648.897 93.8242 646.53 92.2773C644.186 90.707 641.42 89.9219 638.233 89.9219C635.022 89.9219 632.233 90.6953 629.865 92.2422C627.522 93.7891 625.705 96.0039 624.416 98.8867C623.127 101.746 622.483 105.145 622.483 109.082V109.152C622.483 113.066 623.127 116.465 624.416 119.348C625.705 122.23 627.522 124.457 629.865 126.027C632.209 127.574 634.998 128.348 638.233 128.348ZM670.207 134.5V83.7695H679.312L695.73 124.234H695.941L712.359 83.7695H721.5V134.5H714.293V97.0938H710.671L718.898 85.1758L698.753 134.5H692.918L672.808 85.1758L681.035 97.0938H677.414V134.5H670.207ZM731.606 134.5V83.7695H740.712L757.13 124.234H757.341L773.759 83.7695H782.899V134.5H775.692V97.0938H772.071L780.298 85.1758L760.153 134.5H754.317L734.208 85.1758L742.434 97.0938H738.813V134.5H731.606ZM793.006 134.5V83.7695H800.881V134.5H793.006ZM810.953 134.5V83.7695H818.23L849.449 128.594L841.117 121.211H844.527V83.7695H852.367V134.5H845.089L813.87 89.6055L822.203 96.9531H818.792V134.5H810.953ZM884.27 135.344C880.637 135.344 877.356 134.734 874.426 133.516C871.52 132.297 869.036 130.539 866.973 128.242C864.934 125.945 863.364 123.168 862.262 119.91C861.161 116.652 860.61 112.984 860.61 108.906V108.871C860.61 103.527 861.571 98.9219 863.493 95.0547C865.415 91.1875 868.145 88.1992 871.684 86.0898C875.223 83.9805 879.395 82.9258 884.2 82.9258C888.137 82.9258 891.583 83.6289 894.536 85.0352C897.489 86.418 899.903 88.3164 901.778 90.7305C903.653 93.1445 904.942 95.8867 905.645 98.957L905.786 99.5547H897.665L897.524 99.168C896.469 96.2383 894.805 93.9648 892.532 92.3477C890.282 90.7305 887.505 89.9219 884.2 89.9219C880.989 89.9219 878.212 90.6719 875.868 92.1719C873.548 93.6719 871.766 95.8398 870.524 98.6758C869.282 101.488 868.661 104.875 868.661 108.836V108.871C868.661 111.895 869.024 114.613 869.751 117.027C870.477 119.418 871.52 121.457 872.88 123.145C874.262 124.832 875.915 126.121 877.837 127.012C879.758 127.902 881.926 128.348 884.34 128.348C887.083 128.348 889.497 127.809 891.583 126.73C893.692 125.652 895.333 124.152 896.505 122.23C897.7 120.285 898.309 118.035 898.333 115.48V114.637H885.044V108.203H906.137V113.406C906.137 116.828 905.645 119.898 904.661 122.617C903.676 125.336 902.235 127.645 900.337 129.543C898.462 131.441 896.165 132.883 893.446 133.867C890.751 134.852 887.692 135.344 884.27 135.344ZM947.128 135.344C943.331 135.344 940.003 134.77 937.144 133.621C934.308 132.473 932.058 130.832 930.394 128.699C928.73 126.543 927.792 123.977 927.581 121L927.546 120.473H935.245L935.316 120.93C935.55 122.477 936.195 123.824 937.249 124.973C938.327 126.098 939.734 126.965 941.468 127.574C943.202 128.184 945.195 128.488 947.445 128.488C949.718 128.488 951.675 128.172 953.316 127.539C954.956 126.906 956.222 126.004 957.113 124.832C958.027 123.66 958.484 122.289 958.484 120.719V120.684C958.484 118.645 957.745 117.027 956.269 115.832C954.816 114.613 952.402 113.641 949.027 112.914L943.507 111.754C938.538 110.699 934.835 109.012 932.398 106.691C929.96 104.348 928.741 101.301 928.741 97.5508V97.5156C928.765 94.6328 929.562 92.1016 931.132 89.9219C932.702 87.7188 934.87 86.0078 937.636 84.7891C940.402 83.5469 943.577 82.9258 947.163 82.9258C950.679 82.9258 953.784 83.5234 956.48 84.7188C959.175 85.9141 961.308 87.5898 962.878 89.7461C964.448 91.8789 965.327 94.375 965.515 97.2344L965.55 97.7969H957.851L957.78 97.3398C957.57 95.7461 956.984 94.3867 956.023 93.2617C955.085 92.1367 953.855 91.2812 952.331 90.6953C950.808 90.0859 949.038 89.7812 947.023 89.7812C944.937 89.7812 943.12 90.0977 941.573 90.7305C940.027 91.3398 938.831 92.1953 937.988 93.2969C937.144 94.3984 936.722 95.6992 936.722 97.1992V97.2344C936.722 99.1328 937.472 100.68 938.972 101.875C940.472 103.07 942.804 104.008 945.968 104.688L951.488 105.883C954.98 106.609 957.827 107.594 960.03 108.836C962.234 110.078 963.863 111.625 964.917 113.477C965.972 115.328 966.499 117.566 966.499 120.191V120.227C966.499 123.32 965.714 126.004 964.144 128.277C962.597 130.527 960.37 132.273 957.464 133.516C954.581 134.734 951.136 135.344 947.128 135.344ZM996.258 135.344C991.36 135.344 987.129 134.289 983.567 132.18C980.004 130.047 977.262 127.023 975.34 123.109C973.418 119.172 972.458 114.52 972.458 109.152V109.082C972.458 103.715 973.418 99.0742 975.34 95.1602C977.286 91.2461 980.04 88.2344 983.602 86.125C987.165 83.9922 991.383 82.9258 996.258 82.9258C1001.11 82.9258 1005.32 83.9922 1008.88 86.125C1012.44 88.2578 1015.18 91.2812 1017.11 95.1953C1019.03 99.0859 1019.99 103.715 1019.99 109.082V109.152C1019.99 114.52 1019.03 119.16 1017.11 123.074C1015.18 126.988 1012.44 130.012 1008.88 132.145C1005.34 134.277 1001.13 135.344 996.258 135.344ZM996.258 128.348C999.493 128.348 1002.28 127.562 1004.63 125.992C1006.97 124.422 1008.77 122.195 1010.04 119.312C1011.31 116.43 1011.94 113.043 1011.94 109.152V109.082C1011.94 105.168 1011.29 101.781 1010 98.9219C1008.74 96.0391 1006.92 93.8242 1004.56 92.2773C1002.21 90.707 999.446 89.9219 996.258 89.9219C993.047 89.9219 990.258 90.6953 987.891 92.2422C985.547 93.7891 983.731 96.0039 982.442 98.8867C981.153 101.746 980.508 105.145 980.508 109.082V109.152C980.508 113.066 981.153 116.465 982.442 119.348C983.731 122.23 985.547 124.457 987.891 126.027C990.235 127.574 993.024 128.348 996.258 128.348ZM1050.2 135.344C1045.31 135.344 1041.08 134.289 1037.51 132.18C1033.95 130.047 1031.21 127.023 1029.29 123.109C1027.37 119.172 1026.4 114.52 1026.4 109.152V109.082C1026.4 103.715 1027.37 99.0742 1029.29 95.1602C1031.23 91.2461 1033.99 88.2344 1037.55 86.125C1041.11 83.9922 1045.33 82.9258 1050.2 82.9258C1055.06 82.9258 1059.26 83.9922 1062.83 86.125C1066.39 88.2578 1069.13 91.2812 1071.05 95.1953C1072.97 99.0859 1073.94 103.715 1073.94 109.082V109.152C1073.94 114.52 1072.97 119.16 1071.05 123.074C1069.13 126.988 1066.39 130.012 1062.83 132.145C1059.29 134.277 1055.08 135.344 1050.2 135.344ZM1050.2 128.348C1053.44 128.348 1056.23 127.562 1058.57 125.992C1060.92 124.422 1062.72 122.195 1063.99 119.312C1065.25 116.43 1065.88 113.043 1065.88 109.152V109.082C1065.88 105.168 1065.24 101.781 1063.95 98.9219C1062.69 96.0391 1060.87 93.8242 1058.5 92.2773C1056.16 90.707 1053.39 89.9219 1050.2 89.9219C1046.99 89.9219 1044.2 90.6953 1041.84 92.2422C1039.49 93.7891 1037.68 96.0039 1036.39 98.8867C1035.1 101.746 1034.45 105.145 1034.45 109.082V109.152C1034.45 113.066 1035.1 116.465 1036.39 119.348C1037.68 122.23 1039.49 124.457 1041.84 126.027C1044.18 127.574 1046.97 128.348 1050.2 128.348ZM1082.18 134.5V83.7695H1089.46L1120.67 128.594L1112.34 121.211H1115.75V83.7695H1123.59V134.5H1116.32L1085.1 89.6055L1093.43 96.9531H1090.02V134.5H1082.18Z" fill="white"/>
<path d="M479.367 323.5L519.234 209.356H540.275V231.505H532.998L504.442 323.5H479.367ZM500.804 295.814L506.657 277.938H559.893L565.746 295.814H500.804ZM562.028 323.5L533.473 231.505V209.356H547.315L587.104 323.5H562.028ZM596.833 351.186V238.703H619.931V253.495H620.484C622.014 250.067 624.018 247.114 626.496 244.636C629.027 242.157 631.954 240.259 635.276 238.94C638.651 237.622 642.343 236.963 646.351 236.963C653.522 236.963 659.692 238.729 664.86 242.263C670.028 245.743 674.01 250.779 676.805 257.371C679.6 263.963 680.997 271.847 680.997 281.022V281.102C680.997 290.277 679.6 298.161 676.805 304.753C674.062 311.345 670.134 316.407 665.019 319.94C659.903 323.474 653.786 325.24 646.667 325.24C642.659 325.24 638.941 324.581 635.514 323.263C632.086 321.944 629.106 320.099 626.575 317.726C624.044 315.3 621.987 312.399 620.405 309.024H619.931V351.186H596.833ZM638.757 306.098C642.606 306.098 645.929 305.096 648.724 303.092C651.519 301.035 653.681 298.135 655.21 294.391C656.739 290.646 657.504 286.217 657.504 281.102V281.022C657.504 275.854 656.739 271.398 655.21 267.654C653.681 263.91 651.492 261.062 648.645 259.111C645.85 257.107 642.554 256.105 638.757 256.105C635.013 256.105 631.717 257.134 628.869 259.19C626.021 261.194 623.807 264.068 622.225 267.812C620.643 271.504 619.852 275.934 619.852 281.102V281.181C619.852 286.243 620.643 290.646 622.225 294.391C623.859 298.135 626.074 301.035 628.869 303.092C631.717 305.096 635.013 306.098 638.757 306.098ZM693.021 351.186V238.703H716.118V253.495H716.672C718.201 250.067 720.205 247.114 722.684 244.636C725.215 242.157 728.142 240.259 731.464 238.94C734.839 237.622 738.53 236.963 742.538 236.963C749.71 236.963 755.88 238.729 761.048 242.263C766.216 245.743 770.197 250.779 772.992 257.371C775.787 263.963 777.185 271.847 777.185 281.022V281.102C777.185 290.277 775.787 298.161 772.992 304.753C770.25 311.345 766.321 316.407 761.206 319.94C756.091 323.474 749.974 325.24 742.854 325.24C738.847 325.24 735.129 324.581 731.701 323.263C728.273 321.944 725.294 320.099 722.763 317.726C720.231 315.3 718.175 312.399 716.593 309.024H716.118V351.186H693.021ZM734.944 306.098C738.794 306.098 742.116 305.096 744.911 303.092C747.706 301.035 749.868 298.135 751.397 294.391C752.927 290.646 753.691 286.217 753.691 281.102V281.022C753.691 275.854 752.927 271.398 751.397 267.654C749.868 263.91 747.68 261.062 744.832 259.111C742.037 257.107 738.741 256.105 734.944 256.105C731.2 256.105 727.904 257.134 725.057 259.19C722.209 261.194 719.994 264.068 718.412 267.812C716.83 271.504 716.039 275.934 716.039 281.102V281.181C716.039 286.243 716.83 290.646 718.412 294.391C720.047 298.135 722.262 301.035 725.057 303.092C727.904 305.096 731.2 306.098 734.944 306.098ZM864.987 325.478C855.97 325.478 848.086 324.159 841.336 321.522C834.639 318.833 829.365 315.01 825.516 310.053C821.666 305.043 819.504 299.031 819.029 292.018L818.95 290.752H841.494L841.652 291.622C842.18 294.575 843.498 297.133 845.607 299.295C847.77 301.404 850.564 303.065 853.992 304.278C857.42 305.438 861.296 306.019 865.62 306.019C870.05 306.019 873.847 305.438 877.011 304.278C880.228 303.065 882.706 301.378 884.446 299.216C886.239 297.001 887.136 294.443 887.136 291.543V291.464C887.136 287.614 885.606 284.608 882.548 282.446C879.542 280.231 874.479 278.386 867.36 276.909L855.337 274.536C844.104 272.269 835.641 268.445 829.945 263.066C824.25 257.688 821.402 250.7 821.402 242.104V242.025C821.402 235.064 823.274 229 827.019 223.832C830.763 218.611 835.904 214.577 842.443 211.729C848.982 208.829 856.471 207.379 864.908 207.379C873.715 207.379 881.309 208.75 887.689 211.492C894.123 214.234 899.133 218.11 902.719 223.12C906.305 228.13 908.282 233.957 908.651 240.602L908.73 242.104H886.187L886.107 241.155C885.686 238.149 884.552 235.592 882.706 233.482C880.86 231.32 878.408 229.659 875.35 228.499C872.344 227.339 868.863 226.759 864.908 226.759C860.848 226.759 857.341 227.365 854.388 228.578C851.435 229.738 849.167 231.347 847.585 233.403C846.056 235.46 845.291 237.859 845.291 240.602V240.681C845.291 244.267 846.82 247.167 849.879 249.382C852.938 251.597 857.736 253.363 864.275 254.682L876.378 257.134C884.341 258.716 890.88 260.904 895.995 263.699C901.11 266.494 904.881 270.027 907.307 274.299C909.785 278.518 911.024 283.606 911.024 289.565V289.645C911.024 296.975 909.179 303.329 905.487 308.708C901.849 314.034 896.575 318.174 889.667 321.127C882.812 324.027 874.585 325.478 864.987 325.478ZM957.378 325.24C947.991 325.24 941.03 323.263 936.495 319.308C931.96 315.353 929.692 308.84 929.692 299.77V256.105H917.906V238.703H929.692V217.979H953.027V238.703H968.531V256.105H953.027V297.238C953.027 301.193 953.897 303.962 955.638 305.544C957.431 307.073 960.067 307.838 963.548 307.838C964.603 307.838 965.525 307.812 966.316 307.759C967.107 307.653 967.846 307.548 968.531 307.442V324.37C967.266 324.581 965.684 324.766 963.785 324.924C961.939 325.135 959.804 325.24 957.378 325.24ZM1019.08 325.24C1010.48 325.24 1003.05 323.474 996.771 319.94C990.495 316.407 985.644 311.345 982.216 304.753C978.788 298.161 977.074 290.277 977.074 281.102V280.943C977.074 271.82 978.814 263.989 982.295 257.45C985.775 250.858 990.653 245.796 996.929 242.263C1003.2 238.729 1010.56 236.963 1019 236.963C1027.49 236.963 1034.87 238.729 1041.15 242.263C1047.47 245.743 1052.38 250.779 1055.86 257.371C1059.34 263.91 1061.08 271.768 1061.08 280.943V281.102C1061.08 290.33 1059.34 298.24 1055.86 304.832C1052.43 311.424 1047.58 316.486 1041.3 320.02C1035.03 323.5 1027.62 325.24 1019.08 325.24ZM1019.16 307.126C1022.9 307.126 1026.14 306.124 1028.89 304.12C1031.68 302.063 1033.82 299.11 1035.29 295.261C1036.82 291.358 1037.59 286.639 1037.59 281.102V280.943C1037.59 275.459 1036.82 270.792 1035.29 266.942C1033.76 263.093 1031.6 260.166 1028.81 258.162C1026.01 256.105 1022.74 255.077 1019 255.077C1015.31 255.077 1012.06 256.105 1009.27 258.162C1006.53 260.166 1004.39 263.093 1002.86 266.942C1001.33 270.792 1000.57 275.459 1000.57 280.943V281.102C1000.57 286.639 1001.31 291.358 1002.78 295.261C1004.31 299.11 1006.47 302.063 1009.27 304.12C1012.06 306.124 1015.36 307.126 1019.16 307.126ZM1073.02 323.5V238.703H1096.12V253.495H1096.6C1097.86 248.274 1100.16 244.214 1103.48 241.313C1106.8 238.413 1110.94 236.963 1115.9 236.963C1117.16 236.963 1118.38 237.042 1119.54 237.2C1120.7 237.358 1121.7 237.569 1122.54 237.833V258.162C1121.59 257.793 1120.38 257.503 1118.9 257.292C1117.43 257.028 1115.84 256.896 1114.16 256.896C1110.36 256.896 1107.12 257.635 1104.43 259.111C1101.74 260.588 1099.68 262.75 1098.26 265.598C1096.83 268.445 1096.12 271.926 1096.12 276.039V323.5H1073.02ZM1167.95 325.24C1159.3 325.24 1151.86 323.474 1145.64 319.94C1139.42 316.354 1134.62 311.266 1131.24 304.674C1127.92 298.082 1126.26 290.277 1126.26 281.26V281.181C1126.26 272.163 1127.92 264.358 1131.24 257.767C1134.62 251.122 1139.34 246.007 1145.4 242.421C1151.52 238.782 1158.72 236.963 1167 236.963C1175.28 236.963 1182.42 238.729 1188.43 242.263C1194.5 245.743 1199.17 250.674 1202.43 257.055C1205.76 263.436 1207.42 270.897 1207.42 279.44V286.56H1137.57V272.005H1196.5L1185.51 285.61V276.751C1185.51 271.794 1184.74 267.654 1183.21 264.332C1181.68 260.957 1179.55 258.426 1176.81 256.738C1174.12 255.051 1170.98 254.207 1167.39 254.207C1163.81 254.207 1160.62 255.077 1157.82 256.817C1155.08 258.558 1152.92 261.115 1151.33 264.49C1149.81 267.812 1149.04 271.899 1149.04 276.751V285.689C1149.04 290.383 1149.81 294.391 1151.33 297.713C1152.92 301.035 1155.16 303.593 1158.06 305.386C1160.96 307.126 1164.41 307.996 1168.42 307.996C1171.58 307.996 1174.33 307.495 1176.65 306.493C1178.97 305.491 1180.87 304.226 1182.34 302.696C1183.82 301.167 1184.82 299.611 1185.35 298.029L1185.51 297.555H1206.71L1206.47 298.425C1205.84 301.536 1204.6 304.674 1202.75 307.838C1200.91 311.002 1198.4 313.902 1195.24 316.539C1192.12 319.176 1188.3 321.285 1183.77 322.867C1179.28 324.449 1174.01 325.24 1167.95 325.24Z" fill="white"/>
<defs>
<clipPath id="clip0_3_8578">
<rect width="278" height="340" fill="white" transform="translate(60 60)"/>
</clipPath>
</defs>
</svg>
