<svg width="4244" height="4244" viewBox="0 0 4244 4244" fill="none" xmlns="http://www.w3.org/2000/svg">
<path d="M2893.18 4123.77V3113.59C2893.18 3032.44 2827.4 2966.65 2746.25 2966.65L1497.29 2966.65C1416.14 2966.65 1350.36 3032.44 1350.36 3113.59V4123.77M4123.77 1534.03H3095.22C3014.07 1534.03 2948.29 1599.81 2948.29 1680.96L2948.29 2562.58C2948.29 2643.73 3014.07 2709.51 3095.22 2709.51H4123.77M1295.26 2130.95L2022.55 1403.66C2079.93 1346.28 2172.97 1346.28 2230.35 1403.66L2853.75 2027.05C2911.13 2084.44 2911.13 2177.47 2853.75 2234.85L2230.35 2858.25C2172.97 2915.63 2079.93 2915.63 2022.55 2858.25L1295.26 2130.95ZM1295.26 2130.95C1295.26 1806.35 1032.12 1534.03 707.515 1534.03C382.913 1534.03 119.771 1797.17 119.771 2121.77M1295.26 2130.95C1295.26 2455.56 1032.12 2709.51 707.515 2709.51C382.913 2709.51 119.771 2446.37 119.771 2121.77M1295.26 2130.95L119.771 2121.77M3297.26 119.771C3297.26 431.529 3173.41 730.518 2952.97 950.965C2732.52 1171.41 2433.53 1295.26 2121.77 1295.26C1810.01 1295.26 1511.02 1171.41 1290.58 950.965C1070.13 730.518 946.285 431.529 946.285 119.771M2094.22 1267.71V147.321M1892.18 606.495H2296.26" stroke="#B46D50" stroke-width="239.541" stroke-linecap="round"/>
</svg>
