<svg width="12" height="12" viewBox="0 0 12 12" fill="none" xmlns="http://www.w3.org/2000/svg">
<g clip-path="url(#clip0_1342_17)">
<path d="M11 2.21438V4.62813V7.84812V10.2856C11 10.6077 10.8721 10.9166 10.6443 11.1443C10.4166 11.3721 10.1077 11.5 9.78563 11.5H7.5625C7.54592 11.5 7.53003 11.4934 7.51831 11.4817C7.50658 11.47 7.5 11.4541 7.5 11.4375V10.5716C7.5 9.635 6.65938 8.97844 5.71875 9.00031C4.77344 9.0225 4 9.83719 4 10.7834V11.4375C4 11.4541 3.99342 11.47 3.98169 11.4817C3.96997 11.4934 3.95408 11.5 3.9375 11.5H1.73813C1.41006 11.499 1.09571 11.3682 0.863731 11.1363C0.631752 10.9043 0.500989 10.5899 0.5 10.2619V8.0625C0.5 8.04592 0.506585 8.03003 0.518306 8.01831C0.530027 8.00658 0.545924 8 0.5625 8H1.42844C2.35906 8 3.10687 7.1475 3.09375 6.21406C3.08094 5.29625 2.32125 4.5 1.40344 4.5H0.5625C0.545924 4.5 0.530027 4.49342 0.518306 4.48169C0.506585 4.46997 0.5 4.45408 0.5 4.4375V2.23812C0.500989 1.91006 0.631752 1.59571 0.863731 1.36373C1.09571 1.13175 1.41006 1.00099 1.73813 1H4.15188H7.37187H9.78563C10.1077 1 10.4166 1.12794 10.6443 1.35568C10.8721 1.58342 11 1.8923 11 2.21438Z" stroke="#B46D50" stroke-linecap="round" stroke-linejoin="round"/>
</g>
<defs>
<clipPath id="clip0_1342_17">
<rect width="12" height="12" fill="white"/>
</clipPath>
</defs>
</svg>
