<svg width="15" height="15" viewBox="0 0 15 15" fill="none" xmlns="http://www.w3.org/2000/svg">
<g clip-path="url(#clip0_1342_19)">
<path d="M11.5625 7.19038H12.4269C13.275 7.19038 14 7.84382 14 8.71038C14 9.57694 13.3159 10.2854 12.4525 10.2854H11.5625C11.5459 10.2854 11.53 10.292 11.5183 10.3037C11.5066 10.3154 11.5 10.3313 11.5 10.3479V12.7854C11.5 13.1075 11.3721 13.4163 11.1443 13.6441C10.9166 13.8718 10.6077 13.9998 10.2856 13.9998H8.0625C8.04592 13.9998 8.03003 13.9932 8.01831 13.9815C8.00658 13.9697 8 13.9538 8 13.9373V13.0713C8 12.1348 7.15938 11.4782 6.21875 11.5001C5.27344 11.5223 4.5 12.3369 4.5 13.2832V13.9373C4.5 13.9538 4.49342 13.9697 4.48169 13.9815C4.46997 13.9932 4.45408 13.9998 4.4375 13.9998H2.23813C1.91006 13.9988 1.59571 13.868 1.36373 13.636C1.13175 13.404 1.00099 13.0897 1 12.7616V10.5623V6.93726V4.73788C1.00099 4.40981 1.13175 4.09547 1.36373 3.86349C1.59571 3.63151 1.91006 3.50074 2.23813 3.49976H4.65188C4.66845 3.49976 4.68435 3.49317 4.69607 3.48145C4.70779 3.46973 4.71438 3.45383 4.71438 3.43726V2.54726C4.71443 2.34174 4.75541 2.13829 4.83492 1.94878C4.91444 1.75927 5.0309 1.58749 5.17751 1.44347C5.32412 1.29945 5.49795 1.18606 5.68885 1.10993C5.87974 1.03381 6.08389 0.996458 6.28937 1.00007C7.1375 1.01476 7.80937 1.72476 7.80937 2.57288V3.43726C7.80937 3.45383 7.81596 3.46973 7.82768 3.48145C7.8394 3.49317 7.8553 3.49976 7.87187 3.49976H10.2856C10.6077 3.49976 10.9166 3.6277 11.1443 3.85544C11.3721 4.08318 11.5 4.39206 11.5 4.71413V7.12788C11.5 7.14446 11.5066 7.16035 11.5183 7.17208C11.53 7.1838 11.5459 7.19038 11.5625 7.19038Z" stroke="#B46D50" stroke-linecap="round" stroke-linejoin="round"/>
</g>
<defs>
<clipPath id="clip0_1342_19">
<rect width="15" height="15" fill="white"/>
</clipPath>
</defs>
</svg>
